<?xml version="1.0" encoding="UTF-8"?>
<svg width="223px" height="250px" viewBox="0 0 223 250" version="1.1" xmlns="http://www.w3.org/2000/svg" xmlns:xlink="http://www.w3.org/1999/xlink">
    <!-- Generator: sketchtool 53 (72520) - https://sketchapp.com -->
    <title>DD3124F4-CE3B-4A92-9C95-0E65CDA515B2</title>
    <desc>Created with sketchtool.</desc>
    <g id="Desktop" stroke="none" stroke-width="1" fill="none" fill-rule="evenodd">
        <g id="Developers" transform="translate(-1118.000000, -212.000000)" fill-rule="nonzero">
            <g id="atom" transform="translate(1118.000000, 212.000000)">
                <g id="Group" fill="#ECEAEC">
                    <path d="M111.275078,250 C97.1317187,250 84.1453688,236.545562 74.708202,212.112427 C65.6999111,188.785553 60.7363922,157.848358 60.7363922,125 C60.7363922,92.1516416 65.6980051,61.2144473 74.708202,37.8875732 C84.1453688,13.4544375 97.1317187,0 111.275078,0 C125.416533,0 138.402882,13.4544375 147.840049,37.8875732 C156.850246,61.2144473 161.811859,92.1516416 161.811859,125 C161.811859,157.848358 156.850246,188.785553 147.840049,212.112427 C138.402882,236.545562 125.416533,250 111.275078,250 Z M111.275078,7.3604585 C100.541755,7.3604585 89.7150319,19.4549561 81.5702097,40.5406953 C72.8783333,63.041687 68.0920833,93.0366514 68.0920833,125 C68.0920833,156.963349 72.8783333,186.958313 81.5702097,209.459305 C89.7150319,230.545044 100.541755,242.639542 111.275078,242.639542 C122.008402,242.639542 132.835125,230.545044 140.979947,209.459305 C149.669917,186.958313 154.456168,156.963349 154.456168,125 C154.456168,93.0366514 149.669917,63.041687 140.979947,40.5406953 C132.835125,19.4549561 122.008402,7.3604585 111.275078,7.3604585 Z" id="Shape"></path>
                    <path d="M37.0205316,201.683044 C20.2772329,201.683044 8.47648569,196.832657 3.09171592,187.5 C-3.97996444,175.243378 1.17225976,157.262802 17.5991434,136.869431 C33.2826431,117.397309 57.5760567,97.6276396 86.0057353,81.2053682 C114.435414,64.781189 143.69044,53.6117554 168.384137,49.7570039 C194.248188,45.7191465 212.386761,50.2452852 219.458442,62.5 C226.530122,74.7566221 221.377898,92.7371978 204.951014,113.130569 C189.267514,132.602691 164.972195,152.37236 136.544422,168.794632 C108.114743,185.218811 78.8578109,196.388245 54.1641138,200.242996 C47.9959313,201.206207 42.2642487,201.683044 37.0205316,201.683044 Z M185.535344,55.6774141 C180.678568,55.6774141 175.316671,56.1237334 169.518275,57.0278169 C145.699484,60.7471465 117.346049,71.5980527 89.6845341,87.5778198 C62.0211123,103.559494 38.4539287,122.705459 23.3251076,141.487122 C9.14743755,159.090042 4.09433124,174.518585 9.46194612,183.820725 C14.827655,193.120957 30.7093905,196.456909 53.0299763,192.970276 C76.8506738,189.252854 105.202202,178.401947 132.865623,162.420273 C160.529044,146.438599 184.094323,127.294541 199.223144,108.510971 C213.400814,90.909958 218.45392,75.481415 213.088211,66.1792754 C209.115871,59.2956543 199.379445,55.6774141 185.535344,55.6774141 L185.535344,55.6774141 Z" id="Shape"></path>
                    <path d="M185.529626,201.683044 C180.282096,201.683044 174.556132,201.206207 168.384137,200.242996 C143.69044,196.388245 114.435414,185.218811 86.0057353,168.794632 C57.5760567,152.370453 33.2826431,132.602691 17.5991434,113.130569 C1.17225976,92.7371978 -3.97996444,74.7566221 3.09171592,62.5 C10.1614898,50.2433779 28.3019694,45.7191465 54.1641138,49.7570039 C78.8578109,53.6117554 108.114743,64.781189 136.542515,81.2053682 C164.972195,97.6276396 189.265608,117.397309 204.951014,136.869431 C221.375992,157.262802 226.528216,175.243378 219.456535,187.5 C214.073672,196.83075 202.269112,201.683044 185.529626,201.683044 Z M37.0129066,55.6774141 C23.1688065,55.6774141 13.4342861,59.2937471 9.46194612,66.1792754 C4.09433124,75.481415 9.14743755,90.909958 23.3251076,108.510971 C38.4539287,127.294541 62.0211123,146.438599 89.6845341,162.420273 C117.346049,178.401947 145.699484,189.252854 169.518275,192.970276 C191.840767,196.456909 207.720596,193.120957 213.088211,183.820725 C218.45392,174.518585 213.400814,159.090042 199.223144,141.487122 C184.094323,122.705459 160.529044,103.559494 132.865623,87.5778198 C105.202202,71.5980527 76.8506738,60.7471465 53.0299763,57.0278169 C47.2334861,56.1237334 41.8696836,55.6774141 37.0129066,55.6774141 Z" id="Shape"></path>
                </g>
                <path d="M138.080749,125 C138.080749,139.814377 126.07986,151.823044 111.275078,151.823044 C96.4702972,151.823044 84.4675018,139.814377 84.4675018,125 C84.4675018,110.185623 96.4702972,98.1769561 111.275078,98.1769561 C126.07986,98.1769561 138.080749,110.185623 138.080749,125 L138.080749,125 Z" id="Path" fill="#FFE07E"></path>
                <path d="M111.275078,98.1769561 C108.417815,98.1769561 105.669199,98.6270903 103.086416,99.4548799 C113.886454,102.918625 121.70533,113.044739 121.70533,125 C121.70533,136.955261 113.886454,147.081375 103.086416,150.54512 C105.669199,151.37291 108.417815,151.823044 111.275078,151.823044 C126.07986,151.823044 138.080749,139.814377 138.080749,125 C138.080749,110.185623 126.07986,98.1769561 111.275078,98.1769561 L111.275078,98.1769561 Z" id="Path" fill="#FFD064"></path>
                <path d="M95.6754476,26.2107852 C95.6754476,32.4039458 90.6585576,37.4259951 84.4675018,37.4259951 C78.2783525,37.4259951 73.2614624,32.4039458 73.2614624,26.2107852 C73.2614624,20.0157168 78.2783525,14.9955752 84.4675018,14.9955752 C90.6585576,14.9955752 95.6754476,20.0157168 95.6754476,26.2107852 Z" id="Path" fill="#A9DBF6"></path>
                <path d="M84.4675018,14.9955752 C83.0226682,14.9955752 81.6407362,15.2721406 80.3731711,15.7718657 C84.5361224,17.4083711 87.4848792,21.463394 87.4848792,26.2107852 C87.4848792,30.9581758 84.5361224,35.0112915 80.3731711,36.6497041 C81.6426422,37.147522 83.0226682,37.4259951 84.4675018,37.4259951 C90.6585576,37.4259951 95.6754476,32.4039458 95.6754476,26.2107852 C95.6754476,20.0157168 90.6585576,14.9955752 84.4675018,14.9955752 Z" id="Path" fill="#96C1EA"></path>
                <path d="M219.72911,146.781921 C219.72911,152.975083 214.710314,157.997131 208.521164,157.997131 C202.330108,157.997131 197.313218,152.975083 197.313218,146.781921 C197.313218,140.58876 202.330108,135.566711 208.521164,135.566711 C214.710314,135.566711 219.72911,140.58876 219.72911,146.781921 Z" id="Path" fill="#FF8086"></path>
                <path d="M208.521164,135.566711 C206.956245,135.566711 205.465664,135.889053 204.11423,136.468887 C208.113256,138.181687 210.915242,142.154693 210.915242,146.781921 C210.915242,151.409149 208.111349,155.382156 204.11423,157.094956 C205.465664,157.67479 206.956245,157.997131 208.521164,157.997131 C214.710314,157.997131 219.72911,152.975083 219.72911,146.781921 C219.72911,140.58876 214.710314,135.566711 208.521164,135.566711 L208.521164,135.566711 Z" id="Path" fill="#E5646E"></path>
                <path d="M43.3831373,196.704864 C43.3831373,202.899933 38.3643413,207.920074 32.1751915,207.920074 C25.9860417,207.920074 20.9672456,202.899933 20.9672456,196.704864 C20.9672456,190.511704 25.9860417,185.491562 32.1751915,185.491562 C38.3643413,185.491562 43.3831373,190.511704 43.3831373,196.704864 Z" id="Path" fill="#9898ED"></path>
                <path d="M32.1751915,185.491562 C30.8656915,185.491562 29.6114693,185.716629 28.4430215,186.130523 C32.7965846,187.669754 35.9168919,191.822052 35.9168919,196.704864 C35.9168919,201.589584 32.7965846,205.741882 28.4430215,207.281113 C29.6095633,207.6931 30.8656915,207.920074 32.1751915,207.920074 C38.3643413,207.920074 43.3831373,202.899933 43.3831373,196.704864 C43.3831373,190.511704 38.3643413,185.491562 32.1751915,185.491562 Z" id="Path" fill="#8989D3"></path>
            </g>
        </g>
    </g>
</svg>