<?xml version="1.0" encoding="UTF-8"?>
<svg width="84px" height="84px" viewBox="0 0 84 84" version="1.1" xmlns="http://www.w3.org/2000/svg" xmlns:xlink="http://www.w3.org/1999/xlink">
    <!-- Generator: sketchtool 53 (72520) - https://sketchapp.com -->
    <title>96632FE9-C4E2-48B8-B560-9FBB9A7CA36D</title>
    <desc>Created with sketchtool.</desc>
    <g id="Desktop" stroke="none" stroke-width="1" fill="none" fill-rule="evenodd">
        <g id="Developers" transform="translate(-1030.000000, -598.000000)">
            <g id="Group-4" transform="translate(90.000000, 518.000000)">
                <g id="Group-7" transform="translate(940.000000, 80.000000)">
                    <circle id="Oval-Copy-4" fill="#0A192B" cx="42" cy="42" r="42"></circle>
                    <g id="shopping-store" transform="translate(24.000000, 18.000000)" fill-rule="nonzero">
                        <path d="M29.8159375,14.5510156 L27.9640625,14.5509375 L27.9640625,7.76390625 C27.9640625,4.50398438 25.311875,1.851875 22.0519531,1.851875 C18.7920313,1.851875 16.1399219,4.50398437 16.1399219,7.76390625 L16.1399219,14.5510156 L14.2880469,14.5510156 L14.2880469,7.76390625 C14.288125,3.48296875 17.7709375,0 22.0519531,0 C26.3329688,0 29.8159375,3.48289063 29.8159375,7.76390625 L29.8159375,14.5510156 Z" id="Path" fill="#D6EDFF"></path>
                        <path d="M21.0242969,14.5510156 L19.1724219,14.5509375 L19.1724219,7.76390625 C19.1724219,4.50398438 16.5203125,1.851875 13.2603906,1.851875 C10.0004687,1.851875 7.34828125,4.50398437 7.34828125,7.76390625 L7.34828125,14.5510156 L5.49640625,14.5510156 L5.49640625,7.76390625 C5.4965625,3.48289063 8.979375,0 13.2603906,0 C17.5413281,0 21.0242969,3.48289063 21.0242969,7.76390625 L21.0242969,14.5510156 Z" id="Path" fill="#0091FF"></path>
                        <polygon id="Path" fill="#FFFFFF" points="35.2396094 11.6713281 30.84375 11.6713281 27.1400781 25.835625 30.84375 40 35.2396094 40"></polygon>
                        <polygon id="Path" fill="#D6EDFF" points="26.4478906 11.6713281 22.7442188 25.835625 26.4478906 40 30.84375 40 30.84375 11.6713281"></polygon>
                        <rect id="Rectangle" fill="#0091FF" x="0.072890625" y="11.6713281" width="26.375" height="28"></rect>
                    </g>
                </g>
            </g>
        </g>
    </g>
</svg>