<?xml version="1.0" encoding="UTF-8"?>
<svg width="254px" height="250px" viewBox="0 0 254 250" version="1.1" xmlns="http://www.w3.org/2000/svg" xmlns:xlink="http://www.w3.org/1999/xlink">
    <!-- Generator: sketchtool 53 (72520) - https://sketchapp.com -->
    <title>CFA427CA-9874-4A6F-B916-FF8BA60F83B7</title>
    <desc>Created with sketchtool.</desc>
    <g id="Desktop" stroke="none" stroke-width="1" fill="none" fill-rule="evenodd">
        <g id="Blog" transform="translate(-1096.000000, -235.000000)" fill-rule="nonzero">
            <g id="blog-(1)" transform="translate(1096.000000, 235.000000)">
                <path d="M154.761905,190.236111 L154.761905,225.950397 L156.262897,225.950397 C173.390873,225.950397 189.687996,234.50496 202.571429,245.791667 C206.854663,249.544147 212.495536,249.859623 218.660714,249.756448 C231.715774,249.538194 242.063492,238.615079 242.063492,225.558532 L242.063492,194.204365 C242.063492,192.012897 240.286706,190.236111 238.095238,190.236111 L154.761905,190.236111 L154.761905,190.236111 Z" id="Path" fill="#DBD9E2"></path>
                <g id="Group" fill="#EDECF1">
                    <path d="M194.444444,225.950397 L194.444444,5.86607143 C194.444444,2.99454365 191.488591,1.0734127 188.864583,2.24007937 L158.730159,15.6329365 L128.758929,0.647321429 C127.641865,0.0887896825 126.326885,0.0887896825 125.209821,0.647321429 L95.2380952,15.6329365 L65.2668651,0.647321429 C64.1498016,0.0887896825 62.8348214,0.0887896825 61.7177579,0.647321429 L31.7460317,15.6329365 L5.74305556,2.63144841 C3.10416667,1.31200397 0,3.23065476 0,6.18055556 L0,225.950397 C0,239.100198 10.6597222,249.759921 23.8095238,249.759921 L178.571429,249.759921 L194.444444,249.759921 L218.253968,249.759921 C205.104167,249.759921 194.444444,239.099702 194.444444,225.950397 Z" id="Path"></path>
                    <path d="M194.444444,225.950397 L194.444444,23.734623 L0,23.734623 L0,225.950397 C0,239.100198 10.6597222,249.759921 23.8095238,249.759921 L178.571429,249.759921 L194.444444,249.759921 L218.253968,249.759921 C205.104167,249.759921 194.444444,239.099702 194.444444,225.950397 Z" id="Path"></path>
                </g>
                <path d="M11.9047619,225.950397 L11.9047619,6.18055556 C11.9047619,6.02579365 11.9181548,5.87599206 11.9345238,5.72718254 L5.74305556,2.63144841 C3.10416667,1.31200397 0,3.23065476 0,6.18055556 L0,225.950397 C0,239.100198 10.6597222,249.759921 23.8095238,249.759921 L35.7142857,249.759921 C22.5644841,249.759921 11.9047619,239.099702 11.9047619,225.950397 Z" id="Path" fill="#DBD9E2"></path>
                <path d="M194.444444,5.86607143 C194.444444,2.99454365 191.488591,1.0734127 188.864583,2.24007937 L158.730159,15.6329365 L128.758929,0.647321429 C127.641865,0.0887896825 126.326885,0.0887896825 125.209821,0.647321429 L95.2380952,15.6329365 L65.2668651,0.647321429 C64.1498016,0.0887896825 62.8348214,0.0887896825 61.7177579,0.647321429 L31.7460317,15.6329365 L5.74305556,2.63144841 C3.10416667,1.31200397 0,3.23065476 0,6.18055556 L0,23.734623 L194.444444,23.734623 L194.444444,5.86607143 Z" id="Path" fill="#645BA5"></path>
                <g id="Group" opacity="0.5" transform="translate(0.000000, 1.984127)" fill="#494170">
                    <path d="M5.74305556,0.647321429 C3.10416667,-0.672123016 0,1.24652778 0,4.19642857 L0,21.5853175 L11.9047619,21.5853175 L11.9047619,4.19642857 C11.9047619,4.04166667 11.9181548,3.89186508 11.9345238,3.74305556 L5.74305556,0.647321429 Z" id="Path"></path>
                </g>
                <g id="Group" transform="translate(31.746032, 116.000000)" fill="#645BA5">
                    <path d="M55.5555556,47.875 L3.96825397,47.875 C1.77678571,47.875 0,46.0982143 0,43.906746 C0,41.7152778 1.77678571,39.9384921 3.96825397,39.9384921 L55.5555556,39.9384921 C57.7470238,39.9384921 59.5238095,41.7152778 59.5238095,43.906746 C59.5238095,46.0982143 57.7470238,47.875 55.5555556,47.875 Z" id="Path"></path>
                    <path d="M19.8412698,28.0337302 L3.96825397,28.0337302 C1.77678571,28.0337302 0,26.2569444 0,24.0654762 C0,21.8740079 1.77678571,20.0972222 3.96825397,20.0972222 L19.8412698,20.0972222 C22.0327381,20.0972222 23.8095238,21.8740079 23.8095238,24.0654762 C23.8095238,26.2569444 22.0327381,28.0337302 19.8412698,28.0337302 Z" id="Path"></path>
                    <path d="M63.4920635,28.0337302 L35.7142857,28.0337302 C33.5228175,28.0337302 31.7460317,26.2569444 31.7460317,24.0654762 C31.7460317,21.8740079 33.5228175,20.0972222 35.7142857,20.0972222 L63.4920635,20.0972222 C65.6835317,20.0972222 67.4603175,21.8740079 67.4603175,24.0654762 C67.4603175,26.2569444 65.6835317,28.0337302 63.4920635,28.0337302 Z" id="Path"></path>
                    <path d="M39.6825397,8.19246032 L3.96825397,8.19246032 C1.77678571,8.19246032 0,6.4156746 0,4.22420635 C0,2.0327381 1.77678571,0.255952381 3.96825397,0.255952381 L39.6825397,0.255952381 C41.8740079,0.255952381 43.6507937,2.0327381 43.6507937,4.22420635 C43.6507937,6.4156746 41.8740079,8.19246032 39.6825397,8.19246032 Z" id="Path"></path>
                    <path d="M63.4920635,8.19246032 L55.5555556,8.19246032 C53.3640873,8.19246032 51.5873016,6.4156746 51.5873016,4.22420635 C51.5873016,2.0327381 53.3640873,0.255952381 55.5555556,0.255952381 L63.4920635,0.255952381 C65.6835317,0.255952381 67.4603175,2.0327381 67.4603175,4.22420635 C67.4603175,6.4156746 65.6835317,8.19246032 63.4920635,8.19246032 Z" id="Path"></path>
                </g>
                <g id="Group-Copy" transform="translate(32.000000, 53.000000)" fill="#645BA5">
                    <path d="M89.6,48 L6.4,48 C2.8656,48 0,46.209 0,44 C0,41.791 2.8656,40 6.4,40 L89.6,40 C93.1344,40 96,41.791 96,44 C96,46.209 93.1344,48 89.6,48 Z" id="Path"></path>
                    <path d="M32.5,28 L6.5,28 C2.910375,28 0,26.209 0,24 C0,21.791 2.910375,20 6.5,20 L32.5,20 C36.089625,20 39,21.791 39,24 C39,26.209 36.089625,28 32.5,28 Z" id="Path"></path>
                    <path d="M102.444444,28 L56.5555556,28 C52.93525,28 50,26.209 50,24 C50,21.791 52.93525,20 56.5555556,20 L102.444444,20 C106.06475,20 109,21.791 109,24 C109,26.209 106.06475,28 102.444444,28 Z" id="Path"></path>
                    <path d="M65.4545455,8 L6.54545455,8 C2.93072727,8 0,6.209 0,4 C0,1.791 2.93072727,0 6.54545455,0 L65.4545455,0 C69.0692727,0 72,1.791 72,4 C72,6.209 69.0692727,8 65.4545455,8 Z" id="Path"></path>
                    <path d="M102.5,8 L89.5,8 C85.910375,8 83,6.209 83,4 C83,1.791 85.910375,0 89.5,0 L102.5,0 C106.089625,0 109,1.791 109,4 C109,6.209 106.089625,8 102.5,8 Z" id="Path"></path>
                </g>
                <path d="M98.9583333,210.077381 C95.4885913,210.077381 93.7093254,205.746032 96.1522817,203.303075 L104.570437,194.884921 C106.12004,193.335317 108.63244,193.335317 110.182044,194.884921 C111.732143,196.434524 111.732143,198.946925 110.182044,200.496528 L101.763889,208.914683 C100.989583,209.689484 99.9742063,210.077381 98.9583333,210.077381 Z" id="Path" fill="#494170"></path>
                <path d="M115.794147,155.601687 C114.731151,154.53869 113.159226,154.167659 111.733135,154.642857 C110.307044,155.118056 109.272321,156.358135 109.059524,157.84623 L103.447917,197.12996 L107.9375,201.619544 L147.22123,196.007937 C148.709325,195.795635 149.949405,194.760417 150.424603,193.334325 C150.899802,191.908234 150.52877,190.33631 149.465774,189.273313 L115.794147,155.601687 Z" id="Path" fill="#DBD9E2"></path>
                <path d="M145.59375,185.400794 L105.345238,199.026786 L107.937996,201.619544 L147.221726,196.007937 C148.709821,195.795635 149.949901,194.760417 150.425099,193.334325 C150.900298,191.908234 150.529266,190.33631 149.46627,189.273313 L145.59375,185.400794 Z" id="Path" fill="#C8C6D4"></path>
                <path d="M233.645337,105.09375 L199.97371,71.422123 C198.424107,69.8725198 195.911706,69.8725198 194.362103,71.422123 L110.18254,155.601687 C108.63244,157.15129 108.63244,159.66369 110.18254,161.213294 L143.854167,194.884921 C144.628968,195.659722 145.644345,196.047123 146.660218,196.047123 C147.676091,196.047123 148.691468,195.659722 149.46627,194.884921 L233.645833,110.705357 C235.195437,109.15625 235.195437,106.643353 233.645337,105.09375 Z" id="Path" fill="#EDBC53"></path>
                <path d="M233.645337,105.09375 L216.809524,88.2579365 C216.065476,87.5138889 215.056052,87.0957341 214.003472,87.0957341 C212.950893,87.0957341 211.941468,87.5138889 211.197421,88.2579365 L127.018353,172.437004 C126.274306,173.181052 125.856151,174.190476 125.856151,175.243056 C125.856151,176.295635 126.274306,177.30506 127.018353,178.049107 L143.854167,194.884921 C144.628968,195.659722 145.644345,196.047123 146.660218,196.047123 C147.676091,196.047123 148.691468,195.659722 149.46627,194.884921 L233.645833,110.705357 C235.195437,109.15625 235.195437,106.643353 233.645337,105.09375 Z" id="Path" fill="#F09C48"></path>
                <path d="M228.03373,54.5863095 L228.03373,54.5863095 C223.391865,49.9449405 215.839782,49.9449405 211.197917,54.5863095 L194.362103,71.422123 L233.645833,110.705853 L250.481647,93.8700397 C252.730159,91.6215278 253.96875,88.6319444 253.96875,85.4518849 C253.96875,82.2718254 252.730159,79.2822421 250.481647,77.0337302 L228.03373,54.5863095 Z" id="Path" fill="#DBD9E2"></path>
                <path d="M226.854167,98.3025794 L137.062996,188.09375 L143.854167,194.884921 C144.628968,195.659722 145.644345,196.047123 146.660218,196.047123 C147.676091,196.047123 148.691468,195.659722 149.46627,194.884921 L233.645833,110.705357 C235.195933,109.155754 235.195933,106.643353 233.645833,105.09375 L226.854167,98.3025794 Z" id="Path" fill="#E57D37"></path>
                <path d="M249.302083,75.8546627 L224.048115,101.108631 L233.645337,110.705853 L250.481151,93.8700397 C252.729663,91.6215278 253.968254,88.6319444 253.968254,85.4518849 C253.968254,82.2718254 252.729663,79.2822421 250.481151,77.0337302 L249.302083,75.8546627 Z" id="Path" fill="#C8C6D4"></path>
                <polygon id="Rectangle" fill="#6A56A8" transform="translate(218.210678, 86.853700) rotate(45.000000) translate(-218.210678, -86.853700) " points="190.433414 80.9013766 245.987941 80.9013766 245.987941 92.8060243 190.433414 92.8060243"></polygon>
                <polygon id="Rectangle" fill="#494170" opacity="0.5" transform="translate(233.056396, 101.698210) rotate(45.000000) translate(-233.056396, -101.698210) " points="226.27025 95.7458861 239.842541 95.7458861 239.842541 107.650534 226.27025 107.650534"></polygon>
            </g>
        </g>
    </g>
</svg>