<?xml version="1.0" encoding="UTF-8"?>
<svg width="15px" height="15px" viewBox="0 0 15 15" version="1.1" xmlns="http://www.w3.org/2000/svg" xmlns:xlink="http://www.w3.org/1999/xlink">
    <!-- Generator: sketchtool 53 (72520) - https://sketchapp.com -->
    <title>87EDA311-9210-4DF1-B92D-DB2452970FD0</title>
    <desc>Created with sketchtool.</desc>
    <g id="Symbols" stroke="none" stroke-width="1" fill="none" fill-rule="evenodd">
        <g id="Header-strip" transform="translate(-945.000000, -13.000000)" fill="#FFFFFF" fill-rule="nonzero">
            <g id="Group-4">
                <g id="Group-3" transform="translate(364.000000, 11.000000)">
                    <g id="Group" transform="translate(581.000000, 0.000000)">
                        <path d="M14.9955882,13.8379032 C15.0273789,14.0815728 14.9531574,14.2934369 14.7732353,14.4734954 L12.6608824,16.5708715 C12.5655882,16.6768035 12.4412024,16.7669236 12.287673,16.8409981 C12.1341436,16.9151765 11.9832872,16.9628459 11.8351038,16.9840063 C11.8245156,16.9840063 11.792673,16.9867325 11.7397059,16.9920291 C11.6868426,16.9972998 11.618019,17 11.5333131,17 C11.3320848,17 11.0064706,16.9655721 10.5564706,16.8966903 C10.1064706,16.8278085 9.5559083,16.6582913 8.90478374,16.3882166 C8.25350346,16.11809 7.515,15.7128481 6.6891436,15.1726467 C5.8632872,14.6324713 4.98443772,13.8908952 4.05267301,12.9480743 C3.31149654,12.2171433 2.69737889,11.517992 2.21032007,10.8506462 C1.72326125,10.1832485 1.33149654,9.56619453 1.03502595,8.99945822 C0.738529412,8.43272192 0.516176471,7.91895162 0.367941176,7.45814733 C0.219705882,6.99734304 0.119117647,6.60009797 0.0661764706,6.26641211 C0.0132352941,5.93272624 -0.00794117647,5.67054449 0.00264705882,5.47986686 C0.0132352941,5.28918922 0.0185294118,5.1832572 0.0185294118,5.1620708 C0.0397058824,5.01376597 0.0873529412,4.86281284 0.161470588,4.70921141 C0.235588235,4.55560998 0.325588235,4.43113986 0.431470588,4.33580104 L2.54382353,2.22245724 C2.69205882,2.07415241 2.86147059,2 3.05205882,2 C3.18970588,2 3.31147059,2.03972451 3.41735294,2.11917352 C3.52323529,2.19862254 3.61323529,2.29660966 3.68735294,2.41313488 L5.38676471,5.63876489 C5.48205882,5.80825612 5.50852941,5.99363716 5.46617647,6.19490799 C5.42382353,6.39617883 5.33382353,6.56567006 5.19617647,6.70338169 L4.41794118,7.48198204 C4.39676471,7.50316844 4.37823529,7.53759635 4.36235294,7.58526576 C4.34647059,7.63293517 4.33852941,7.67265967 4.33852941,7.70443928 C4.38088235,7.92689652 4.47617647,8.18113337 4.62441176,8.46714982 C4.75147059,8.72138667 4.94735294,9.03123783 5.21205882,9.3967033 C5.47676471,9.76216877 5.85264706,10.1832226 6.33970588,10.6599167 C6.81617647,11.1472559 7.23970588,11.5259109 7.61029412,11.7960895 C7.9808045,12.0661123 8.29061419,12.2648127 8.53943772,12.3919312 C8.78826125,12.5190496 8.97884948,12.5958503 9.11117647,12.6222554 L9.30965398,12.6620059 C9.33083045,12.6620059 9.36532007,12.654035 9.41291522,12.6381712 C9.46056228,12.6222554 9.49497405,12.6037433 9.51617647,12.5825309 L10.4214446,11.6609223 C10.6121367,11.4914571 10.8343858,11.4067115 11.0885294,11.4067115 C11.2685813,11.4067115 11.4114446,11.4384651 11.517327,11.5020503 L11.5331834,11.5020503 L14.5984516,13.3134878 C14.8208824,13.4513033 14.9532093,13.6260392 14.9955882,13.8379032 Z" id="Path"></path>
                    </g>
                </g>
            </g>
        </g>
    </g>
</svg>