<?xml version="1.0" encoding="UTF-8"?>
<svg width="255px" height="250px" viewBox="0 0 255 250" version="1.1" xmlns="http://www.w3.org/2000/svg" xmlns:xlink="http://www.w3.org/1999/xlink">
    <!-- Generator: sketchtool 53 (72520) - https://sketchapp.com -->
    <title>AC6DB740-E316-40C6-A9C9-276B1730C79A</title>
    <desc>Created with sketchtool.</desc>
    <g id="Desktop" stroke="none" stroke-width="1" fill="none" fill-rule="evenodd">
        <g id="Career" transform="translate(-1077.000000, -227.000000)" fill-rule="nonzero">
            <g id="career" transform="translate(1077.000000, 227.000000)">
                <path d="M249.501992,127.739044 C249.501992,195.123802 194.874798,249.750996 127.49004,249.750996 C60.1052819,249.750996 5.47808765,195.123802 5.47808765,127.739044 C5.47808765,60.3542859 60.1052819,5.72709163 127.49004,5.72709163 C194.874798,5.72709163 249.501992,60.3542859 249.501992,127.739044 Z" id="Path" fill="#8FD5E5"></path>
                <path d="M254.98008,165.836653 C254.98008,192.336125 233.421782,213.894422 206.922311,213.894422 L113.794821,213.894422 L113.794821,193.974104 L206.922311,193.974104 C222.436426,193.974104 235.059761,181.350769 235.059761,165.836653 C235.059761,150.322538 222.436426,137.699203 206.922311,137.699203 L48.0577689,137.699203 C21.5582978,137.699203 0,116.140905 0,89.6414343 C0,63.1419631 21.5582978,41.5836653 48.0577689,41.5836653 L186.340575,41.5836653 C190.184574,32.7907122 198.952238,26.6434263 209.163347,26.6434263 C222.914981,26.6434263 234.063745,37.7921907 234.063745,51.5438247 C234.063745,65.2954587 222.914981,76.4442231 209.163347,76.4442231 C207.45728,76.4442231 205.792066,76.2730329 204.183267,75.9462151 C202.451911,75.5941081 195.756038,72.6138416 194.225053,71.4621982 C190.807084,68.8943446 188.073876,65.4685946 186.340575,61.5039841 L48.0577689,61.5039841 C32.5436534,61.5039841 19.9203187,74.1273187 19.9203187,89.6414343 C19.9203187,105.15555 32.5436534,117.778884 48.0577689,117.778884 L206.922311,117.778884 C233.421782,117.778884 254.98008,139.337182 254.98008,165.836653 Z" id="Path" fill="#0573CD"></path>
                <path d="M59.7609562,129.731076 C59.7609562,140.731994 50.8415558,149.651394 39.8406375,149.651394 C28.8397191,149.651394 19.9203187,140.731994 19.9203187,129.731076 C19.9203187,118.730157 28.8397191,109.810757 39.8406375,109.810757 C50.8415558,109.810757 59.7609562,118.730157 59.7609562,129.731076 Z M39.8406375,35.1095618 C28.8397191,35.1095618 19.9203187,44.0289622 19.9203187,55.0298805 C19.9203187,66.0307988 28.8397191,74.9501992 39.8406375,74.9501992 C50.8415558,74.9501992 59.7609562,66.0307988 59.7609562,55.0298805 C59.7609562,44.0289622 50.8415558,35.1095618 39.8406375,35.1095618 Z M204.183267,149.651394 C215.184185,149.651394 224.103586,140.731994 224.103586,129.731076 C224.103586,118.730157 215.184185,109.810757 204.183267,109.810757 C193.182349,109.810757 184.262948,118.730157 184.262948,129.731076 C184.262948,140.731994 193.182349,149.651394 204.183267,149.651394 Z M204.183267,184.013944 C193.182349,184.013944 184.262948,192.933345 184.262948,203.934263 C184.262948,214.935181 193.182349,223.854582 204.183267,223.854582 C215.184185,223.854582 224.103586,214.935181 224.103586,203.934263 C224.103586,192.933345 215.184185,184.013944 204.183267,184.013944 Z M119.521912,30.1294821 C108.520994,30.1294821 99.6015936,39.0488825 99.6015936,50.0498008 C99.6015936,61.0507191 108.520994,69.9701195 119.521912,69.9701195 C130.522831,69.9701195 139.442231,61.0507191 139.442231,50.0498008 C139.442231,39.0488825 130.522831,30.1294821 119.521912,30.1294821 Z M119.521912,184.013944 C108.520994,184.013944 99.6015936,192.933345 99.6015936,203.934263 C99.6015936,214.935181 108.520994,223.854582 119.521912,223.854582 C130.522831,223.854582 139.442231,214.935181 139.442231,203.934263 C139.442231,192.933345 130.522831,184.013944 119.521912,184.013944 Z M119.521912,109.810757 C108.520994,109.810757 99.6015936,118.730157 99.6015936,129.731076 C99.6015936,140.731994 108.520994,149.651394 119.521912,149.651394 C130.522831,149.651394 139.442231,140.731994 139.442231,129.731076 C139.442231,118.730157 130.522831,109.810757 119.521912,109.810757 Z" id="Shape" fill="#4691DB"></path>
                <path d="M126.686613,51.3045473 L116.847065,57.6658212 C115.852994,58.3077844 114.541833,57.5938436 114.541833,56.4110747 L114.541833,43.6885269 C114.541833,42.505758 115.852994,41.7918172 116.847065,42.4337804 L126.686613,48.7950543 C127.597034,49.384493 127.597034,50.7151086 126.686613,51.3045473 Z M126.686613,205.189009 L116.847065,211.550283 C115.852994,212.192247 114.541833,211.478306 114.541833,210.295537 L114.541833,197.572989 C114.541833,196.39022 115.852994,195.676279 116.847065,196.320188 L126.686613,202.679516 C127.597034,203.268955 127.597034,204.599571 126.686613,205.189009 L126.686613,205.189009 Z M198.452285,128.476329 L208.291833,122.115055 C209.285903,121.473092 210.597065,122.187033 210.597065,123.369802 L210.597065,136.09235 C210.597065,137.275119 209.285903,137.989059 208.291833,137.34515 L198.452285,130.985822 C197.541864,130.396383 197.541864,129.065768 198.452285,128.476329 Z M32.6759368,128.476329 L42.5154851,122.115055 C43.5095558,121.473092 44.8207171,122.187033 44.8207171,123.369802 L44.8207171,136.09235 C44.8207171,137.275119 43.5095558,137.989059 42.5154851,137.34515 L32.6759368,130.985822 C31.7655159,130.396383 31.7655159,129.065768 32.6759368,128.476329 Z" id="Shape" fill="#E1EBF0"></path>
                <path d="M204.183267,20.1693227 L204.183267,75.9442699 C200.502677,75.197258 197.117779,73.6390378 194.223108,71.4641434 L194.223108,20.1693227 L204.183267,20.1693227 Z" id="Path" fill="#FFC97B"></path>
                <path d="M254.478181,4.23306773 L242.52599,20.1693227 L254.478181,36.1055777 C255.709584,37.7474477 254.536541,40.0896414 252.486149,40.0896414 L194.223108,40.0896414 L194.223108,2.73904382 C194.223108,1.36368576 195.337789,0.249003984 196.713147,0.249003984 L252.486149,0.249003984 C254.536541,0.249003984 255.709584,2.59119771 254.478181,4.23306773 Z" id="Path" fill="#FF5284"></path>
                <path d="M204.183267,40.0896414 L194.223108,40.0896414 L194.223108,2.73904382 C194.223108,1.36368576 195.337789,0.249003984 196.713147,0.249003984 L204.183267,0.249003984 L204.183267,40.0896414 Z" id="Path" fill="#F43B5F"></path>
                <path d="M31.2091479,187.219871 L31.2091479,163.416646 C31.2091479,156.763571 35.6328591,150.806928 41.9668979,148.935508 C47.2232166,147.379233 52.6935229,146.591369 58.2221892,146.591369 C63.7528013,146.591369 69.2211624,147.379233 74.4794263,148.935508 C80.8134651,150.806928 85.2371763,156.763571 85.2371763,163.416646 L85.2371763,187.219871 L76.5920692,187.219871 L76.5920692,163.416646 C76.5920692,160.564772 74.7148127,158.018317 72.0282928,157.224617 C67.56762,155.905674 62.9221394,155.236476 58.2241345,155.236476 C53.5241843,155.236476 48.8806494,155.905674 44.4180309,157.224617 C41.7315115,158.020263 39.854255,160.564772 39.854255,163.416646 L39.854255,187.219871 L31.2091479,187.219871 Z" id="Path" fill="#934A4A"></path>
                <path d="M79.6326414,152.098636 L73.1079587,158.623319 C72.5535359,159.179687 71.7423277,159.389785 70.9875344,159.173852 C66.8517336,157.994973 62.5564148,157.397753 58.2221892,157.397753 C53.8879636,157.397753 49.5945906,157.994973 45.4587898,159.173852 C45.2623103,159.230266 45.063885,159.257501 44.8654602,159.257501 C44.299365,159.257501 43.7488327,159.035732 43.3364198,158.625264 L36.8117375,152.098636 C36.3468003,151.6337 36.1191952,150.982009 36.193118,150.326429 C36.2670413,149.672793 36.6366564,149.087245 37.1949701,148.739028 C38.5002958,147.923929 39.898998,147.293638 41.3521693,146.861772 C46.8108038,145.249082 52.4873162,144.430092 58.2221892,144.430092 C63.959008,144.430092 69.6355204,145.249082 75.0922092,146.861772 C76.5473262,147.293638 77.9460284,147.923929 79.2494084,148.739028 C79.8096673,149.087245 80.1773376,149.672793 80.2532062,150.326429 C80.327129,150.980064 80.0995239,151.6337 79.6326414,152.098636 L79.6326414,152.098636 Z" id="Path" fill="#F2806D"></path>
                <path d="M39.7822769,155.069176 C42.1166892,154.347454 44.4841728,153.767742 46.8769452,153.326148 L46.1805125,150.727169 C45.9334537,149.805077 46.4820408,148.855749 47.4041335,148.60869 L48.2367405,148.384976 C49.1607789,148.137917 50.1081614,148.686504 50.3552196,149.608597 L51.1781001,152.680294 C52.7985712,152.495487 54.4268237,152.376821 56.0609124,152.320406 L56.0609124,149.250653 C56.0609124,148.29549 56.8351594,147.521243 57.7922684,147.521243 L58.6540558,147.521243 C59.6092191,147.521243 60.3834661,148.29549 60.3834661,149.250653 L60.3834661,152.320406 C62.0175548,152.378766 63.647753,152.495487 65.2682241,152.680294 L66.0911046,149.608597 C66.3381628,148.686504 67.2855453,148.137917 68.2095837,148.384976 L69.0421907,148.60869 C69.9642834,148.855749 70.5128705,149.805077 70.2658118,150.727169 L69.5693785,153.326148 C71.9602062,153.767742 74.3296345,154.347454 76.6621016,155.069176 L73.1079587,158.623319 C72.5535359,159.177742 71.7423277,159.387839 70.9875344,159.173852 C66.8517336,157.994973 62.5564148,157.395807 58.2221892,157.395807 C53.8899094,157.395807 49.5945906,157.994973 45.4587898,159.173852 C45.2642555,159.230266 45.063885,159.257501 44.8654602,159.257501 C44.3013103,159.257501 43.7488327,159.035732 43.3383655,158.623319 L39.7822769,155.069176 Z M100.25912,168.634058 L16.185259,168.634058 C13.7983222,168.634058 11.8627052,170.688341 11.8627052,173.223123 L11.8627052,239.683843 C11.8627052,242.218625 13.7983222,244.272908 16.185259,244.272908 L100.25912,244.272908 C102.646056,244.272908 104.581673,242.218625 104.581673,239.683843 L104.581673,173.223123 C104.581673,170.688341 102.646056,168.634058 100.25912,168.634058 L100.25912,168.634058 Z" id="Shape" fill="#DB655D"></path>
                <path d="M104.581673,186.34252 L104.581673,239.950355 C104.581673,242.337291 102.646056,244.272908 100.25912,244.272908 L24.4821494,244.272908 C22.0952131,244.272908 20.1595961,242.337291 20.1595961,239.950355 L20.1595961,209.163347 C20.1595961,207.249128 22.2236056,206.056633 23.8849293,207.004015 C27.3495862,208.98243 31.3608845,210.11462 35.63675,210.11462 L80.8095742,210.11462 C93.9386982,210.112674 104.581673,199.469699 104.581673,186.34252 Z M100.25912,168.634058 L25.2544512,168.634058 C22.5134617,168.634058 20.2879885,170.849804 20.2743715,173.590793 L20.1712679,194.584941 C20.1634866,196.255992 20.9960936,197.818103 22.3811783,198.751868 C26.1687625,201.302213 30.7267027,202.794292 35.6348048,202.794292 L80.8095742,202.794292 C93.9386982,202.794292 104.581673,192.151317 104.581673,179.022192 L104.581673,172.956611 C104.581673,170.569674 102.646056,168.634058 100.25912,168.634058 Z" id="Shape" fill="#F2806D"></path>
                <path d="M36.8214641,217.433002 L35.7048367,217.433002 C33.3179004,217.433002 31.3822834,215.497385 31.3822834,213.110449 L31.3822834,200.074701 C31.3822834,198.88026 32.3510647,197.913424 33.5435603,197.913424 L38.9807958,197.913424 C40.1752366,197.913424 41.1420722,198.882206 41.1420722,200.074701 L41.1420722,213.110449 C41.1420722,215.499331 39.2084009,217.433002 36.8214641,217.433002 Z M85.0620956,213.110449 L85.0620956,200.074701 C85.0620956,198.88026 84.0952595,197.913424 82.9008187,197.913424 L77.4635832,197.913424 C76.2691424,197.913424 75.3023063,198.882206 75.3023063,200.074701 L75.3023063,213.110449 C75.3023063,215.497385 77.2379233,217.433002 79.6248601,217.433002 L80.7414871,217.433002 C83.1264786,217.433002 85.0620956,215.499331 85.0620956,213.110449 Z" id="Shape" fill="#FCAE51"></path>
                <path d="M37.2397131,197.913424 L38.7026116,197.913424 C40.0507346,197.913424 41.1420722,199.006708 41.1420722,200.352885 L41.1420722,212.554081 C41.1420722,214.64727 39.8231295,216.42726 37.9711624,217.119802 C36.1191952,216.42726 34.800252,214.64727 34.800252,212.554081 L34.800252,200.352885 C34.800252,199.006708 35.8915896,197.913424 37.2397131,197.913424 Z M78.7183297,200.352885 L78.7183297,212.554081 C78.7183297,214.64727 80.0392181,216.42726 81.88924,217.119802 C83.7412072,216.42726 85.0620956,214.64727 85.0620956,212.554081 L85.0620956,200.352885 C85.0620956,199.006708 83.9688123,197.913424 82.6226345,197.913424 L81.1577908,197.913424 C79.811613,197.913424 78.7183297,199.006708 78.7183297,200.352885 Z" id="Shape" fill="#FFDC85"></path>
            </g>
        </g>
    </g>
</svg>