<?xml version="1.0" encoding="UTF-8"?>
<svg width="250px" height="250px" viewBox="0 0 250 250" version="1.1" xmlns="http://www.w3.org/2000/svg" xmlns:xlink="http://www.w3.org/1999/xlink">
    <!-- Generator: sketchtool 53 (72520) - https://sketchapp.com -->
    <title>7DF74F4A-65DC-4DDB-8141-B4A138051667</title>
    <desc>Created with sketchtool.</desc>
    <g id="Desktop" stroke="none" stroke-width="1" fill="none" fill-rule="evenodd">
        <g id="About-us" transform="translate(-1091.000000, -212.000000)" fill-rule="nonzero">
            <g id="center" transform="translate(1091.000000, 212.000000)">
                <polygon id="Path" fill="#898989" points="45.8333333 54.1666667 54.1666667 54.1666667 54.1666667 91.6666667 45.8333333 91.6666667"></polygon>
                <polygon id="Path" fill="#5160ED" points="0 87.5 91.6666667 87.5 91.6666667 250 0 250"></polygon>
                <polygon id="Path" fill="#6B8182" points="20.8333333 220.678708 29.1666667 220.678708 29.1666667 250 20.8333333 250"></polygon>
                <polygon id="Path" fill="#6B8182" points="58.3333333 220.678708 66.6666667 220.678708 66.6666667 250 58.3333333 250"></polygon>
                <polygon id="Path" fill="#898989" transform="translate(27.083362, 22.932935) rotate(-45.000000) translate(-27.083362, -22.932935) " points="22.9171325 14.094102 31.2495908 14.094102 31.2495908 31.7717686 22.9171325 31.7717686"></polygon>
                <path d="M56.8685,5.40366667 C56.0873304,4.62207272 55.0275824,4.18294212 53.9225417,4.18294212 C52.8175009,4.18294212 51.7577529,4.62207272 50.9765833,5.40366667 L9.55416667,46.8261667 C8.77257272,47.6073362 8.33344212,48.6670843 8.33344212,49.772125 C8.33344212,50.8771657 8.77257272,51.9369138 9.55416667,52.7180833 C18.0007366,61.1965827 30.3328247,64.5175807 41.8948264,61.4273358 C53.456828,58.3370908 62.4875848,49.3063181 65.5778094,37.744311 C68.668034,26.182304 65.3470142,13.8502217 56.8685,5.40366667 Z" id="Path" fill="#ED4720"></path>
                <path d="M79.1666667,209.64775 C79.1666667,227.800167 71.70475,224.817542 62.5,224.817542 C53.29525,224.817542 45.8333333,227.800167 45.8333333,209.64775 C45.8333333,191.495333 53.29525,166.666667 62.5,166.666667 C71.70475,166.666667 79.1666667,191.495292 79.1666667,209.64775 Z" id="Path" fill="#36D8D0"></path>
                <path d="M41.6666667,209.64775 C41.6666667,227.800167 34.20475,224.817542 25,224.817542 C15.79525,224.817542 8.33333333,227.8 8.33333333,209.64775 C8.33333333,191.4955 15.79525,166.666667 25,166.666667 C34.20475,166.666667 41.6666667,191.495292 41.6666667,209.64775 Z" id="Path" fill="#36D8D0"></path>
                <polygon id="Path" fill="#78C1F4" points="250 250 250 125 200 125 200 37.5 125 0 125 75 91.6666667 75 91.6666667 250"></polygon>
                <polygon id="Path" fill="#99DDF2" points="204.166667 179.166667 220.833333 179.166667 220.833333 195.833333 204.166667 195.833333"></polygon>
                <polygon id="Path" fill="#A9E4EA" points="158.333333 50 175 50 175 229.166667 158.333333 229.166667"></polygon>
                <polygon id="Path" fill="#51AAF4" points="125 0 125 75 91.6666667 75 91.6666667 250 250 250"></polygon>
                <polygon id="Path" fill="#99DDF2" points="204.166667 145.833333 220.833333 145.833333 220.833333 162.5 204.166667 162.5"></polygon>
                <g id="Group" transform="translate(112.500000, 112.500000)" fill="#78D9EF">
                    <polygon id="Path" points="108.333333 79.1666667 102.083333 66.6666667 91.6666667 66.6666667 91.6666667 83.3333333 108.333333 83.3333333"></polygon>
                    <polygon id="Path" points="91.6666667 100 108.333333 100 108.333333 116.666667 91.6666667 116.666667"></polygon>
                    <polygon id="Path" points="0 33.3333333 16.6666667 33.3333333 16.6666667 50 0 50"></polygon>
                    <polygon id="Path" points="0 66.6666667 16.6666667 66.6666667 16.6666667 83.3333333 0 83.3333333"></polygon>
                    <polygon id="Path" points="0 0 16.6666667 0 16.6666667 16.6666667 0 16.6666667"></polygon>
                </g>
                <polygon id="Path" fill="#99DDF2" points="16.6666667 104.166667 33.3333333 104.166667 33.3333333 120.833333 16.6666667 120.833333"></polygon>
                <polygon id="Path" fill="#99DDF2" points="58.3333333 104.166667 75 104.166667 75 120.833333 58.3333333 120.833333"></polygon>
                <polygon id="Path" fill="#99DDF2" points="16.6666667 137.5 33.3333333 137.5 33.3333333 154.166667 16.6666667 154.166667"></polygon>
                <polygon id="Path" fill="#99DDF2" points="58.3333333 137.5 75 137.5 75 154.166667 58.3333333 154.166667"></polygon>
                <polygon id="Path" fill="#78D9EF" points="112.5 212.5 129.166667 212.5 129.166667 229.166667 112.5 229.166667"></polygon>
                <polygon id="Path" fill="#78D9EF" points="175 100 158.333333 66.6666667 158.333333 229.166667 175 229.166667"></polygon>
                <path d="M56.8685,5.40366667 C56.0873304,4.62207272 55.0275824,4.18294212 53.9225417,4.18294212 C52.8175009,4.18294212 51.7577529,4.62207272 50.9765833,5.40366667 L48.5720417,7.80816667 C48.6129583,7.84633333 48.667125,7.85816667 48.7070833,7.89795833 C60.7426029,19.9678258 63.6451476,38.4113912 55.8985417,53.5944583 C56.219375,53.2976667 56.556875,53.029625 56.8685,52.7180833 C69.9137403,39.6441763 69.9137403,18.4775737 56.8685,5.40366667 L56.8685,5.40366667 Z" id="Path" fill="#EA755E"></path>
                <path d="M58.3333333,172.916667 C68.2225417,172.916667 76.4841667,195.837917 78.6160833,216.68725 C79.0106443,214.362004 79.1949169,212.00594 79.1666667,209.647625 C79.1666667,191.49525 71.704875,166.666667 62.5,166.666667 C59.2173333,166.666667 56.1655833,169.858042 53.5855417,174.744417 C54.9272257,173.635 56.5940676,172.993319 58.3333333,172.916667 L58.3333333,172.916667 Z" id="Path" fill="#79E2DA"></path>
                <path d="M20.8333333,172.916667 C30.7225417,172.916667 38.9841667,195.837917 41.1160833,216.68725 C41.5106443,214.362004 41.6949169,212.00594 41.6666667,209.647625 C41.6666667,191.49525 34.204875,166.666667 25,166.666667 C21.7173333,166.666667 18.6655833,169.858042 16.0855417,174.744417 C17.4272257,173.635 19.0940676,172.993319 20.8333333,172.916667 L20.8333333,172.916667 Z" id="Path" fill="#79E2DA"></path>
            </g>
        </g>
    </g>
</svg>