<?xml version="1.0" encoding="UTF-8"?>
<svg width="84px" height="84px" viewBox="0 0 84 84" version="1.1" xmlns="http://www.w3.org/2000/svg" xmlns:xlink="http://www.w3.org/1999/xlink">
    <!-- Generator: sketchtool 53 (72520) - https://sketchapp.com -->
    <title>2F10CAD3-E01C-4230-B7EA-B84FE815B696</title>
    <desc>Created with sketchtool.</desc>
    <g id="Desktop" stroke="none" stroke-width="1" fill="none" fill-rule="evenodd">
        <g id="Developers" transform="translate(-731.000000, -840.000000)">
            <g id="Group-4" transform="translate(90.000000, 518.000000)">
                <g id="Group-6" transform="translate(641.000000, 322.000000)">
                    <circle id="Oval-Copy-5" fill="#0A192B" cx="42" cy="42" r="42"></circle>
                    <g id="chat-(6)" transform="translate(21.000000, 22.000000)" fill-rule="nonzero">
                        <path d="M32.5925926,12.1437037 L32.5925926,27.8037037 C32.5925926,29.82 30.9577778,31.4548148 28.9414815,31.4548148 L16.2962963,31.5074074 L8.88888889,39.6555556 L8.88888889,31.5074074 L3.65111111,31.5074074 C1.63481481,31.5074074 0,29.8725926 0,27.8562963 L0,12.1962963 C0,10.18 1.63481481,8.54518519 3.65111111,8.54518519 L28.9407407,8.49259259 C30.9577778,8.49259259 32.5925926,10.1274074 32.5925926,12.1437037 Z" id="Path" fill="#0091FF"></path>
                        <path d="M39.3118519,0.396296296 L14.0222222,0.344444444 C12.0051852,0.344444444 10.3703704,1.97925926 10.3703704,3.99555556 L10.3703704,8.53037037 L28.9414815,8.49185185 C30.9577778,8.49185185 32.5925926,10.1266667 32.5925926,12.1437037 L32.5925926,25.8037037 L37.7777778,31.5074074 L37.7777778,23.3592593 L39.3118519,23.3592593 C41.3281481,23.3592593 42.962963,21.7244444 42.962963,19.7081481 L42.962963,4.04814815 C42.962963,2.03111111 41.3281481,0.396296296 39.3118519,0.396296296 Z" id="Path" fill="#FFFFFF"></path>
                    </g>
                </g>
            </g>
        </g>
    </g>
</svg>