<?xml version="1.0" encoding="UTF-8"?>
<svg width="250px" height="250px" viewBox="0 0 250 250" version="1.1" xmlns="http://www.w3.org/2000/svg" xmlns:xlink="http://www.w3.org/1999/xlink">
    <!-- Generator: sketchtool 53 (72520) - https://sketchapp.com -->
    <title>C2C9D91C-B499-407A-BB07-D9619A24FA61</title>
    <desc>Created with sketchtool.</desc>
    <g id="Desktop" stroke="none" stroke-width="1" fill="none" fill-rule="evenodd">
        <g id="Hardware" transform="translate(-1100.000000, -234.000000)" fill-rule="nonzero">
            <g id="circuit" transform="translate(1100.000000, 234.000000)">
                <path d="M250,125 C250,164.411545 231.75621,199.554443 203.258515,222.465515 C202.62146,222.249985 201.942444,222.126007 201.23291,222.126007 C197.750092,222.126007 194.925308,224.950791 194.925308,228.433609 C194.925308,228.496552 194.932938,228.557587 194.934845,228.620529 C186.239243,234.498978 176.761627,239.305496 166.694641,242.866516 C165.76767,242.334366 164.697647,242.023468 163.553238,242.023468 C161.04126,242.023468 158.878326,243.497849 157.863617,245.624542 C148.769379,248.096466 139.265061,249.567032 129.470825,249.912262 C128.358841,248.931885 126.903534,248.33107 125.305176,248.33107 C123.693466,248.33107 122.228623,248.939514 121.114731,249.933243 C111.392975,249.637604 101.953506,248.22998 92.9126738,245.834351 C91.8998721,243.703842 89.7350313,242.227554 87.2192383,242.227554 C86.0443115,242.227554 84.9494932,242.555618 84.0072632,243.114472 C74.0566255,239.660263 64.6781924,234.987259 56.0493467,229.269028 C56.0855864,228.996277 56.1103818,228.717804 56.1103818,228.433609 C56.1103818,224.950791 53.2875059,222.126007 49.8046875,222.126007 C48.8319395,222.126007 47.9145049,222.352981 47.0905303,222.747803 C18.3944702,199.842453 0,164.571762 0,125 C0,55.9635161 55.9635161,-5.68434189e-14 125,-5.68434189e-14 C194.036484,-5.68434189e-14 250,55.9635161 250,125 Z" id="Path" fill="#2B6C7E"></path>
                <path d="M37.2314453,184.020996 C37.2314453,187.561035 34.362793,190.429688 30.8227539,190.429688 C27.2827148,190.429688 24.4140625,187.561035 24.4140625,184.020996 C24.4140625,180.480957 27.2827148,177.612305 30.8227539,177.612305 C34.362793,177.612305 37.2314453,180.480957 37.2314453,184.020996 Z M30.8227539,157.165527 C27.2827148,157.165527 24.4140625,160.03418 24.4140625,163.574219 C24.4140625,167.114258 27.2827148,169.98291 30.8227539,169.98291 C34.362793,169.98291 37.2314453,167.114258 37.2314453,163.574219 C37.2314453,160.03418 34.362793,157.165527 30.8227539,157.165527 Z M30.8227539,136.71875 C27.2827148,136.71875 24.4140625,139.587402 24.4140625,143.127441 C24.4140625,146.66748 27.2827148,149.536133 30.8227539,149.536133 C34.362793,149.536133 37.2314453,146.66748 37.2314453,143.127441 C37.2314453,139.587402 34.362793,136.71875 30.8227539,136.71875 Z M182.189941,211.791992 C178.649902,211.791992 175.78125,214.660645 175.78125,218.200684 C175.78125,221.740723 178.649902,224.609375 182.189941,224.609375 C185.72998,224.609375 188.598633,221.740723 188.598633,218.200684 C188.598633,214.660645 185.72998,211.791992 182.189941,211.791992 Z M182.189941,191.345215 C178.649902,191.345215 175.78125,194.213867 175.78125,197.753906 C175.78125,201.293945 178.649902,204.162598 182.189941,204.162598 C185.72998,204.162598 188.598633,201.293945 188.598633,197.753906 C188.598633,194.213867 185.72998,191.345215 182.189941,191.345215 Z M182.189941,170.898438 C178.649902,170.898438 175.78125,173.76709 175.78125,177.307129 C175.78125,180.847168 178.649902,183.71582 182.189941,183.71582 C185.72998,183.71582 188.598633,180.847168 188.598633,177.307129 C188.598633,173.76709 185.72998,170.898438 182.189941,170.898438 Z M216.369629,152.282715 C212.82959,152.282715 209.960938,155.151367 209.960938,158.691406 C209.960938,162.231445 212.82959,165.100098 216.369629,165.100098 C219.909668,165.100098 222.77832,162.231445 222.77832,158.691406 C222.77832,155.151367 219.909668,152.282715 216.369629,152.282715 Z M105.886459,162.973404 C102.348328,162.973404 99.4777681,165.843964 99.4777681,169.382095 C99.4777681,172.922134 102.348328,175.790787 105.886459,175.790787 C109.426499,175.790787 112.295151,172.922134 112.295151,169.382095 C112.295151,165.843964 109.426499,162.973404 105.886459,162.973404 Z M105.895996,142.51709 C102.355957,142.51709 99.4873047,145.385742 99.4873047,148.925781 C99.4873047,152.46582 102.355957,155.334473 105.895996,155.334473 C109.436035,155.334473 112.304688,152.46582 112.304688,148.925781 C112.304688,145.385742 109.436035,142.51709 105.895996,142.51709 Z M143.127441,84.8388672 C139.587402,84.8388672 136.71875,87.7075195 136.71875,91.2475586 C136.71875,94.7875977 139.587402,97.65625 143.127441,97.65625 C146.66748,97.65625 149.536133,94.7875977 149.536133,91.2475586 C149.536133,87.7075195 146.66748,84.8388672 143.127441,84.8388672 Z M143.127441,64.3920898 C139.587402,64.3920898 136.71875,67.2607422 136.71875,70.8007812 C136.71875,74.3408203 139.587402,77.2094727 143.127441,77.2094727 C146.66748,77.2094727 149.536133,74.3408203 149.536133,70.8007812 C149.536133,67.2607422 146.66748,64.3920898 143.127441,64.3920898 Z M143.127441,43.9453125 C139.587402,43.9453125 136.71875,46.8139648 136.71875,50.3540039 C136.71875,53.894043 139.587402,56.7626953 143.127441,56.7626953 C146.66748,56.7626953 149.536133,53.894043 149.536133,50.3540039 C149.536133,46.8139648 146.66748,43.9453125 143.127441,43.9453125 Z" id="Shape" fill="#01BFF9"></path>
                <path d="M32.9360962,111.841202 C30.269623,109.092712 28.7990571,105.470657 28.7990571,101.638794 L28.7990571,92.7829741 C28.7990571,92.7467344 28.7952422,92.7124023 28.7952422,92.6761626 C31.9118501,91.8922422 34.866333,90.2843477 37.3039248,87.8448486 C44.4927217,80.657959 44.4927217,69.0059663 37.3039248,61.8171689 C30.1170352,54.6302793 18.465042,54.6302793 11.2762451,61.8171689 C4.08935547,69.0059663 4.08935547,80.657959 11.2762451,87.8448486 C13.5231016,90.0917051 16.204834,91.6347505 19.0486909,92.4777983 C19.0429688,92.5788877 19.0334321,92.6799775 19.0334321,92.7829741 L19.0334321,101.638794 C19.0334321,108.024597 21.4824678,114.063263 25.9284971,118.642807 L42.6654814,135.887146 C45.3319551,138.635635 46.8025205,142.259598 46.8025205,146.089554 L46.8025205,222.532272 C49.9362944,225.048065 53.1959531,227.416992 56.5681455,229.627609 L56.5681455,146.089554 C56.5681455,139.705658 54.1191104,133.666992 49.6730806,129.085541 L32.9360962,111.841202 Z M24.290085,82.1552275 C20.2465059,82.1552275 16.9658662,78.8764951 16.9658662,74.8310088 C16.9658662,70.7874297 20.2465059,67.50679 24.290085,67.50679 C28.3355713,67.50679 31.6143037,70.7874297 31.6143037,74.8310088 C31.6143037,78.8764951 28.3355713,82.1552275 24.290085,82.1552275 Z M229.747772,56.7989351 C225.328445,57.0049287 220.970154,58.7940215 217.596054,62.1681211 C210.409165,69.3550107 210.409165,81.0089111 217.596054,88.1958008 C219.961167,90.5609131 222.808838,92.142105 225.820542,92.9508208 L225.820542,110.107422 C225.820542,114.021301 224.298477,117.698669 221.530914,120.466232 L201.206207,140.789032 C196.596146,145.401001 194.055557,151.53122 194.055557,158.052444 L194.055557,229.204178 C197.429657,226.963043 200.689316,224.563599 203.821182,222.015381 L203.821182,158.052444 C203.821182,154.140473 205.345154,150.461197 208.112717,147.693634 L228.435517,127.370834 C233.047485,122.758865 235.586167,116.628647 235.586167,110.107422 L235.586167,92.8993223 C238.529205,92.0753477 241.308212,90.5113223 243.623733,88.1958008 C243.844986,87.9745483 244.060517,87.7494814 244.268417,87.5186919 C240.823746,76.5495303 235.904693,66.2345889 229.747772,56.7989351 L229.747772,56.7989351 Z M230.609894,82.5061797 C226.566314,82.5061797 223.285675,79.2274473 223.285675,75.1819609 C223.285675,71.1364746 226.566314,67.8577422 230.609894,67.8577422 C234.65538,67.8577422 237.934112,71.1364746 237.934112,75.1819609 C237.934112,79.2274473 234.65538,82.5061797 230.609894,82.5061797 Z M192.090988,37.4031064 C184.902191,30.2162168 173.250198,30.2162168 166.063309,37.4031064 C158.874512,44.5899961 158.874512,56.2438965 166.063309,63.4307861 C168.384552,65.7520293 171.173096,67.3198701 174.125671,68.1419375 L174.125671,98.2608794 C174.125671,102.172852 172.6017,105.852127 169.834137,108.617783 L134.252548,144.201279 L112.594604,122.543335 L123.094559,111.984253 C127.674103,107.378006 130.195618,101.264954 130.195618,94.7704316 L130.195618,36.0698701 C133.054733,35.2306367 135.749817,33.6837769 138.00621,31.429291 C145.1931,24.2404937 145.1931,12.588501 138.00621,5.40161133 C130.817413,-1.78718555 119.16542,-1.78718555 111.978531,5.40161133 C104.789734,12.588501 104.789734,24.2404937 111.978531,31.429291 C114.400864,33.8516235 117.334366,35.4557036 120.429993,36.2434385 L120.429993,94.7704316 C120.429993,98.6671445 118.917465,102.336884 116.168976,105.098725 L105.690002,115.636826 L78.8726807,88.8214111 C76.1051177,86.0538481 74.5811465,82.3745728 74.5811465,78.4626006 L74.5811465,68.2220459 C77.6462554,67.4247744 80.5435181,65.8321382 82.9448701,63.4307861 C90.1317598,56.2438965 90.1317598,44.5899961 82.9448701,37.4031064 C75.7560732,30.2162168 64.1040801,30.2162168 56.9171904,37.4031064 C49.7283936,44.5899961 49.7283936,56.2438965 56.9171904,63.4307861 C59.1964722,65.7100679 61.9239805,67.2645566 64.8155215,68.0980684 L64.8155215,78.4626006 C64.8155215,84.9838257 67.3561094,91.1140439 71.9680786,95.7260132 L98.8044736,122.562408 L90.7173154,130.695343 C86.1377715,135.30159 83.6162568,141.414643 83.6162568,147.909165 L83.6162568,242.988586 C86.8148804,244.110107 90.0707246,245.111465 93.3818818,245.973587 L93.3818818,147.909165 C93.3818818,144.012451 94.8963164,140.34462 97.6428984,137.580872 L105.709076,129.467011 L127.353668,151.111603 C122.888565,155.694961 120.429993,161.725998 120.429993,168.136597 L120.429993,249.917984 C121.944428,249.97139 123.464584,250 124.992371,250 C126.735688,250 128.469467,249.96376 130.195618,249.893188 L130.195618,168.136597 C130.195618,164.333344 131.637573,160.755157 134.260178,158.018112 L152.954102,176.712036 C155.719757,179.477691 157.243729,183.156967 157.243729,187.068939 L157.243729,245.800019 C160.554886,244.918823 163.812637,243.904114 167.009354,242.76352 L167.009354,187.068939 C167.009354,180.549622 164.470673,174.417496 159.858704,169.805527 L141.159058,151.105881 L176.740646,115.524292 C181.350708,110.912323 183.891296,104.782104 183.891296,98.2608794 L183.891296,68.1781768 C186.895371,67.3675537 189.733505,65.788269 192.090988,63.4307861 C199.277878,56.2438965 199.277878,44.5899961 192.090988,37.4031064 Z M117.666245,18.4154512 C117.666245,14.3699648 120.946884,11.0912324 124.990463,11.0912324 C129.03595,11.0912324 132.314682,14.3699648 132.314682,18.4154512 C132.314682,22.4590303 129.03595,25.7396699 124.990463,25.7396699 C120.946884,25.7396699 117.666245,22.4590303 117.666245,18.4154512 Z M69.929123,57.741165 C65.8855439,57.741165 62.6049043,54.4624326 62.6049043,50.4169463 C62.6049043,46.3733672 65.8855439,43.0927275 69.929123,43.0927275 C73.9746094,43.0927275 77.2533418,46.3733672 77.2533418,50.4169463 C77.2533418,54.4624326 73.9746094,57.741165 69.929123,57.741165 Z M179.077148,57.741165 C175.031662,57.741165 171.75293,54.4624326 171.75293,50.4169463 C171.75293,46.3733672 175.031662,43.0927275 179.077148,43.0927275 C183.120728,43.0927275 186.401367,46.3733672 186.401367,50.4169463 C186.401367,54.4624326 183.120728,57.741165 179.077148,57.741165 Z M149.536133,91.2475586 C149.536133,94.0132139 147.779465,96.3630674 145.324707,97.2614287 C142.869949,96.3630674 141.113281,94.0132139 141.113281,91.2475586 C141.113281,88.4819033 142.869949,86.1320498 145.324707,85.2336885 C147.779465,86.1320498 149.536133,88.4819033 149.536133,91.2475586 Z M188.598633,197.753906 C188.598633,200.519562 186.841965,202.869415 184.387207,203.767776 C181.932449,202.869415 180.175781,200.519562 180.175781,197.753906 C180.175781,194.988251 181.932449,192.638397 184.387207,191.740036 C186.841965,192.638397 188.598633,194.988251 188.598633,197.753906 Z M188.598633,177.307129 C188.598633,180.072784 186.841965,182.422638 184.387207,183.320999 C181.932449,182.422638 180.175781,180.072784 180.175781,177.307129 C180.175781,174.541474 181.932449,172.19162 184.387207,171.293259 C186.841965,172.19162 188.598633,174.541474 188.598633,177.307129 Z M145.324707,44.3401338 C147.779465,45.2384951 149.536133,47.5883486 149.536133,50.3540039 C149.536133,53.1196592 147.779465,55.4695127 145.324707,56.367874 C142.869949,55.4695127 141.113281,53.1196592 141.113281,50.3540039 C141.113281,47.5883486 142.869949,45.2384951 145.324707,44.3401338 Z M222.77832,158.691406 C222.77832,161.457062 221.021652,163.806915 218.566895,164.705276 C216.112137,163.806915 214.355469,161.457062 214.355469,158.691406 C214.355469,155.925751 216.112137,153.575897 218.566895,152.677536 C221.021652,153.575897 222.77832,155.925751 222.77832,158.691406 Z M188.598633,218.200684 C188.598633,220.966339 186.841965,223.316192 184.387207,224.214554 C181.932449,223.316192 180.175781,220.966339 180.175781,218.200684 C180.175781,215.435028 181.932449,213.085175 184.387207,212.186813 C186.841965,213.085175 188.598633,215.435028 188.598633,218.200684 Z M37.2314453,163.574219 C37.2314453,166.339874 35.4747773,168.689728 33.0200195,169.588089 C30.5652617,168.689728 28.8085938,166.339874 28.8085938,163.574219 C28.8085938,160.808563 30.5652617,158.45871 33.0200195,157.560349 C35.4747773,158.45871 37.2314453,160.808563 37.2314453,163.574219 Z M149.536133,70.8007812 C149.536133,73.5664365 147.779465,75.91629 145.324707,76.8146514 C142.869949,75.91629 141.113281,73.5664365 141.113281,70.8007812 C141.113281,68.035126 142.869949,65.6852725 145.324707,64.7869111 C147.779465,65.6852725 149.536133,68.035126 149.536133,70.8007812 Z M37.2314453,143.127441 C37.2314453,145.893097 35.4747773,148.24295 33.0200195,149.141312 C30.5652617,148.24295 28.8085938,145.893097 28.8085938,143.127441 C28.8085938,140.361786 30.5652617,138.011933 33.0200195,137.113571 C35.4747773,138.011933 37.2314453,140.361786 37.2314453,143.127441 Z M37.2314453,184.020996 C37.2314453,186.786651 35.4747773,189.136505 33.0200195,190.034866 C30.5652617,189.136505 28.8085938,186.786651 28.8085938,184.020996 C28.8085938,181.255341 30.5652617,178.905487 33.0200195,178.007126 C35.4747773,178.905487 37.2314453,181.255341 37.2314453,184.020996 Z M112.304688,148.925781 C112.304688,151.691437 110.54802,154.04129 108.093262,154.939651 C105.638504,154.04129 103.881836,151.691437 103.881836,148.925781 C103.881836,146.160126 105.638504,143.810272 108.093262,142.911911 C110.54802,143.810272 112.304688,146.160126 112.304688,148.925781 Z M112.295151,169.382095 C112.295151,172.149658 110.54039,174.499512 108.083725,175.395966 C105.628967,174.497604 103.872299,172.149658 103.872299,169.382095 C103.872299,166.61644 105.628967,164.266586 108.083725,163.368225 C110.54039,164.266586 112.295151,166.61644 112.295151,169.382095 Z" id="Shape" fill="#01CFFA"></path>
                <path d="M138.01384,5.39016699 C135.782242,3.15856934 133.12149,1.62124609 130.296707,0.776291016 C127.471924,1.62124609 124.809265,3.16047656 122.577667,5.39016699 C115.390777,12.5789644 115.390777,24.230957 122.577667,31.4178467 C124.809265,33.6494443 127.471924,35.1867676 130.296707,36.0336304 C133.12149,35.1867676 135.784149,33.6494443 138.01384,31.4178467 C145.200729,24.230957 145.200729,12.5789644 138.01384,5.39016699 Z M125,25.7282256 C120.954514,25.7282256 117.675781,22.4494932 117.675781,18.4040068 C117.675781,14.3585205 120.954514,11.0797881 125,11.0797881 C129.045486,11.0797881 132.324219,14.3585205 132.324219,18.4040068 C132.324219,22.4494932 129.045486,25.7282256 125,25.7282256 Z M192.098618,37.3935698 C189.86702,35.1619722 187.206269,33.6246489 184.381485,32.7796934 C181.556702,33.6246489 178.894043,35.1619722 176.662445,37.3935698 C169.475556,44.5804595 169.475556,56.2343599 176.662445,63.4212495 C178.894043,65.6528472 181.554794,67.1901704 184.381485,68.035126 C187.206269,67.1901704 189.86702,65.6528472 192.098618,63.4212495 C199.285507,56.2343599 199.285507,44.5804595 192.098618,37.3935698 Z M179.084778,57.7316284 C175.039292,57.7316284 171.760559,54.452896 171.760559,50.4074097 C171.760559,46.3619233 175.039292,43.0831909 179.084778,43.0831909 C183.130264,43.0831909 186.408997,46.3619233 186.408997,50.4074097 C186.408997,54.452896 183.130264,57.7316284 179.084778,57.7316284 Z M231.502533,59.5417021 C230.329514,60.2722168 229.217529,61.1381533 228.197098,62.1585845 C221.010208,69.3454741 221.010208,80.9993745 228.197098,88.1862642 C230.428696,90.4178618 233.089447,91.9551851 235.91423,92.8001406 C238.739014,91.9551851 241.401672,90.4178618 243.633271,88.1862642 C243.854522,87.9650117 244.068146,87.7380371 244.276047,87.5091553 C241.163254,77.5966646 236.846924,68.2182314 231.502533,59.5417021 L231.502533,59.5417021 Z M230.619431,82.4966431 C226.573944,82.4966431 223.295212,79.2160034 223.295212,75.1724243 C223.295212,71.126938 226.573944,67.8482056 230.619431,67.8482056 C234.664917,67.8482056 237.943649,71.126938 237.943649,75.1724243 C237.943649,79.2179106 234.664917,82.4966431 230.619431,82.4966431 Z M82.9524995,37.3935698 C80.7209014,35.1619722 78.0601504,33.6246489 75.2353667,32.7796934 C72.4105835,33.6246489 69.7479248,35.1619722 67.5163271,37.3935698 C60.3294375,44.5804595 60.3294375,56.2343599 67.5163271,63.4212495 C69.7479248,65.6528472 72.4105835,67.1901704 75.2353667,68.035126 C78.0601504,67.1901704 80.7209014,65.6528472 82.9524995,63.4212495 C90.1393892,56.2343599 90.1393892,44.5804595 82.9524995,37.3935698 Z M69.9386597,57.7316284 C65.8931733,57.7316284 62.6144409,54.452896 62.6144409,50.4074097 C62.6144409,46.3619233 65.8931733,43.0831909 69.9386597,43.0831909 C73.984146,43.0831909 77.2628784,46.3619233 77.2628784,50.4074097 C77.2628784,54.452896 73.984146,57.7316284 69.9386597,57.7316284 Z M37.3134614,61.8076323 C35.0818633,59.5760347 32.4211123,58.0387114 29.5963286,57.1937559 C26.7715454,58.0387114 24.1088867,59.5760347 21.8791963,61.8076323 C14.6903994,68.994522 14.6903994,80.6484224 21.8791963,87.835312 C24.1107939,90.0669097 26.7715454,91.6042329 29.5963286,92.4491885 C32.4211123,91.6042329 35.0837705,90.0669097 37.3134614,87.835312 C44.5003511,80.6484224 44.5003511,68.994522 37.3134614,61.8076323 Z M24.2996216,82.1456909 C20.2541353,82.1456909 16.9754028,78.8669585 16.9754028,74.8214722 C16.9754028,70.7759858 20.2541353,67.4972534 24.2996216,67.4972534 C28.3451079,67.4972534 31.6238403,70.7759858 31.6238403,74.8214722 C31.6238403,78.8669585 28.3451079,82.1456909 24.2996216,82.1456909 Z" id="Shape" fill="#62DAFA"></path>
            </g>
        </g>
    </g>
</svg>