<svg width="111" height="108" viewBox="0 0 111 108" xmlns="http://www.w3.org/2000/svg"><title>E9BFC0C1-1E4B-4634-A96D-EF7FC4537318</title><g fill="none"><path d="M100.195 57.957c.023 27.624-22.355 50.027-49.97 50.043C22.785 108.016.577 86.138.2 58.7a49.916 49.916 0 0 1 3.317-18.649c.186-.48.644-.801 1.16-.801a3.332 3.332 0 0 0 3.33-3.332v-4.372c0-.257.073-.507.213-.722 8.848-13.64 24.164-22.696 41.605-22.822 27.83-.203 50.347 22.125 50.37 49.955z" fill="#243340"/><path d="M38.404 37.19c-6.15-.837-13.325 1.822-18.277 6.775l-8.27 8.27a2.923 2.923 0 0 0 2.824 4.893c5.248-1.407 12.194-1.876 13.902-.571l9.82-19.368z" fill="#FFF"/><path d="M73.632 72.639l-19.395 9.356c1.08 1.472.995 6.128-.264 14.653a2.917 2.917 0 0 0 1.577 3.038c1.126.57 2.489.35 3.381-.543l8.27-8.27c4.673-4.672 7.198-11.83 6.431-18.234z" fill="#FAF7F7"/><path d="M57.152 82.993c-6.822 3.68-7.69 3.887-8.724 4.59-1.159.744-2.647.579-3.64-.413L24.114 66.494c-.951-.951-1.157-2.482-.413-3.64.702-1.033.785-1.695 4.507-8.807l8.187-.083L57.07 74.64l.082 8.353z" fill="#0091FF"/><path d="M57.152 82.993c-6.822 3.68-7.69 3.887-8.724 4.59-1.159.744-2.647.579-3.64-.413L34.45 76.83l12.406-12.405L57.069 74.64l.083 8.353z" fill="#0B8AEB"/><path d="M57.152 82.993L28.207 54.047C42.555 26.962 59.799 10.05 79.813 3.433l14.06 13.977L107.6 31.139c-6.616 19.93-23.487 37.298-50.449 51.854z" fill="#AADAFF"/><path d="M57.152 82.993L42.721 68.561 93.873 17.41 107.6 31.138c-6.616 19.932-23.487 37.299-50.449 51.855z" fill="#9BCCF3"/><path d="M84.734 26.3c-5.707-5.706-14.97-5.707-20.676 0-5.706 5.707-5.706 14.97 0 20.676l.124.124c5.706 5.54 14.887 5.54 20.552-.124 5.665-5.665 5.665-14.846.124-20.551l-.124-.124z" fill="#243340"/><path d="M84.734 46.976c-5.665 5.665-14.846 5.665-20.552.124l20.676-20.675c5.54 5.705 5.54 14.886-.124 20.55z" fill="#0A192B"/><path d="M107.6 31.138c-6.325-.455-13.107-3.432-18.607-8.849l-.124-.124c-5.54-5.541-8.642-12.364-9.056-18.732a57.403 57.403 0 0 1 5.79-1.654C92.673.166 100.075-.206 107.767.62c.744.083 1.447.455 1.86 1.034.414.413.704.95.745 1.571.869 7.65.413 15.052-1.2 22.123-.454 1.944-.95 3.846-1.571 5.79z" fill="#0091FF"/><path d="M107.6 31.138c-6.325-.455-13.107-3.432-18.607-8.849l20.634-20.634c.414.413.703.95.745 1.571.868 7.65.413 15.052-1.2 22.123-.454 1.944-.95 3.846-1.571 5.79z" fill="#0B8AEB"/><path d="M56.656 57.273a2.756 2.756 0 0 0-.827-1.82c-.496-.662-1.282-1.117-2.108-1.117-10.752-.083-13.15 3.722-13.77 4.342-17.905 17.905-18.112 26.714-18.112 27.623.04.786.33 1.49.868 2.026.04.041.083.083.166.083.413.413.992.662 1.612.703 1.488.165 9.882-.041 27.87-18.03 4.053-4.052 4.343-7.815 4.3-13.81z" fill="#FFF"/><path d="M56.656 57.273c.042 5.995-.248 9.758-4.3 13.81-17.989 17.989-26.383 18.195-27.87 18.03-.621-.041-1.2-.29-1.613-.703L55.83 55.453a2.76 2.76 0 0 1 .826 1.82z" fill="#ECECEC"/></g></svg>