<?xml version="1.0" encoding="UTF-8"?>
<svg width="111px" height="108px" viewBox="0 0 111 108" version="1.1" xmlns="http://www.w3.org/2000/svg" xmlns:xlink="http://www.w3.org/1999/xlink">
    <!-- Generator: sketchtool 53 (72520) - https://sketchapp.com -->
    <title>E9BFC0C1-1E4B-4634-A96D-EF7FC4537318</title>
    <desc>Created with sketchtool.</desc>
    <g id="Desktop" stroke="none" stroke-width="1" fill="none" fill-rule="evenodd">
        <g id="Landing-page" transform="translate(-202.000000, -4235.000000)" fill-rule="nonzero">
            <g id="Group-15" transform="translate(162.000000, 4023.000000)">
                <g id="Group-17">
                    <g id="Group-24" transform="translate(40.195112, 212.000000)">
                        <path d="M100.000201,57.9572754 C100.023089,85.5810242 77.6445489,107.983978 50.0299556,108 C22.5893122,108.016022 0.381670615,86.1379699 0.00477852539,58.7003785 C-0.0852483301,52.1200256 1.09959659,45.8280641 3.32203917,40.0510863 C3.50743351,39.5704346 3.96596026,39.25 4.48094425,39.25 C6.32115421,39.25 7.81270089,37.7584533 7.81270089,35.9182434 L7.81270089,31.5458375 C7.81270089,31.2894898 7.88518019,31.0392457 8.02479815,30.8240967 C16.8733698,17.1842652 32.1893794,8.12817383 49.6301753,8.00152588 C77.4591548,7.79934687 99.9765497,30.1267699 100.000201,57.9572754 L100.000201,57.9572754 Z" id="Path" fill="#243340"></path>
                        <g id="start-up" transform="translate(10.804888, 0.000000)">
                            <path d="M27.4039047,37.1893275 C21.253655,36.353253 14.0792519,39.0122441 9.12676647,43.965491 L0.856633723,52.2356238 C-0.0784296296,53.1706871 -0.270315595,54.6182078 0.392147953,55.764955 C1.03862086,56.8964729 2.39248304,57.4728924 3.68086004,57.1279544 C8.92878908,55.7207906 15.8747563,55.2524975 17.5826938,56.5568653 L27.4039047,37.1893275 Z" id="Path" fill="#FFFFFF"></path>
                            <path d="M62.6324928,72.6387366 L43.2367813,81.9954618 C44.3172819,83.4673489 44.2319992,88.1228678 42.9725573,96.6480873 C42.7844786,97.9090522 43.4362817,99.12966 44.5495248,99.6862817 C45.6757127,100.255848 47.0387123,100.035788 47.9311343,99.1433663 L56.2012671,90.8732335 C60.873538,86.2009626 63.399275,79.0433115 62.6324928,72.6387366 L62.6324928,72.6387366 Z" id="Path" fill="#FAF7F7"></path>
                            <path d="M46.1523819,82.9929641 C39.3297698,86.6730628 38.4617142,86.8801778 37.427662,87.5829982 C36.2694932,88.3269372 34.780854,88.1617019 33.7886819,87.1695298 L13.112969,66.493817 C12.1619152,65.5427632 11.9555616,64.0122441 12.6995006,62.8548366 C13.4023209,61.8207846 13.4853193,61.1590827 17.2065363,54.0471187 L25.3944324,53.9641205 L46.070145,74.6398331 L46.1523819,82.9929641 Z" id="Path" fill="#0091FF"></path>
                            <path d="M46.1523819,82.9929641 C39.3297698,86.6730628 38.4617142,86.8801778 37.427662,87.5829982 C36.2694932,88.3269372 34.780854,88.1617019 33.7886819,87.1695298 L23.4504446,76.8312926 L35.8560246,64.4264741 L46.0693836,74.6398331 L46.1523819,82.9929641 Z" id="Path" fill="#0B8AEB"></path>
                            <path d="M46.1523819,82.9929641 L17.2065363,54.0471187 C31.5553423,26.9622624 48.7991899,10.0488852 68.8132006,3.43338811 L82.8726548,17.4098441 L96.6008772,31.1388281 C89.9853801,51.0698404 73.1138828,68.4370431 46.1523819,82.9929641 Z" id="Path" fill="#AADAFF"></path>
                            <path d="M46.1523819,82.9929641 L31.7205774,68.5611598 L82.8726548,17.4098441 L96.6008772,31.1380665 C89.9853801,51.0698404 73.1138828,68.4370431 46.1523819,82.9929641 L46.1523819,82.9929641 Z" id="Path" fill="#9BCCF3"></path>
                            <path d="M73.7337049,26.3005604 C68.0273819,20.5942374 58.7643154,20.5934758 53.0579922,26.3005604 C47.351669,32.0068834 47.351669,41.2699501 53.0579922,46.9755117 L53.182109,47.0996285 C58.888432,52.6407164 68.0685002,52.6407164 73.7337049,46.9755117 C79.3989096,41.3110684 79.3989096,32.1302388 73.8578216,26.4246772 L73.7337049,26.3005604 Z" id="Path" fill="#243340"></path>
                            <path d="M73.7337049,46.9755117 C68.0685002,52.6407164 58.888432,52.6407164 53.182109,47.0996285 L73.8578216,26.4246772 C79.3989096,32.1302388 79.3989096,41.3110684 73.7337049,46.9755117 Z" id="Path" fill="#0A192B"></path>
                            <path d="M96.6008772,31.1380665 C90.274732,30.6834795 83.4932382,27.7062012 77.9932688,22.28923 L77.869152,22.1651133 C72.3280641,16.6240253 69.226669,9.80065185 68.8132006,3.43262671 C70.7153082,2.77092476 72.6585343,2.23333938 74.602522,1.77875244 C81.6733674,0.165996491 89.0754446,-0.206353606 96.7668737,0.621345029 C97.5108127,0.703581871 98.2136331,1.07593197 98.6271016,1.65463567 C99.0405702,2.06810429 99.3306834,2.60568967 99.3718019,3.2262731 C100.240619,10.8758224 99.7852706,18.2778996 98.1725146,25.348745 C97.7179277,27.2927327 97.2214608,29.1948404 96.6008772,31.1380665 L96.6008772,31.1380665 Z" id="Path" fill="#0091FF"></path>
                            <path d="M96.6008772,31.1380665 C90.274732,30.6834795 83.4932382,27.7062012 77.9932688,22.28923 L98.6271016,1.65463567 C99.0405702,2.06810429 99.329922,2.60568967 99.3718019,3.2262731 C100.239858,10.8765838 99.7852706,18.2778996 98.1725146,25.348745 C97.7179277,27.2927327 97.2214608,29.1948404 96.6008772,31.1380665 L96.6008772,31.1380665 Z" id="Path" fill="#0B8AEB"></path>
                            <path d="M45.655915,57.2726304 C45.6147965,56.5690485 45.3254446,55.9492263 44.8289778,55.4527595 C44.3325109,54.7910575 43.5474538,54.3364706 42.7205166,54.3364706 C31.9688109,54.2534721 29.5702363,58.0576877 28.9504142,58.6782712 C11.0456261,76.5830593 10.8385111,85.3915388 10.8385111,86.3007127 C10.8796296,87.0865314 11.1689815,87.7901133 11.7065669,88.3269372 C11.7476852,88.3680556 11.7895651,88.4099355 11.8725634,88.4099355 C12.286032,88.8234039 12.8647357,89.0716374 13.4845577,89.1127559 C14.9731969,89.277991 23.3674464,89.0716374 41.3552327,71.0838511 C45.4084429,67.0314023 45.6977949,63.2683053 45.655915,57.2726304 Z" id="Path" fill="#FFFFFF"></path>
                            <path d="M45.655915,57.2726304 C45.6977949,63.2683053 45.4084429,67.0314023 41.3552327,71.0838511 C23.3674464,89.0716374 14.9731969,89.277991 13.4853193,89.1127559 C12.8647357,89.0716374 12.286032,88.8234039 11.8725634,88.4099355 L44.8297392,55.4527595 C45.3254446,55.9492263 45.6147965,56.5690485 45.655915,57.2726304 Z" id="Path" fill="#ECECEC"></path>
                        </g>
                    </g>
                </g>
            </g>
        </g>
    </g>
</svg>