<svg width="392" height="400" viewBox="0 0 392 400" xmlns="http://www.w3.org/2000/svg"><title>59F285C1-62A7-42AE-A749-A8B65610CC41</title><g fill="none"><path d="M223.154 390.299a8.805 8.805 0 0 1-7.952 8.759 196.513 196.513 0 0 1-39.43-.1c-4.84-.5-8.507-4.603-8.507-9.468v-38.193H66.866C26.12 315.45.4 262.927.4 204.391.4 96.502 87.745 9.015 195.58 8.783c108.406-.233 195.826 86.813 196.038 195.219.105 53.976-21.66 102.863-56.92 138.314a30.384 30.384 0 0 1-21.537 8.981h-51.006c-21.54 0-39 17.461-39 39.002z" fill="#0A192B"/><path d="M177.645 251.497v147.638h-.007c-7.688-.719-13.566-7.172-13.566-14.893 0-9.376-7.6-16.977-16.977-16.977H100.16c-8.487 0-16.783-2.72-23.506-7.9a196 196 0 0 1-18.768-16.47v-91.398c0-6.614 5.362-11.976 11.976-11.976h95.808c6.614 0 11.976 5.362 11.976 11.976zm-4.207-59.942l-8.746-8.745c-2.209-2.21-5.69-2.362-8.167-.457-16.437 12.647-40.175 11.447-55.224-3.606a41.686 41.686 0 0 1-10.436-17.382h28.853a6.141 6.141 0 0 0 6.141-6.141v-12.283a6.141 6.141 0 0 0-6.14-6.141H90.864a41.678 41.678 0 0 1 10.436-17.382c15.05-15.052 38.788-16.254 55.224-3.606 2.477 1.905 5.958 1.753 8.167-.457l8.741-8.741c2.553-2.553 2.39-6.78-.405-9.066-26.822-21.925-66.901-19.736-91.075 6.561-8.653 9.414-14.089 20.8-16.3 32.691h-7.347a6.141 6.141 0 0 0-6.142 6.141v12.283a6.141 6.141 0 0 0 6.142 6.141h7.347c2.116 11.414 7.201 22.376 15.305 31.585 13.27 15.079 31.638 22.619 50.008 22.619 14.946 0 29.891-4.992 42.091-14.975 2.783-2.278 2.924-6.496.38-9.039z" fill="#457AB4"/><path d="M177.645 251.497v147.638c-37.65-3.505-72.197-17.68-100.6-39.472V251.497c0-6.614 5.363-11.976 11.977-11.976h76.647c6.614 0 11.976 5.362 11.976 11.976z" fill="#5893D3"/><path d="M173.434 106.614l-8.741 8.74c-2.21 2.21-5.691 2.363-8.167.458-16.437-12.648-40.174-11.446-55.225 3.606A41.686 41.686 0 0 0 90.865 136.8h28.854a6.141 6.141 0 0 1 6.141 6.141v12.283a6.141 6.141 0 0 1-6.141 6.141H90.865a41.678 41.678 0 0 0 10.436 17.382c15.05 15.053 38.788 16.253 55.225 3.606 2.477-1.905 5.958-1.753 8.167.457l1.092 1.092c-9.053 4.92-19.428 7.715-30.456 7.715-35.276 0-63.872-28.597-63.872-63.872 0-3.338.258-6.614.751-9.814a65.667 65.667 0 0 1 9.745-13.822c24.174-26.298 64.253-28.487 91.075-6.562 2.796 2.286 2.958 6.514.406 9.067z" fill="#9FCDFF"/><path d="M334.132 171.657v171.239c-31.318 31.233-73.17 51.9-119.76 56.24v-227.48c0-6.613 5.361-11.975 11.975-11.975h95.809c6.614 0 11.976 5.362 11.976 11.976z" fill="#E5A41F"/><path d="M334.132 171.657v171.239c-26.96 26.886-61.725 45.94-100.6 53.494V171.657c0-6.614 5.363-11.976 11.977-11.976h76.647c6.614 0 11.976 5.362 11.976 11.976zM295.335 56.158h-8.8V34.621h25.71a6.141 6.141 0 0 0 6.141-6.141V16.197a6.141 6.141 0 0 0-6.14-6.141h-25.712V6.14A6.141 6.141 0 0 0 280.393 0H268.11a6.141 6.141 0 0 0-6.141 6.141v3.915h-8.8c-19.84 0-35.912 16.433-35.32 36.403.572 19.218 16.844 34.264 36.071 34.264h8.049v21.537h-25.711a6.141 6.141 0 0 0-6.141 6.142v12.282a6.141 6.141 0 0 0 6.14 6.142h25.712v3.914a6.141 6.141 0 0 0 6.141 6.141h12.283a6.141 6.141 0 0 0 6.141-6.14v-3.915h8.05c19.226 0 35.498-15.046 36.07-34.264.592-19.97-15.481-36.404-35.32-36.404zm-42.167 0c-6.181 0-11.164-5.236-10.744-11.506.382-5.717 5.394-10.03 11.124-10.03h8.42v21.536h-8.8zm52.911 36.07c-.382 5.718-5.394 10.031-11.124 10.031h-8.42V80.723h8.8c6.18 0 11.163 5.235 10.744 11.505z" fill="#F7B632"/><path d="M295.335 56.158h-8.8V34.621h25.71a6.141 6.141 0 0 0 6.141-6.141V16.197a6.141 6.141 0 0 0-6.14-6.141h-25.712V6.14A6.141 6.141 0 0 0 280.393 0H268.11a6.141 6.141 0 0 0-6.141 6.141v3.915h-8.8c-2.395 0-4.733.244-6.995.7a63.573 63.573 0 0 0-7.052 29.164c0 15.516 5.535 29.735 14.734 40.802l.064.001h8.049v8.14a63.681 63.681 0 0 0 24.565 12.778V80.723h8.8c6.182 0 11.165 5.236 10.745 11.506-.382 5.718-5.394 10.031-11.124 10.031h-5.85a64.044 64.044 0 0 0 13.889 1.532c9.694 0 18.878-2.17 27.109-6.035a34.51 34.51 0 0 0 .55-5.195c.593-19.97-15.48-36.404-35.318-36.404zm-33.366 0h-8.8c-6.182 0-11.165-5.236-10.745-11.506.382-5.717 5.394-10.03 11.124-10.03h8.42v21.536z" fill="#FCCB67"/></g></svg>