<?xml version="1.0" encoding="UTF-8"?>
<svg width="392px" height="400px" viewBox="0 0 392 400" version="1.1" xmlns="http://www.w3.org/2000/svg" xmlns:xlink="http://www.w3.org/1999/xlink">
    <!-- Generator: sketchtool 53 (72520) - https://sketchapp.com -->
    <title>59F285C1-62A7-42AE-A749-A8B65610CC41</title>
    <desc>Created with sketchtool.</desc>
    <g id="Symbols" stroke="none" stroke-width="1" fill="none" fill-rule="evenodd">
        <g id="Footer" transform="translate(-958.000000, -25.000000)" fill-rule="nonzero">
            <g id="euro" transform="translate(958.000000, 25.000000)">
                <path d="M223.153693,390.298603 L223.153693,390.298603 C223.153693,394.829541 219.711776,398.615569 215.202395,399.057884 C208.887824,399.677445 202.485429,400 196.007984,400 C189.174451,400 182.423952,399.644711 175.772455,398.958084 C170.932535,398.458283 167.265469,394.355289 167.265469,389.48982 L167.265469,351.297405 L66.8662675,351.297405 C26.1197605,315.4499 0.399201597,262.927745 0.399201597,204.391218 C0.399201597,96.5021956 87.744511,9.01477046 195.579242,8.78323353 C303.98483,8.5500998 391.40519,95.596008 391.616766,204.001597 C391.722156,257.977645 369.957685,306.864671 334.697804,342.316168 C328.993214,348.051896 321.250299,351.297405 313.16008,351.297405 L262.154092,351.297405 C240.61477,351.297405 223.153693,368.758483 223.153693,390.298603 Z" id="Path" fill="#0A192B"></path>
                <path d="M177.644711,251.497006 L177.644711,399.135329 L177.637525,399.134531 C169.949701,398.415968 164.071856,391.963273 164.071856,384.241916 L164.071856,384.241916 C164.071856,374.866267 156.471058,367.265469 147.095409,367.265469 L100.158882,367.265469 C91.6718563,367.265469 83.3756487,364.545309 76.6530938,359.364471 C76.6171657,359.336527 76.5812375,359.308583 76.544511,359.280639 C69.9808383,354.21477 63.7469062,348.741717 57.8850299,342.89501 L57.8850299,251.497006 C57.8850299,244.883034 63.2471058,239.520958 69.8610778,239.520958 L165.669461,239.520958 C172.282635,239.520958 177.644711,244.883034 177.644711,251.497006 Z M173.437924,191.555289 L164.692216,182.809581 C162.483034,180.600399 159.001198,180.447904 156.525349,182.352894 C140.087824,195.000399 116.350499,193.799601 101.300599,178.747305 C96.2770459,173.723752 92.8023952,167.73014 90.8646707,161.365269 L119.718164,161.365269 C123.10978,161.365269 125.859481,158.615569 125.859481,155.223952 L125.859481,142.941317 C125.859481,139.549701 123.10978,136.8 119.718164,136.8 L90.8646707,136.8 C92.8023952,130.43513 96.2762475,124.441517 101.300599,119.417964 C116.351297,104.365669 140.089421,103.164072 156.525349,115.811577 C159.001996,117.717365 162.483034,117.56487 164.692216,115.35489 L173.433134,106.613972 C175.986427,104.060679 175.822754,99.8331337 173.027545,97.5481038 C146.205988,75.6231537 106.126946,77.8115768 81.9528942,104.109381 C73.2998004,113.522555 67.8642715,124.909381 65.653493,136.8 L58.3057884,136.8 C54.9141717,136.8 52.1644711,139.549701 52.1644711,142.941317 L52.1644711,155.223952 C52.1644711,158.615569 54.9141717,161.365269 58.3057884,161.365269 L65.653493,161.365269 C67.7692615,172.779242 72.8542914,183.740519 80.9580838,192.9501 C94.2275449,208.028743 112.595609,215.568862 130.966068,215.568862 C145.912176,215.568862 160.857485,210.577246 173.057086,200.594012 C175.839521,198.316168 175.980838,194.098204 173.437924,191.555289 Z" id="Shape" fill="#457AB4"></path>
                <path d="M177.644711,251.497006 L177.644711,399.135329 C139.99521,395.629541 105.447505,381.455489 77.0459082,359.663074 L77.0459082,251.497006 C77.0459082,244.883034 82.407984,239.520958 89.0219561,239.520958 L165.668663,239.520958 C172.282635,239.520958 177.644711,244.883034 177.644711,251.497006 Z" id="Path" fill="#5893D3"></path>
                <path d="M173.433932,106.613972 L164.693014,115.35489 C162.483832,117.564072 159.001996,117.716567 156.526148,115.811577 C140.089421,103.164072 116.352096,104.365669 101.301397,119.417964 C96.2778443,124.441517 92.8031936,130.43513 90.8654691,136.8 L119.718962,136.8 C123.110579,136.8 125.860279,139.549701 125.860279,142.941317 L125.860279,155.223952 C125.860279,158.615569 123.110579,161.365269 119.718962,161.365269 L90.8654691,161.365269 C92.8031936,167.73014 96.2770459,173.723752 101.301397,178.747305 C116.351297,193.799601 140.088623,195.000399 156.526148,182.352894 C159.002794,180.447904 162.483832,180.600399 164.693014,182.809581 L165.78523,183.901796 C156.732136,188.821557 146.356886,191.616766 135.329341,191.616766 C100.053493,191.616766 71.4570858,163.020359 71.4570858,127.744511 C71.4570858,124.407186 71.7149701,121.130539 72.2083832,117.931337 C74.8023952,113.013174 78.0463074,108.358483 81.9528942,104.108583 C106.126946,77.8107784 146.205988,75.6223553 173.027545,97.5473054 C175.823553,99.8331337 175.986427,104.060679 173.433932,106.613972 Z" id="Path" fill="#9FCDFF"></path>
                <path d="M334.131737,171.656687 L334.131737,342.895808 C302.813573,374.128543 260.962874,394.796806 214.371257,399.135329 L214.371257,171.656687 C214.371257,165.042715 219.733333,159.680639 226.347305,159.680639 L322.155689,159.680639 C328.769661,159.680639 334.131737,165.042715 334.131737,171.656687 Z" id="Path" fill="#E5A41F"></path>
                <path d="M334.131737,171.656687 L334.131737,342.895808 C307.172056,369.782036 272.407186,388.835928 233.532934,396.389621 L233.532934,171.656687 C233.532934,165.042715 238.89501,159.680639 245.508982,159.680639 L322.155689,159.680639 C328.769661,159.680639 334.131737,165.042715 334.131737,171.656687 Z M295.33493,56.1580838 L286.534132,56.1580838 L286.534132,34.6211577 L312.24511,34.6211577 C315.636727,34.6211577 318.386427,31.8714571 318.386427,28.4798403 L318.386427,16.1972056 C318.386427,12.8055888 315.636727,10.0558882 312.24511,10.0558882 L286.534132,10.0558882 L286.534132,6.14131737 C286.534132,2.7497006 283.784431,0 280.392814,0 L268.11018,0 C264.718563,0 261.968862,2.7497006 261.968862,6.14131737 L261.968862,10.0558882 L253.168064,10.0558882 C233.329341,10.0558882 217.256687,26.4894212 217.8499,46.4590818 C218.420758,65.6774451 234.693014,80.7233533 253.92016,80.7233533 L261.968862,80.7233533 L261.968862,102.260279 L236.257884,102.260279 C232.866267,102.260279 230.116567,105.00998 230.116567,108.401597 L230.116567,120.684232 C230.116567,124.075848 232.866267,126.825549 236.257884,126.825549 L261.968862,126.825549 L261.968862,130.74012 C261.968862,134.131737 264.718563,136.881437 268.11018,136.881437 L280.392814,136.881437 C283.784431,136.881437 286.534132,134.131737 286.534132,130.74012 L286.534132,126.825549 L294.583633,126.825549 C313.80998,126.825549 330.082236,111.779641 330.653094,92.5620758 C331.245509,72.5924152 315.172854,56.1580838 295.33493,56.1580838 Z M253.168064,56.1580838 C246.986826,56.1580838 242.003992,50.9221557 242.423952,44.6522954 C242.806387,38.9349301 247.817964,34.6211577 253.548104,34.6211577 L261.968862,34.6211577 L261.968862,56.1580838 L253.168064,56.1580838 Z M306.079042,92.2283433 C305.696607,97.9457086 300.68503,102.259481 294.95489,102.259481 L286.534132,102.259481 L286.534132,80.7225549 L295.33493,80.7225549 C301.515369,80.7225549 306.498204,85.958483 306.079042,92.2283433 Z" id="Shape" fill="#F7B632"></path>
                <path d="M295.33493,56.1580838 L286.534132,56.1580838 L286.534132,34.6211577 L312.24511,34.6211577 C315.636727,34.6211577 318.386427,31.8714571 318.386427,28.4798403 L318.386427,16.1972056 C318.386427,12.8055888 315.636727,10.0558882 312.24511,10.0558882 L286.534132,10.0558882 L286.534132,6.14131737 C286.534132,2.7497006 283.784431,0 280.392814,0 L268.11018,0 C264.718563,0 261.968862,2.7497006 261.968862,6.14131737 L261.968862,10.0558882 L253.168064,10.0558882 C250.773653,10.0558882 248.435928,10.3001996 246.174052,10.7568862 C241.676647,19.5017964 239.121756,29.4091816 239.121756,39.9201597 C239.121756,55.4355289 244.657086,69.6550898 253.856287,80.7217565 C253.877844,80.7217565 253.898603,80.7233533 253.92016,80.7233533 L261.968862,80.7233533 L261.968862,88.8638723 C269.022754,94.7832335 277.372455,99.2031936 286.534132,101.640719 L286.534132,80.7233533 L295.33493,80.7233533 C301.516168,80.7233533 306.499002,85.9592814 306.079042,92.2291417 C305.696607,97.946507 300.68503,102.260279 294.95489,102.260279 L289.10499,102.260279 C293.578443,103.252695 298.221956,103.792415 302.994012,103.792415 C312.688224,103.792415 321.872255,101.621557 330.102994,97.7572854 C330.411976,96.0662675 330.600399,94.3321357 330.652295,92.5620758 C331.245509,72.5924152 315.172854,56.1580838 295.33493,56.1580838 Z M261.968862,56.1580838 L253.168064,56.1580838 C246.986826,56.1580838 242.003992,50.9221557 242.423952,44.6522954 C242.806387,38.9349301 247.817964,34.6211577 253.548104,34.6211577 L261.968862,34.6211577 L261.968862,56.1580838 Z" id="Shape" fill="#FCCB67"></path>
            </g>
        </g>
    </g>
</svg>