<?xml version="1.0" encoding="UTF-8"?>
<svg width="232px" height="232px" viewBox="0 0 232 232" version="1.1" xmlns="http://www.w3.org/2000/svg" xmlns:xlink="http://www.w3.org/1999/xlink">
    <!-- Generator: sketchtool 53 (72520) - https://sketchapp.com -->
    <title>FA913772-8386-454D-94D9-66ECAA0FB578</title>
    <desc>Created with sketchtool.</desc>
    <g id="Desktop" stroke="none" stroke-width="1" fill="none" fill-rule="evenodd">
        <g id="FAQ" transform="translate(-1100.000000, -227.000000)" fill-rule="nonzero">
            <g id="conversation-(4)" transform="translate(1100.000000, 227.000000)">
                <path d="M17.4383195,123.412361 C-4.85118392,87.1913225 6.42840794,39.7480794 42.6373885,17.4460091 C78.8463691,-4.85606116 126.27441,6.42669424 148.569786,42.6477326 C156.241444,55.1080626 160.201272,69.4996873 159.992123,84.1330627 C158.61707,126.718698 123.4972,160.408809 80.9084971,159.996251 L9.84932701,159.996251 L17.3285502,147.288296 C21.7830178,139.960312 21.8218662,130.778302 17.4383195,123.412361 Z" id="Path" fill="#FFFFFF"></path>
                <path d="M215.508422,190.239799 C237.919111,153.835307 226.550409,106.170898 190.115943,83.7786463 C180.893839,78.1128195 170.587531,74.4370015 159.854993,73 C160.397095,76.7920494 160.651561,80.6113406 160.629295,84.4419825 C159.246093,127.231029 123.918098,161.082062 81.0770086,160.667534 L73,160.667534 C79.3175612,199.106529 112.682082,227.241793 151.66711,226.998433 L223.142388,226.998433 L215.618842,214.229778 C211.143429,206.866792 211.099352,197.641378 215.508422,190.239799 Z" id="Path" fill="#D1EEFF"></path>
                <g id="Group" fill="#1AA8FF">
                    <path d="M219.717594,210.917453 C216.335922,205.318187 216.335922,198.311969 219.717594,192.712703 C243.659359,153.787453 231.517422,102.819953 192.592625,78.8781875 C183.986875,73.5820625 174.481672,69.908125 164.551891,68.0380781 C161.352375,50.6938125 152.691344,34.8226562 139.837547,22.746875 C122.852156,6.49509375 99.7097031,-1.68064062 76.2863125,0.29453125 C30.7250469,3.86379687 -3.31234375,43.6880469 0.256921875,89.2493125 C1.2886875,102.450656 5.4755625,115.210203 12.4650156,126.458578 C15.8466875,132.057844 15.8466875,139.064062 12.4650156,144.663328 L4.79678125,157.461844 C3.24120312,160.082266 4.107125,163.469375 6.72754687,165.019516 C7.57715625,165.521578 8.54820312,165.791641 9.541,165.791641 L68.2374531,165.791641 C76.8984844,204.523406 111.299734,232.040328 150.986234,231.990484 L222.481203,231.990484 C225.526203,231.990484 227.998,229.519141 227.998,226.473687 C227.998,225.486328 227.733375,224.509844 227.225875,223.660234 L219.717594,210.917453 Z M19.1898437,154.758953 L21.8379062,150.290687 C27.343375,141.182875 27.343375,129.774547 21.8379062,120.666734 C1.07889062,86.9324844 11.5990937,42.7609531 45.3274531,22.0023906 C79.0558125,1.24382812 123.232781,11.7581406 143.991797,45.4919375 C151.130328,57.0878594 154.815141,70.4763437 154.622109,84.0913906 C153.303516,123.788766 120.529438,155.172656 80.8103125,154.758953 L19.1898437,154.758953 L19.1898437,154.758953 Z M151.201922,220.957797 C117.489875,221.150828 87.9488437,198.427969 79.4862812,165.792094 L80.8103125,165.792094 C126.542859,166.172719 164.221109,129.973016 165.65525,84.2567812 C165.65525,82.6567969 165.65525,81.0572656 165.65525,79.4572812 C204.216187,88.5098125 228.136203,127.103828 219.083219,165.664766 C217.323281,173.156281 214.372078,180.311125 210.339266,186.865125 C204.833797,195.972938 204.833797,207.381266 210.339266,216.489078 L212.987328,220.957344 L151.201922,220.957344 L151.201922,220.957797 Z" id="Shape"></path>
                    <path d="M89.03,69.7481719 L89.03,69.7481719 C89.03,75.2649688 83.8444375,78.7952656 70.5492969,79.3471719 L69.9978437,79.898625 L72.4252344,97.0000156 L83.458375,97.0000156 L84.6170156,90.5457031 C95.8708281,88.5596563 104.973203,83.0433125 104.973203,69.5275 L104.973203,69.5275 C104.973203,55.5155156 94.6573594,47.4612188 79.4314531,47.4612188 C69.5510625,47.2237813 60.0848281,51.4111094 53.61375,58.8804219 L63.3228594,69.5275 C67.3556719,64.9985156 73.0926875,62.3558906 79.1555,62.2457813 C85.4439688,62.2457813 89.03,65.0039531 89.03,69.7481719 Z" id="Path"></path>
                    <rect id="Rectangle" x="68.9493125" y="105.363344" width="17.1013906" height="16.8807187"></rect>
                </g>
            </g>
        </g>
    </g>
</svg>