<?xml version="1.0" encoding="UTF-8"?>
<svg width="468px" height="200px" viewBox="0 0 468 200" version="1.1" xmlns="http://www.w3.org/2000/svg" xmlns:xlink="http://www.w3.org/1999/xlink">
    <!-- Generator: sketchtool 53 (72520) - https://sketchapp.com -->
    <title>1AED5DBD-4EDA-4F93-892F-8D731C75A0DB</title>
    <desc>Created with sketchtool.</desc>
    <g id="Desktop" stroke="none" stroke-width="1" fill="none" fill-rule="evenodd">
        <g id="Features" transform="translate(-833.000000, -274.000000)" fill-rule="nonzero">
            <g id="Group-3" transform="translate(833.000000, 274.000000)">
                <path d="M92.5930343,144.4747 L97.6503819,182.560224 C97.8705377,184.22565 96.696902,185.753738 95.0259359,185.973164 C94.8881405,185.990529 94.753513,186 94.6204693,186 C93.1126403,186 91.8027929,184.887085 91.6000596,183.357419 L87.3130118,151.076904 L72.7032474,165.980596 L87.7069466,180.798503 C88.9043403,181.980877 88.9138432,183.906772 87.7259529,185.098618 C87.1304238,185.698487 86.3448322,186 85.5592406,186 C84.7831519,186 84.0070636,185.70638 83.4115345,185.11914 L68.4538999,170.344399 L54.1957631,185.070203 C53.5970665,185.689015 52.7988041,186 51.9989579,186 C51.2371238,186 50.4737064,185.715852 49.8813448,185.147555 C48.6681128,183.980967 48.6348516,182.055071 49.803736,180.847439 L64.1143586,166.067478 L48.7605501,150.764571 L44.432887,183.357419 C44.2301537,184.887085 42.9187225,186 41.4124773,186 C41.2794339,186 41.144806,185.990529 41.0085948,185.973164 C39.3376287,185.753738 38.163993,184.224072 38.3841484,182.560224 L46.2210585,123.540987 L39.4667944,103.34499 C39.4400206,103.274011 39.4158347,103.201769 39.3943515,103.128378 L18.9460228,41.985612 L5.07728237,41.985612 C2.85671925,41.985612 0.913330266,40.5680265 0.24019241,38.4574338 C-0.431361693,36.34842 0.336807404,34.0736529 2.15032015,32.7965631 L17.7401953,21.8269706 L17.7401953,5.30203185 C17.7401953,2.9357056 19.2701985,0.892993311 21.5477804,0.222086663 C23.8253623,-0.448819581 26.2249012,0.433619689 27.5173261,2.41950227 L39.18979,20.3603271 L96.490071,20.3603271 L108.164005,2.41950227 C109.454846,0.433619689 111.854385,-0.448819581 114.131967,0.222086663 C116.409549,0.892993311 117.939552,2.9357056 117.939552,5.30203185 L117.939552,21.6193592 L132.973494,32.8865433 C134.720485,34.1952057 135.430052,36.4636583 134.737908,38.5300498 C134.04418,40.5964412 132.110294,41.985612 129.924576,41.985612 L117.089035,41.985612 L89.8134723,123.542566 L92.480659,143.628431 C92.5539494,143.88962 92.5931362,144.165027 92.5931362,144.449586 C92.5931362,144.457965 92.5931022,144.466337 92.5930343,144.4747 Z M82.2964562,147.491555 L54.1057627,147.491555 L67.6799806,161.019533 L68.3695744,161.700588 L82.2964562,147.491555 Z M82.115849,141.409197 L68.0291443,127.533275 L54.107067,141.409197 L82.115849,141.409197 Z M85.3116131,136.006818 L84.0206533,126.286178 L75.4431903,126.286178 L85.3116131,136.006818 Z M60.6511644,126.286178 L52.0107796,126.286178 L50.693024,136.210566 L60.6511644,126.286178 Z M26.7310221,35.9032541 L20.1784624,27.5555176 L8.31467998,35.9032541 L21.0661753,35.9032541 C21.1168291,35.9019958 21.1674444,35.9019995 21.2179737,35.9032541 L26.7310221,35.9032541 Z M40.8527532,35.9032541 L58.995802,35.9032541 L49.924109,27.6408453 L40.8527532,35.9032541 Z M73.7126682,35.9032541 L91.8910985,35.9032541 L82.8017508,27.6250591 L73.7126682,35.9032541 Z M105.973651,35.9032541 L126.847147,35.9032541 L115.395431,27.3218207 L105.973651,35.9032541 Z M107.31508,26.4426854 L90.5488518,26.4426854 L98.9317201,34.0783888 L107.31508,26.4426854 Z M75.0532163,26.4426854 L57.6536926,26.4426854 L66.3534266,34.3672733 L75.0532163,26.4426854 Z M42.1929222,26.4426854 L27.0533161,26.4426854 L33.3649151,34.4840897 L42.1929222,26.4426854 Z M90.6412308,67.0251085 C90.6657349,66.9899691 90.6909959,66.9553242 90.7170003,66.9212013 L108.900119,41.985612 L27.1328275,41.985612 L45.9507275,67.7917142 C45.9660814,67.8122209 45.9811667,67.8329091 45.9959812,67.8537733 L58.1082577,84.4640563 C58.1261736,84.4878833 58.1437466,84.5119813 58.1609695,84.5363431 L58.796569,85.4079784 C58.8170208,85.4350611 58.8369619,85.4624117 58.8563928,85.4900183 L68.0164733,98.0517799 L77.1649899,85.5058766 C77.1910738,85.4683434 77.2180959,85.4312759 77.2460554,85.3947067 L90.6412306,67.0251088 Z M92.1288585,75.3286313 L86.3558032,83.2455632 L94.7809072,83.2455632 L92.1288585,75.3286313 Z M96.5365728,69.2840722 L99.0334791,76.73787 L105.753379,56.6445212 L96.5365728,69.2840722 Z M37.2235619,77.4074414 L40.0635467,70.06187 L30.2795675,56.6445212 L37.2235619,77.4074414 Z M44.3369577,75.9222511 L41.5046153,83.2455632 L49.6771434,83.2455632 L44.3369577,75.9222511 Z M94.8234655,89.3263422 L85.7938444,89.3263422 L92.440816,96.4507648 L94.8234655,89.3263422 Z M41.2097439,89.3263422 L43.5923663,96.4505125 L50.2391026,89.3263422 L41.2097439,89.3263422 Z M74.6960771,99.2352346 L86.7063992,99.2352346 L79.9653534,92.0091647 L74.6960771,99.2352346 Z M89.4759748,105.316014 L74.1348295,105.316014 L85.4276977,117.420874 L89.4759748,105.316014 Z M46.5573632,105.316014 L50.6056088,117.420488 L61.8981172,105.316014 L46.5573632,105.316014 Z M61.3368694,99.2352346 L56.0675933,92.0091649 L49.3265475,99.2352346 L61.3368694,99.2352346 Z M68.0156814,107.688573 L56.3399547,120.20382 L79.6914081,120.20382 L68.0156814,107.688573 Z M31.9179077,20.3603271 L23.8427848,7.94934926 L23.8427848,20.3603271 L31.9179077,20.3603271 Z M111.836962,20.3603271 L111.836962,7.94934926 L103.762989,20.3603271 L111.836962,20.3603271 Z" id="Combined-Shape" fill="#B4AFBA"></path>
                <g id="044-laboratory" transform="translate(92.000000, 0.000000)">
                    <polygon id="Path" fill="#C0BCC4" points="36.7355348 78.7414551 154.946899 78.7414551 154.946899 184.347534 36.7355348 184.347534"></polygon>
                    <path d="M46.0464477,103.335571 L27.4246215,103.335571 C26.2359617,103.335571 25.2716063,102.371216 25.2716063,101.182556 L25.2716063,86.9705199 L48.1994629,86.9705199 L48.1994629,101.182556 C48.1994629,102.371216 47.2351074,103.335571 46.0464477,103.335571 Z" id="Path" fill="#DAD7DD"></path>
                    <path d="M48.1994629,177.413941 L25.2716063,177.413941 L25.2716063,164.03656 C25.2716063,162.8479 26.2359617,161.883545 27.4246215,161.883545 L46.0464477,161.883545 C47.2351074,161.883545 48.1994629,162.8479 48.1994629,164.03656 L48.1994629,177.413941 Z" id="Path" fill="#DAD7DD"></path>
                    <polygon id="Path" fill="#ECEAEC" points="28.5232543 103.335571 44.9478148 103.335571 44.9478148 161.883545 28.5232543 161.883545"></polygon>
                    <path d="M161.154175,103.335571 L142.532348,103.335571 C141.343689,103.335571 140.379334,102.371216 140.379334,101.182556 L140.379334,86.9705199 L163.30719,86.9705199 L163.30719,101.182556 C163.30719,102.371216 162.342834,103.335571 161.154175,103.335571 L161.154175,103.335571 Z" id="Path" fill="#DAD7DD"></path>
                    <path d="M163.30719,177.413941 L140.379334,177.413941 L140.379334,164.03656 C140.379334,162.8479 141.343689,161.883545 142.532348,161.883545 L161.154175,161.883545 C162.342834,161.883545 163.30719,162.8479 163.30719,164.03656 L163.30719,177.413941 Z" id="Path" fill="#DAD7DD"></path>
                    <polygon id="Path" fill="#ECEAEC" points="143.630981 103.335571 160.055542 103.335571 160.055542 161.883545 143.630981 161.883545"></polygon>
                    <path d="M84.4161988,103.335571 L65.7943727,103.335571 C64.6057129,103.335571 63.6413574,102.371216 63.6413574,101.182556 L63.6413574,86.9705199 L86.5692141,86.9705199 L86.5692141,101.182556 C86.5692141,102.371216 85.6048586,103.335571 84.4161988,103.335571 Z" id="Path" fill="#DAD7DD"></path>
                    <path d="M86.5692141,177.413941 L63.6413574,177.413941 L63.6413574,164.03656 C63.6413574,162.8479 64.6057129,161.883545 65.7943727,161.883545 L84.4161988,161.883545 C85.6048586,161.883545 86.5692141,162.8479 86.5692141,164.03656 L86.5692141,177.413941 Z" id="Path" fill="#DAD7DD"></path>
                    <polygon id="Path" fill="#ECEAEC" points="66.8930055 103.335571 83.317566 103.335571 83.317566 161.883545 66.8930055 161.883545"></polygon>
                    <path d="M122.784424,103.335571 L104.162598,103.335571 C102.973938,103.335571 102.009582,102.371216 102.009582,101.182556 L102.009582,86.9705199 L124.937439,86.9705199 L124.937439,101.182556 C124.937439,102.371216 123.974609,103.335571 122.784424,103.335571 L122.784424,103.335571 Z" id="Path" fill="#DAD7DD"></path>
                    <path d="M124.937439,177.413941 L102.009582,177.413941 L102.009582,164.03656 C102.009582,162.8479 102.973938,161.883545 104.162598,161.883545 L122.784424,161.883545 C123.973084,161.883545 124.937439,162.8479 124.937439,164.03656 L124.937439,177.413941 Z" id="Path" fill="#DAD7DD"></path>
                    <polygon id="Path" fill="#ECEAEC" points="105.26123 103.335571 121.685791 103.335571 121.685791 161.883545 105.26123 161.883545"></polygon>
                    <path d="M168.1427,87.6098633 L20.4376219,87.6098633 C19.0719605,87.6098633 17.9641723,86.5036012 17.9641723,85.1379395 L17.9641723,70.5703734 C17.9641723,69.2047117 19.0719605,68.0969238 20.4376219,68.0969238 L168.1427,68.0969238 C169.508362,68.0969238 170.614624,69.2047117 170.614624,70.5703734 L170.614624,85.1379395 C170.614624,86.5036012 169.506836,87.6098633 168.1427,87.6098633 Z" id="Path" fill="#B4AFBA"></path>
                    <path d="M170.614624,196.92688 L17.9641723,196.92688 L17.9641723,179.88739 C17.9641723,178.521729 19.0719605,177.413941 20.4376219,177.413941 L168.1427,177.413941 C169.508362,177.413941 170.614624,178.521729 170.614624,179.88739 L170.614624,196.92688 Z" id="Path" fill="#B4AFBA"></path>
                    <path d="M26.1810305,68.1091309 C26.1810305,30.4931641 56.6741945,0 94.2901609,0 C131.904602,0 162.397766,30.4931641 162.397766,68.1091309" id="Path" fill="#DAD7DD"></path>
                    <path d="M45.8755492,68.1091309 C45.8755492,30.4931641 67.5506594,0 94.2901609,0 C121.028137,0 142.703247,30.4931641 142.703247,68.1091309" id="Path" fill="#ECEAEC"></path>
                    <path d="M65.1000977,68.1091309 C65.1000977,30.4931641 78.1692504,0 94.2901609,0 C110.409546,0 123.478699,30.4931641 123.478699,68.1091309" id="Path" fill="#DAD7DD"></path>
                    <path d="M84.9823,68.1091309 C84.9823,30.4931641 89.149475,0 94.2901609,0 C99.4293211,0 103.596496,30.4931641 103.596496,68.1091309" id="Path" fill="#ECEAEC"></path>
                    <path d="M185.507202,200 L3.07159414,200 C1.3748168,200 -2.84217094e-14,198.625183 -2.84217094e-14,196.928406 C-2.84217094e-14,195.230102 1.3748168,193.855286 3.07159414,193.855286 L185.507202,193.855286 C187.20398,193.855286 188.578796,195.230102 188.578796,196.928406 C188.578796,198.625183 187.20398,200 185.507202,200 Z" id="Path" fill="#4B3F4E"></path>
                </g>
                <path d="M131,197 L21,197 L21,188.205876 C21,185.330095 22.3296541,183 23.9707005,183 L128.0293,183 C129.669422,183 131,185.330095 131,188.205876 L131,197 Z" id="Path" fill="#C0BCC4"></path>
                <path d="M135.207306,200 L16.7926942,200 C15.8023378,200 15,198.656112 15,196.999221 C15,195.34233 15.8023378,194 16.7926942,194 L135.207306,194 C136.197662,194 137,195.343888 137,196.999221 C137,198.656112 136.197662,200 135.207306,200 Z" id="Path" fill="#4B3F4E"></path>
                <g id="pollution" transform="translate(243.000000, 10.000000)">
                    <path d="M118.235122,45 C117.842922,45 117.446413,44.9466669 117.052059,44.8314687 C114.80661,44.1850769 113.517955,41.8619072 114.168747,39.6390024 C115.448783,35.2806592 117.041284,30.9671148 118.898844,26.8178354 C120.715459,22.7624214 122.820837,18.7880727 125.156793,15.0057218 C126.374335,13.0302805 128.981814,12.4094889 130.972979,13.6148065 C132.968455,14.8222573 133.597698,17.3992906 132.378002,19.3747319 C130.233835,22.8456199 128.303007,26.4935729 126.637238,30.214058 C124.932679,34.0198754 123.471629,37.9792908 122.297186,41.9792391 C121.758451,43.8096151 120.068977,45 118.235122,45 Z" id="Path" fill="#CBCACC"></path>
                    <path d="M159,185 L110,185 L110,3.4962392 C110,0.675058249 112.522183,-0.98108345 114.36241,0.634664417 L157.81235,38.745054 C158.557254,39.3977312 159,40.4671013 159,41.6087546 L159,185 Z" id="Path" fill="#89E5FF"></path>
                    <path d="M63,186 L110,186 L110,64 L74.5141927,64 C68.1537694,64 63,69.1818545 63,75.5748022 L63,186 Z" id="Path" fill="#9898ED"></path>
                    <path d="M159,186 L206,186 L206,126.327623 C206,119.518201 200.525448,114 193.769888,114 L159,114 L159,186 Z" id="Path" fill="#857E87"></path>
                    <path d="M16,186 L63,186 L63,114 L26.545471,114 C20.7225187,114 16,118.75803 16,124.627409 L16,186 Z" id="Path" fill="#857E87"></path>
                    <polygon id="Path" fill="#59B8E2" points="110 51 159 51 159 66 110 66"></polygon>
                    <polygon id="Path" fill="#89E5FF" points="110 66 159 66 159 81 110 81"></polygon>
                    <polygon id="Path" fill="#59B8E2" points="110 81 159 81 159 96 110 96"></polygon>
                    <polygon id="Path" fill="#89E5FF" points="110 96 159 96 159 111 110 111"></polygon>
                    <polygon id="Path" fill="#59B8E2" points="110 111 159 111 159 126 110 126"></polygon>
                    <polygon id="Path" fill="#89E5FF" points="110 126 159 126 159 141 110 141"></polygon>
                    <polygon id="Path" fill="#59B8E2" points="110 141 159 141 159 156 110 156"></polygon>
                    <polygon id="Path" fill="#89E5FF" points="110 156 159 156 159 171 110 171"></polygon>
                    <polygon id="Path" fill="#59B8E2" points="110 171 159 171 159 186 110 186"></polygon>
                    <path d="M82,80.9989815 C82,83.20932 80.2077393,85 78,85 C75.7902242,85 74,83.20932 74,80.9989815 C74,78.79068 75.7902242,77 78,77 C80.2077393,77 82,78.79068 82,80.9989815 Z" id="Path" fill="#D2D2FF"></path>
                    <path d="M98,80.9989815 C98,83.20932 96.20932,85 93.9989815,85 C91.79068,85 90,83.20932 90,80.9989815 C90,78.79068 91.79068,77 93.9989815,77 C96.20932,77 98,78.79068 98,80.9989815 Z" id="Path" fill="#FFFFFF"></path>
                    <path d="M82,94.9989812 C82,97.2093204 80.2077393,99 78,99 C75.7902242,99 74,97.2093204 74,94.9989812 C74,92.7906796 75.7902242,91 78,91 C80.2077393,91 82,92.7906796 82,94.9989812 Z" id="Path" fill="#D2D2FF"></path>
                    <path d="M220.831565,182 L4.16843535,182 C1.86560842,182 0,183.792261 0,186 C0,188.209776 1.86560842,190 4.16843535,190 L220.831565,190 C223.134392,190 225,188.209776 225,186 C225,183.792261 223.134392,182 220.831565,182 Z" id="Path" fill="#4B3F4E"></path>
                    <path d="M98,94.9989812 C98,97.2093204 96.20932,99 93.9989815,99 C91.79068,99 90,97.2093204 90,94.9989812 C90,92.7906796 91.79068,91 93.9989815,91 C96.20932,91 98,92.7906796 98,94.9989812 Z" id="Path" fill="#D2D2FF"></path>
                    <path d="M98,109.998981 C98,112.20932 96.20932,114 93.9989815,114 C91.79068,114 90,112.20932 90,109.998981 C90,107.79068 91.79068,106 93.9989815,106 C96.20932,106 98,107.79068 98,109.998981 Z" id="Path" fill="#FFFFFF"></path>
                    <path d="M82,124.998981 C82,127.20932 80.2077393,129 78,129 C75.7902242,129 74,127.20932 74,124.998981 C74,122.79068 75.7902242,121 78,121 C80.2077393,121 82,122.79068 82,124.998981 Z" id="Path" fill="#D2D2FF"></path>
                    <path d="M98,124.998981 C98,127.20932 96.20932,129 93.9989815,129 C91.79068,129 90,127.20932 90,124.998981 C90,122.79068 91.79068,121 93.9989815,121 C96.20932,121 98,122.79068 98,124.998981 Z" id="Path" fill="#D2D2FF"></path>
                    <path d="M179,151.000001 C179,153.207739 177.209776,155 175,155 C172.792261,155 171,153.207739 171,151.000001 C171,148.790224 172.792261,147 175,147 C177.209776,147 179,148.790224 179,151.000001 Z" id="Path" fill="#CCCCCC"></path>
                    <path d="M194,151.000001 C194,153.207739 192.20932,155 190.001019,155 C187.79068,155 186,153.207739 186,151.000001 C186,148.790224 187.79068,147 190.001019,147 C192.20932,147 194,148.790224 194,151.000001 Z" id="Path" fill="#CCCCCC"></path>
                    <path d="M82,139.998981 C82,142.20932 80.2077393,144 78,144 C75.7902242,144 74,142.20932 74,139.998981 C74,137.79068 75.7902242,136 78,136 C80.2077393,136 82,137.79068 82,139.998981 Z" id="Path" fill="#FFFFFF"></path>
                    <path d="M82,154.001018 C82,156.20932 80.2077393,158 78,158 C75.7902242,158 74,156.20932 74,154.001018 C74,151.79068 75.7902242,150 78,150 C80.2077393,150 82,151.79068 82,154.001018 Z" id="Path" fill="#D2D2FF"></path>
                    <path d="M98,154.001018 C98,156.20932 96.20932,158 93.9989815,158 C91.79068,158 90,156.20932 90,154.001018 C90,151.79068 91.79068,150 93.9989815,150 C96.20932,150 98,151.79068 98,154.001018 Z" id="Path" fill="#D2D2FF"></path>
                    <path d="M82,169.001019 C82,171.20932 80.2077393,173 78,173 C75.7902242,173 74,171.20932 74,169.001019 C74,166.79068 75.7902242,165 78,165 C80.2077393,165 82,166.79068 82,169.001019 Z" id="Path" fill="#FFFFFF"></path>
                    <path d="M98,169.001019 C98,171.20932 96.20932,173 93.9989815,173 C91.79068,173 90,171.20932 90,169.001019 C90,166.79068 91.79068,165 93.9989815,165 C96.20932,165 98,166.79068 98,169.001019 Z" id="Path" fill="#D2D2FF"></path>
                    <path d="M46.7944326,128 L30.205568,128 C27.8843683,128 26,129.79068 26,132.001019 C26,134.20932 27.8822271,136 30.205568,136 L46.7944326,136 C49.1156317,136 51,134.20932 51,132.001019 C51,129.79068 49.1156317,128 46.7944326,128 Z" id="Path" fill="#CCCCCC"></path>
                    <path d="M174.205567,136 L190.794433,136 C193.115632,136 195,134.20932 195,131.998981 C195,129.79068 193.115632,128 190.794433,128 L174.205567,128 C171.884368,128 170,129.79068 170,131.998981 C170,134.20932 171.882227,136 174.205567,136 L174.205567,136 Z" id="Path" fill="#CCCCCC"></path>
                    <path d="M190.794433,163 L174.205567,163 C171.884368,163 170,164.792261 170,167.000001 C170,169.209776 171.882227,171 174.205567,171 L190.794433,171 C193.115632,171 195,169.209776 195,167.000001 C195,164.792261 193.115632,163 190.794433,163 Z" id="Path" fill="#CCCCCC"></path>
                    <path d="M46.7944326,146 L30.205568,146 C27.8843683,146 26,147.790224 26,150 C26,152.209776 27.8822271,154 30.205568,154 L46.7944326,154 C49.1156317,154 51,152.209776 51,150 C51,147.790224 49.1156317,146 46.7944326,146 Z" id="Path" fill="#CCCCCC"></path>
                    <path d="M46.7944326,163 L30.205568,163 C27.8843683,163 26,164.792261 26,167.000001 C26,169.209776 27.8822271,171 30.205568,171 L46.7944326,171 C49.1156317,171 51,169.209776 51,167.000001 C51,164.792261 49.1156317,163 46.7944326,163 Z" id="Path" fill="#CCCCCC"></path>
                </g>
            </g>
        </g>
    </g>
</svg>