<?xml version="1.0" encoding="UTF-8"?>
<svg width="35px" height="20px" viewBox="0 0 35 20" version="1.1" xmlns="http://www.w3.org/2000/svg" xmlns:xlink="http://www.w3.org/1999/xlink">
    <!-- Generator: sketchtool 53 (72520) - https://sketchapp.com -->
    <title>F0EA32A8-6E91-4D63-8070-59B0D973E0E9</title>
    <desc>Created with sketchtool.</desc>
    <g id="Desktop" stroke="none" stroke-width="1" fill="none" fill-rule="evenodd">
        <g id="Blog-/-read-more" transform="translate(-1308.000000, -86.000000)">
            <g id="Group-3" transform="translate(1308.000000, 86.000000)">
                <rect id="Rectangle" fill="#FFFFFF" x="0" y="0" width="34" height="20" rx="2"></rect>
                <path d="M2,0 L12,0 L12,20 L2,20 C0.8954305,20 1.3527075e-16,19.1045695 0,18 L0,2 C-1.3527075e-16,0.8954305 0.8954305,2.02906125e-16 2,0 Z" id="Rectangle" fill="#0CA671"></path>
                <path d="M25,0 L35,0 L35,20 L25,20 C23.8954305,20 23,19.1045695 23,18 L23,2 C23,0.8954305 23.8954305,2.02906125e-16 25,0 Z" id="Rectangle" fill="#0CA671" transform="translate(29.000000, 10.000000) scale(-1, 1) translate(-29.000000, -10.000000) "></path>
            </g>
        </g>
    </g>
</svg>