<svg xmlns="http://www.w3.org/2000/svg" width="500" height="175" viewBox="0 0 500 175" fill="none">
<mask id="mask0" mask-type="alpha" maskUnits="userSpaceOnUse" x="-1" y="0" width="502" height="177">
<path d="M-1 177L501 106.72V10.296C501 4.77316 496.523 0.296005 491 0.296005H9C3.47715 0.296005 -1 4.77316 -1 10.296V177Z" fill="white"/>
</mask>
<g mask="url(#mask0)">
<path d="M-1 0.295898L501 70.5759V167C501 172.523 496.523 177 491 177H9C3.47715 177 -1 172.523 -1 167V0.295898Z" fill="#2EB899"/>
<path fill-rule="evenodd" clip-rule="evenodd" d="M-1 0.295889L566.26 -1.10254V167C566.26 172.523 561.783 177 556.26 177H9C3.47715 177 -1 172.523 -1 167L-1 0.295889Z" fill="#0E2440"/>
<path d="M201.593 95.9629H161.074V55.4443H201.593V95.9629Z" fill="#193455"/>
<path opacity="0.6" fill-rule="evenodd" clip-rule="evenodd" d="M404.185 95.9629V177H485.223L404.185 95.9629Z" fill="#193659"/>
<path opacity="0.398298" d="M242.111 95.9629H201.593V55.4443H242.111V95.9629Z" fill="#183659"/>
<path opacity="0.646601" d="M404.186 95.9629H363.667V55.4443H404.186V95.9629Z" fill="#24456C"/>
<path opacity="0.609119" fill-rule="evenodd" clip-rule="evenodd" d="M485.223 95.9629V177H566.26L485.223 95.9629Z" fill="#0B355E"/>
<path d="M242.111 55.4443H161.074V14.9258H242.111V55.4443Z" fill="#284567"/>
<path d="M485.223 55.4443H404.186V14.9258H485.223V55.4443Z" fill="#1B465A"/>
<path opacity="0.522228" fill-rule="evenodd" clip-rule="evenodd" d="M323.148 95.9629L404.186 14.9258H323.148V95.9629Z" fill="#1F3957"/>
<path opacity="0.305246" fill-rule="evenodd" clip-rule="evenodd" d="M242.111 177L323.148 95.9629H242.111V177Z" fill="#346193"/>
<path fill-rule="evenodd" clip-rule="evenodd" d="M-1 14.9258L80.0371 95.9629H-1V14.9258Z" fill="#284567"/>
<path opacity="0.384882" fill-rule="evenodd" clip-rule="evenodd" d="M323.148 177L404.186 95.9629H323.148V177Z" fill="#193659"/>
<path fill-rule="evenodd" clip-rule="evenodd" d="M161.074 95.9629V177C205.83 177 242.111 140.718 242.111 95.9629C242.111 95.9629 205.83 95.9629 161.074 95.9629ZM161.074 95.9629V136.481C183.452 136.481 201.593 118.341 201.593 95.9629C201.593 95.9629 183.452 95.9629 161.074 95.9629Z" fill="#24456C"/>
<path opacity="0.494117" fill-rule="evenodd" clip-rule="evenodd" d="M162.231 95.9629C117.476 95.9629 81.1943 95.9629 81.1943 95.9629C81.1943 140.718 117.476 177 162.231 177V95.9629ZM162.231 95.9629V136.481C139.854 136.481 121.713 118.341 121.713 95.9629C121.713 95.9629 139.854 95.9629 162.231 95.9629Z" fill="#24456C"/>
<path opacity="0.422061" fill-rule="evenodd" clip-rule="evenodd" d="M-1.00003 177C43.7555 177 80.0371 177 80.0371 177C80.0371 132.244 43.7555 95.9629 -1.00003 95.9629V177ZM-1.00003 177V136.481C21.3778 136.481 39.5185 154.622 39.5185 177C39.5185 177 21.3778 177 -1.00003 177Z" fill="#084E89"/>
<path d="M120.556 14.9258C142.933 14.9258 161.074 33.0665 161.074 55.4443C161.074 77.8221 142.933 95.9629 120.556 95.9629C98.1779 95.9629 80.0371 77.8221 80.0371 55.4443C80.0371 33.0665 98.1779 14.9258 120.556 14.9258Z" fill="#24456C"/>
<path d="M119.977 40.3941C127.969 40.3941 134.448 46.873 134.448 54.865C134.448 62.8571 127.969 69.3359 119.977 69.3359C111.985 69.3359 105.506 62.8571 105.506 54.865C105.506 46.873 111.985 40.3941 119.977 40.3941Z" fill="#0E2440"/>
<path d="M302.889 136.481C314.078 136.481 323.148 145.552 323.148 156.741C323.148 167.93 314.078 177 302.889 177C291.7 177 282.63 167.93 282.63 156.741C282.63 145.552 291.7 136.481 302.889 136.481Z" fill="#2D496D"/>
<path d="M59.7778 14.9258C70.9667 14.9258 80.0371 23.9962 80.0371 35.1851C80.0371 46.3739 70.9667 55.4443 59.7778 55.4443C48.5889 55.4443 39.5186 46.3739 39.5186 35.1851C39.5186 23.9962 48.5889 14.9258 59.7778 14.9258Z" fill="#0B355E"/>
<path opacity="0.522228" fill-rule="evenodd" clip-rule="evenodd" d="M465.542 55.4443C465.542 55.4443 465.542 64.5147 465.542 75.7036C465.542 86.8925 465.542 95.9629 465.542 95.9629C476.731 95.9629 485.802 86.8925 485.802 75.7036C485.802 64.5147 476.731 55.4443 465.542 55.4443Z" fill="#1F3957"/>
<path opacity="0.522228" fill-rule="evenodd" clip-rule="evenodd" d="M424.445 55.4443C424.445 55.4443 424.445 64.5147 424.445 75.7036C424.445 86.8925 424.445 95.9629 424.445 95.9629C413.256 95.9629 404.186 86.8925 404.186 75.7036C404.186 64.5147 413.256 55.4443 424.445 55.4443Z" fill="#1F3957"/>
<path d="M445.283 55.4443C456.472 55.4443 465.542 64.5147 465.542 75.7036C465.542 86.8925 456.472 95.9629 445.283 95.9629C434.094 95.9629 425.023 86.8925 425.023 75.7036C425.023 64.5147 434.094 55.4443 445.283 55.4443Z" fill="#24456C"/>
<path d="M282.63 14.9258C305.008 14.9258 323.148 33.0665 323.148 55.4443C323.148 77.8221 305.008 95.9629 282.63 95.9629C260.252 95.9629 242.111 77.8221 242.111 55.4443C242.111 33.0665 260.252 14.9258 282.63 14.9258Z" fill="#24456C"/>
<path d="M525.741 14.9258C548.119 14.9258 566.26 33.0665 566.26 55.4443C566.26 77.8221 548.119 95.9629 525.741 95.9629C503.363 95.9629 485.223 77.8221 485.223 55.4443C485.223 33.0665 503.363 14.9258 525.741 14.9258Z" fill="#0B355E"/>
</g></svg>