<?xml version="1.0" encoding="UTF-8"?>
<svg width="500px" height="175px" viewBox="0 0 500 175" version="1.1" xmlns="http://www.w3.org/2000/svg" xmlns:xlink="http://www.w3.org/1999/xlink">
    <!-- Generator: sketchtool 53 (72520) - https://sketchapp.com -->
    <title>8D258CCC-D11F-48F5-8810-132A29FB5371</title>
    <desc>Created with sketchtool.</desc>
    <defs>
        <path d="M0,0 L502,70.28 L502,166.704 C502,172.226847 497.522847,176.704 492,176.704 L10,176.704 C4.4771525,176.704 6.76353751e-16,172.226847 0,166.704 L0,0 Z" id="path-1"></path>
    </defs>
    <g id="Desktop" stroke="none" stroke-width="1" fill="none" fill-rule="evenodd">
        <g id="Landing-page" transform="translate(-89.000000, -936.000000)">
            <g id="Group-11" transform="translate(89.000000, 936.000000)">
                <g transform="translate(-1.000000, -2.000000)">
                    <mask id="mask-2" fill="white">
                        <use xlink:href="#path-1"></use>
                    </mask>
                    <use id="Mask" fill="#2EB899" transform="translate(251.000000, 88.352000) scale(1, -1) translate(-251.000000, -88.352000) " xlink:href="#path-1"></use>
                    <g id="Group-28" mask="url(#mask-2)">
                        <g transform="translate(0.000000, 0.000000)">
                            <path d="M4.81534812e-14,1.39842857 L567.26,9.9475983e-14 L567.26,168.102429 C567.26,173.625276 562.782847,178.102429 557.26,178.102429 L10,178.102429 C4.4771525,178.102429 6.76353751e-16,173.625276 0,168.102429 L4.81534812e-14,1.39842857 Z" id="Mask-Copy" fill="#0E2440" transform="translate(283.630000, 89.051214) scale(1, -1) translate(-283.630000, -89.051214) "></path>
                            <g id="Group-7" stroke-width="1" fill="none" transform="translate(0.000000, 0.000000)">
                                <rect id="Rectangle" fill="#193455" x="162.074286" y="81.0371429" width="40.5185714" height="40.5185714"></rect>
                                <polygon id="Rectangle-Copy-8" fill="#193659" opacity="0.6" transform="translate(445.704286, 40.518571) scale(-1, -1) translate(-445.704286, -40.518571) " points="486.222857 3.55271368e-14 486.222857 81.0371429 405.185714 81.0371429"></polygon>
                                <rect id="Rectangle-Copy-6" fill="#183659" opacity="0.398297991" x="202.592857" y="81.0371429" width="40.5185714" height="40.5185714"></rect>
                                <rect id="Rectangle-Copy-6" fill="#24456C" opacity="0.646600632" x="364.667143" y="81.0371429" width="40.5185714" height="40.5185714"></rect>
                                <polygon id="Rectangle-Copy-9" fill="#0B355E" opacity="0.609119234" transform="translate(526.741429, 40.518571) scale(-1, -1) translate(-526.741429, -40.518571) " points="567.26 3.55271368e-14 567.26 81.0371429 486.222857 81.0371429"></polygon>
                                <rect id="Rectangle-Copy-3" fill="#284567" x="162.074286" y="121.555714" width="81.0371429" height="40.5185714"></rect>
                                <rect id="Rectangle-Copy-11" fill="#1B465A" x="405.185714" y="121.555714" width="81.0371429" height="40.5185714"></rect>
                                <polygon id="Rectangle" fill="#1F3957" opacity="0.522228423" points="324.148571 81.0371429 405.185714 162.074286 324.148571 162.074286"></polygon>
                                <polygon id="Rectangle-Copy-4" fill="#346193" opacity="0.305245536" points="243.111429 3.55271368e-14 324.148571 81.0371429 243.111429 81.0371429"></polygon>
                                <polygon id="Rectangle-Copy-7" fill="#284567" transform="translate(40.518571, 121.555714) scale(1, -1) translate(-40.518571, -121.555714) " points="7.10542736e-15 81.0371429 81.0371429 162.074286 7.10542736e-15 162.074286"></polygon>
                                <polygon id="Rectangle-Copy-5" fill="#193659" opacity="0.384881882" points="324.148571 3.55271368e-14 405.185714 81.0371429 324.148571 81.0371429"></polygon>
                                <path d="M243.111429,81.0371429 C243.111429,81.0371429 243.111429,-1.13686838e-13 243.111429,-1.13686838e-13 C198.35585,-1.13686838e-13 162.074286,36.2815647 162.074286,81.0371429 C162.074286,81.0371429 198.35585,81.0371429 243.111429,81.0371429 Z M243.111429,81.0371429 C243.111429,81.0371429 243.111429,40.5185714 243.111429,40.5185714 C220.733639,40.5185714 202.592857,58.6593538 202.592857,81.0371429 C202.592857,81.0371429 220.733639,81.0371429 243.111429,81.0371429 Z" id="Combined-Shape" fill="#24456C" transform="translate(202.592857, 40.518571) scale(-1, 1) translate(-202.592857, -40.518571) "></path>
                                <path d="M163.231959,81.0371429 C118.476381,81.0371429 82.1948163,81.0371429 82.1948163,81.0371429 C82.1948163,36.2815647 118.476381,3.55271368e-14 163.231959,3.55271368e-14 C163.231959,3.55271368e-14 163.231959,81.0371429 163.231959,81.0371429 Z M163.231959,81.0371429 C163.231959,81.0371429 163.231959,40.5185714 163.231959,40.5185714 C140.85417,40.5185714 122.713388,58.6593538 122.713388,81.0371429 C122.713388,81.0371429 140.85417,81.0371429 163.231959,81.0371429 Z" id="Combined-Shape-Copy" fill="#24456C" opacity="0.494117374"></path>
                                <path d="M81.0371429,81.0371429 C36.2815647,81.0371429 7.10542736e-15,81.0371429 7.10542736e-15,81.0371429 C7.10542736e-15,36.2815647 36.2815647,3.55271368e-14 81.0371429,3.55271368e-14 C81.0371429,3.55271368e-14 81.0371429,81.0371429 81.0371429,81.0371429 Z M81.0371429,81.0371429 C81.0371429,81.0371429 81.0371429,40.5185714 81.0371429,40.5185714 C58.6593538,40.5185714 40.5185714,58.6593538 40.5185714,81.0371429 C40.5185714,81.0371429 58.6593538,81.0371429 81.0371429,81.0371429 Z" id="Combined-Shape-Copy" fill="#084E89" opacity="0.422061012" transform="translate(40.518571, 40.518571) scale(-1, -1) translate(-40.518571, -40.518571) "></path>
                                <circle id="Oval-Copy" fill="#24456C" cx="121.555714" cy="121.555714" r="40.5185714"></circle>
                                <circle id="Oval-Copy" fill="#0E2440" cx="120.976878" cy="122.134551" r="14.4709184"></circle>
                                <circle id="Oval-Copy-3" fill="#2D496D" cx="303.889286" cy="20.2592857" r="20.2592857"></circle>
                                <circle id="Oval-Copy-6" fill="#0B355E" cx="60.7778571" cy="141.815" r="20.2592857"></circle>
                                <path d="M486.801694,121.555714 C486.801694,121.555714 486.801694,112.485323 486.801694,101.296429 C486.801694,90.107534 486.801694,81.0371429 486.801694,81.0371429 C475.612799,81.0371429 466.542408,90.107534 466.542408,101.296429 C466.542408,112.485323 475.612799,121.555714 486.801694,121.555714 Z" id="Oval-Copy-7" fill="#1F3957" opacity="0.522228423" transform="translate(476.672051, 101.296429) scale(-1, 1) translate(-476.672051, -101.296429) "></path>
                                <path d="M425.445,121.555714 C425.445,121.555714 425.445,112.485323 425.445,101.296429 C425.445,90.107534 425.445,81.0371429 425.445,81.0371429 C414.256105,81.0371429 405.185714,90.107534 405.185714,101.296429 C405.185714,112.485323 414.256105,121.555714 425.445,121.555714 Z" id="Oval-Copy-9" fill="#1F3957" opacity="0.522228423"></path>
                                <circle id="Oval-Copy-8" fill="#24456C" cx="446.283122" cy="101.296429" r="20.2592857"></circle>
                                <circle id="Oval-Copy-2" fill="#24456C" cx="283.63" cy="121.555714" r="40.5185714"></circle>
                                <circle id="Oval-Copy-6" fill="#0B355E" cx="526.741429" cy="121.555714" r="40.5185714"></circle>
                            </g>
                        </g>
                    </g>
                </g>
            </g>
        </g>
    </g>
</svg>