<svg width="500" height="175" viewBox="0 0 500 175" xmlns="http://www.w3.org/2000/svg" xmlns:xlink="http://www.w3.org/1999/xlink"><title>8D258CCC-D11F-48F5-8810-132A29FB5371</title><defs><path d="M0 0l502 70.28v96.424c0 5.523-4.477 10-10 10H10c-5.523 0-10-4.477-10-10V0z" id="a"/></defs><g transform="translate(-1 -2)" fill="none" fill-rule="evenodd"><mask id="b" fill="#fff"><use xlink:href="#a"/></mask><use fill="#2EB899" transform="matrix(1 0 0 -1 0 176.704)" xlink:href="#a"/><g mask="url(#b)"><path d="M0 176.704l567.26 1.398V10c0-5.523-4.477-10-10-10H10C4.477 0 0 4.477 0 10v166.704z" fill="#0E2440"/><path fill="#193455" d="M162.074 81.037h40.519v40.519h-40.519z"/><path fill="#193659" opacity=".6" d="M405.186 81.037V0h81.037z"/><path fill="#183659" opacity=".398" d="M202.593 81.037h40.519v40.519h-40.519z"/><path fill="#24456C" opacity=".647" d="M364.667 81.037h40.519v40.519h-40.519z"/><path fill="#0B355E" opacity=".609" d="M486.223 81.037V0h81.037z"/><path fill="#284567" d="M162.074 121.556h81.037v40.519h-81.037z"/><path fill="#1B465A" d="M405.186 121.556h81.037v40.519h-81.037z"/><path fill="#1F3957" opacity=".522" d="M324.149 81.037l81.037 81.037h-81.037z"/><path fill="#346193" opacity=".305" d="M243.111 0l81.038 81.037H243.11z"/><path fill="#284567" d="M0 162.074l81.037-81.037H0z"/><path fill="#193659" opacity=".385" d="M324.149 0l81.037 81.037h-81.037z"/><path d="M162.074 81.037V0c44.756 0 81.037 36.282 81.037 81.037h-81.037zm0 0V40.52c22.378 0 40.519 18.14 40.519 40.518h-40.519z" fill="#24456C"/><path d="M163.232 81.037H82.195C82.195 36.282 118.476 0 163.232 0v81.037zm0 0V40.52c-22.378 0-40.519 18.14-40.519 40.518h40.519z" fill="#24456C" opacity=".494"/><path d="M0 0h81.037c0 44.756-36.281 81.037-81.037 81.037V0zm0 0v40.519c22.378 0 40.519-18.141 40.519-40.519H0z" fill="#084E89" opacity=".422"/><circle fill="#24456C" cx="121.556" cy="121.556" r="40.519"/><circle fill="#0E2440" cx="120.977" cy="122.135" r="14.471"/><circle fill="#2D496D" cx="303.889" cy="20.259" r="20.259"/><circle fill="#0B355E" cx="60.778" cy="141.815" r="20.259"/><path d="M466.542 121.556V81.037c11.19 0 20.26 9.07 20.26 20.26 0 11.188-9.07 20.259-20.26 20.259zm-41.097 0V81.037c-11.189 0-20.26 9.07-20.26 20.26 0 11.188 9.071 20.259 20.26 20.259z" fill="#1F3957" opacity=".522"/><circle fill="#24456C" cx="446.283" cy="101.296" r="20.259"/><circle fill="#24456C" cx="283.63" cy="121.556" r="40.519"/><circle fill="#0B355E" cx="526.741" cy="121.556" r="40.519"/></g></g></svg>