<svg width="101" height="100" viewBox="0 0 101 100" xmlns="http://www.w3.org/2000/svg"><title>0134AE9B-3B04-4F6A-8F32-EB67CE2336B8</title><g fill="none"><path d="M100.195 49.957c.023 27.624-22.355 50.027-49.97 50.043C22.785 100.016.577 78.138.2 50.7a49.916 49.916 0 0 1 3.317-18.649c.186-.48.644-.801 1.16-.801a3.332 3.332 0 0 0 3.33-3.332v-4.372c0-.257.073-.507.213-.722C17.068 9.184 32.384.128 49.825.002c27.83-.203 50.347 22.125 50.37 49.955z" fill="#243340"/><path d="M91.016 70.853v8.027c-.418.59-.85 1.168-1.293 1.739H52.35c-2.872 0-5.689-.988-7.93-2.782l-8.317-6.652-2.553 3.914a12.654 12.654 0 0 1-10.634 5.76H10.852a49.99 49.99 0 0 1-5.998-9.765h19.039c.99 0 1.913-.5 2.454-1.33l2.736-4.195-9.68-7.746a2.928 2.928 0 0 0-1.831-.641H.712a50.319 50.319 0 0 1-.451-9.766h17.311c2.872 0 5.688.988 7.93 2.782l8.94 7.152 6.12-9.382-14.234-11.389a2.933 2.933 0 0 0-1.83-.642H2.202a49.888 49.888 0 0 1 1.352-3.987 9.035 9.035 0 0 1 8.426-5.778h11.54c2.872 0 5.688.988 7.93 2.782l14.136 11.309 5.433-8.33a12.653 12.653 0 0 1 10.634-5.761h18.74c.401.74.784 1.491 1.149 2.253v7.512H60.677c-.99 0-1.913.5-2.453 1.33l-5.617 8.612 3.861 3.089c.52.415 1.166.641 1.83.641h27.73v9.766H59.275c-2.882 0-5.68-.981-7.93-2.782l-3.763-3.01-6.12 9.383 9.058 7.246a2.942 2.942 0 0 0 1.83.641h38.666z" fill="#19242E"/><path d="M99.91 72.999l-9.038 7.44a.781.781 0 0 1-1.277-.603v-2.492H53.717c-2.872 0-5.688-.988-7.93-2.782L20.77 54.548a2.942 2.942 0 0 0-1.83-.642H.345a50.53 50.53 0 0 1 .193-9.765h18.4c2.872 0 5.689.988 7.931 2.781l25.017 20.014a2.942 2.942 0 0 0 1.83.642h35.878v-2.622a.78.78 0 0 1 1.277-.604l9.039 7.44a.783.783 0 0 1 0 1.207z" fill="#0091FF"/><path fill="#19242E" opacity=".097" d="M43.336 60.095l-5.36 8.219-7.02-5.616 5.36-8.219z"/><path d="M91.042 28.338l-9.037 7.44a.781.781 0 0 1-1.278-.603v-2.753H58.334c-.995 0-1.912.497-2.454 1.33L31.207 71.584a12.654 12.654 0 0 1-10.634 5.76H8.333a49.818 49.818 0 0 1-4.957-9.766h17.197c.994 0 1.91-.497 2.453-1.33L47.7 28.416a12.653 12.653 0 0 1 10.634-5.76h22.393v-2.362a.781.781 0 0 1 1.278-.603l9.037 7.44c.38.313.38.894 0 1.207z" fill="#FFF"/><path fill="#9DD5FF" opacity=".397" d="M42.225 36.811l7.662 6.129-5.36 8.218-7.662-6.13z"/><path d="M95.614 51.775l-9.039 7.44a.78.78 0 0 1-1.277-.603V55.86h-24.55c-2.871 0-5.688-.988-7.93-2.781L27.8 33.064a2.942 2.942 0 0 0-1.83-.642H3.375a49.818 49.818 0 0 1 4.956-9.766H25.97c2.872 0 5.689.988 7.931 2.782l25.017 20.014a2.942 2.942 0 0 0 1.83.642h24.55v-2.362a.781.781 0 0 1 1.277-.604l9.039 7.44a.783.783 0 0 1 0 1.207z" fill="#9DD5FF"/></g></svg>