<?xml version="1.0" encoding="UTF-8"?>
<svg width="101px" height="100px" viewBox="0 0 101 100" version="1.1" xmlns="http://www.w3.org/2000/svg" xmlns:xlink="http://www.w3.org/1999/xlink">
    <!-- Generator: sketchtool 53 (72520) - https://sketchapp.com -->
    <title>0134AE9B-3B04-4F6A-8F32-EB67CE2336B8</title>
    <desc>Created with sketchtool.</desc>
    <g id="Desktop" stroke="none" stroke-width="1" fill="none" fill-rule="evenodd">
        <g id="Landing-page" transform="translate(-988.000000, -4243.000000)" fill-rule="nonzero">
            <g id="Group-15" transform="translate(162.000000, 4023.000000)">
                <g id="Group-19" transform="translate(780.000000, 0.000000)">
                    <g id="process-(1)-2" transform="translate(46.000000, 220.000000)">
                        <g id="process-(1)">
                            <path d="M100.195313,49.9572754 C100.218201,77.5810242 77.8396605,99.9839783 50.2250672,100 C22.7844238,100.016022 0.576782227,78.1379699 0.199890137,50.7003785 C0.109863281,44.1200256 1.2947082,37.8280641 3.51715078,32.0510863 C3.70254512,31.5704346 4.16107187,31.25 4.67605586,31.25 C6.51626582,31.25 8.0078125,29.7584533 8.0078125,27.9182434 L8.0078125,23.5458375 C8.0078125,23.2894898 8.0802918,23.0392457 8.21990977,22.8240967 C17.0684814,9.18426523 32.384491,0.128173828 49.8252869,0.00152587891 C77.6542664,-0.200653125 100.171661,22.1267699 100.195313,49.9572754 L100.195313,49.9572754 Z" id="Path" fill="#243340"></path>
                            <path d="M91.015625,70.853424 L91.015625,78.8795471 C90.5975342,79.4692992 90.1657105,80.0483703 89.7232055,80.619049 L52.3498535,80.619049 C49.4781494,80.619049 46.661377,79.6310426 44.4190979,77.8373719 L36.1030578,71.1845398 L33.5502625,75.099182 C31.1973572,78.7063598 27.2224426,80.859375 22.9164123,80.859375 L10.8520508,80.859375 C8.49761953,77.8617859 6.4811707,74.5864867 4.8538207,71.09375 L23.8929748,71.09375 C24.8825074,71.09375 25.806427,70.5940246 26.3465881,69.7639465 L29.083252,65.5685426 L19.4023133,57.8231812 C18.8827516,57.4073791 18.2373047,57.181549 17.5720215,57.181549 L0.71105957,57.181549 C0.373077344,54.8362732 0.1953125,52.4391174 0.1953125,50 C0.1953125,49.1333008 0.217437695,48.2719422 0.260925391,47.415924 L17.5720215,47.415924 C20.4437256,47.415924 23.260498,48.4039307 25.5027771,50.1976014 L34.4429016,57.3501586 L40.5624391,47.9675293 L26.3275146,36.579132 C25.8079529,36.164093 25.1625061,35.9375 24.4972229,35.9375 L2.20336914,35.9375 C2.59933477,34.5840453 3.05099492,33.2534789 3.55529785,31.9496154 C4.90188594,28.4683227 8.24890137,26.171875 11.9812012,26.171875 L23.5206604,26.171875 C26.3931273,26.171875 29.2091369,27.1598816 31.451416,28.9535523 L45.5871582,40.2626037 L51.02005,31.932068 C53.3721924,28.3248902 57.3478699,26.171875 61.6539002,26.171875 L80.393982,26.171875 C80.7952881,26.9119262 81.1782836,27.6634217 81.5429688,28.4248352 L81.5429688,35.9375 L60.6773377,35.9375 C59.6870422,35.9375 58.7638855,36.4372254 58.2237244,37.2665406 L52.6069641,45.8786012 L56.4682008,48.967743 C56.9877625,49.382782 57.6339723,49.609375 58.2984924,49.609375 L86.027527,49.609375 L86.027527,59.375 L59.2750549,59.375 C56.3926697,59.375 53.5957336,58.3938598 51.3450623,56.5933227 L47.5822449,53.5835266 L41.4627074,62.9661561 L50.5195617,70.211792 C51.0368348,70.6253051 51.6868592,70.853424 52.3498535,70.853424 L91.015625,70.853424 Z" id="Path" fill="#19242E"></path>
                            <path d="M99.9107361,72.9988098 L90.8721924,80.4397582 C90.3625488,80.8586121 89.5950316,80.4962158 89.5950316,79.8362732 L89.5950316,77.34375 L53.717041,77.34375 C50.8453369,77.34375 48.0285645,76.3557434 45.7862854,74.5620727 L20.7695008,54.547882 C20.2522277,54.1343689 19.6022033,53.90625 18.939209,53.90625 L0.346374609,53.90625 C0.246429492,52.6168824 0.1953125,51.3145447 0.1953125,50 C0.1953125,48.0171203 0.314331055,46.0632324 0.538635156,44.140625 L18.939209,44.140625 C21.8109131,44.140625 24.6276855,45.1286316 26.8699646,46.9223023 L51.8867492,66.936493 C52.4040223,67.3500061 53.0540467,67.578125 53.717041,67.578125 L89.5950316,67.578125 L89.5950316,64.9559021 C89.5950316,64.2951965 90.3625488,63.9328004 90.8721924,64.352417 L99.9107361,71.7926025 C100.289917,72.1054078 100.289917,72.6867676 99.9107361,72.9988098 L99.9107361,72.9988098 Z" id="Path" fill="#0091FF"></path>
                            <polygon id="Path" fill="#19242E" opacity="0.0966331845" points="43.3357238 60.0952148 37.9753113 68.3135986 30.9555055 62.6976014 36.3151551 54.4792176"></polygon>
                            <path d="M91.0423279,28.3378602 L82.0045471,35.7780457 C81.4949035,36.1976623 80.7266234,35.835266 80.7266234,35.1745605 L80.7266234,32.421875 L58.3335877,32.421875 C57.3394775,32.421875 56.4224242,32.9185486 55.8799744,33.7516785 L31.2065125,71.583557 C28.8536072,75.1907348 24.8786926,77.34375 20.5726623,77.34375 L8.33206172,77.34375 C6.34155273,74.3026734 4.6730041,71.0311891 3.37600703,67.578125 L20.5726623,67.578125 C21.5667725,67.578125 22.4838258,67.0814514 23.0262756,66.2483215 L47.6997375,28.416443 C50.0518799,24.8092652 54.0275574,22.65625 58.3335877,22.65625 L80.7266234,22.65625 L80.7266234,20.2941895 C80.7266234,19.633484 81.4949035,19.2710877 82.0045471,19.6907043 L91.0423279,27.1308898 C91.4222717,27.4436951 91.4222717,28.0250549 91.0423279,28.3378602 Z" id="Path" fill="#FFFFFF"></path>
                            <polygon id="Path" fill="#9DD5FF" opacity="0.39718192" points="42.224884 36.8110656 49.887085 42.9397582 44.5266723 51.1581422 36.8652344 45.0286865"></polygon>
                            <path d="M95.6138611,51.7753602 L86.5753174,59.2155457 C86.0656738,59.6351623 85.2981566,59.272766 85.2981566,58.6120605 L85.2981566,55.859375 L60.748291,55.859375 C57.8765869,55.859375 55.0598145,54.8713684 52.8175354,53.0776977 L27.8007508,33.063507 C27.2834777,32.6499939 26.6334533,32.421875 25.970459,32.421875 L3.37600703,32.421875 C4.6730041,28.9688109 6.34155273,25.6973266 8.33206172,22.65625 L25.970459,22.65625 C28.8421631,22.65625 31.6589355,23.6442566 33.9012146,25.4379273 L58.9179992,45.452118 C59.4352723,45.8656311 60.0852967,46.09375 60.748291,46.09375 L85.2981566,46.09375 L85.2981566,43.7316895 C85.2981566,43.0717469 86.0656738,42.7093506 86.5753174,43.1282043 L95.6138611,50.5683898 C95.993042,50.8811951 95.993042,51.4625549 95.6138611,51.7753602 Z" id="Path" fill="#9DD5FF"></path>
                        </g>
                    </g>
                </g>
            </g>
        </g>
    </g>
</svg>