<?xml version="1.0" encoding="UTF-8"?>
<svg width="61px" height="40px" viewBox="0 0 61 40" version="1.1" xmlns="http://www.w3.org/2000/svg" xmlns:xlink="http://www.w3.org/1999/xlink">
    <!-- Generator: sketchtool 53 (72520) - https://sketchapp.com -->
    <title>A6453230-052B-46E6-B644-A2C1212C9EC7</title>
    <desc>Created with sketchtool.</desc>
    <g id="Desktop" stroke="none" stroke-width="1" fill="none" fill-rule="evenodd" opacity="0.4">
        <g id="Landing-page" transform="translate(-90.000000, -708.000000)" fill="#FFFFFF" fill-rule="nonzero">
            <path d="M107.972184,724.966534 L107.972184,734.761735 L104.836491,734.761749 L104.836491,722.449624 L111.310157,722.456015 C114.059785,722.456015 114.996455,724.384134 114.996455,726.135502 L114.996455,734.761749 L111.866422,734.761749 L111.866422,726.151639 C111.866422,725.417993 111.484509,724.966548 110.56331,724.966548 L107.972184,724.966548 L107.972184,724.966534 Z M129.294445,724.819429 C128.222671,724.819429 127.393179,725.367319 127.046738,726.111096 C126.841441,726.557664 126.770871,726.899907 126.746719,727.446669 L131.570832,727.446669 C131.508942,726.111096 130.899842,724.819429 129.294445,724.819429 Z M126.746719,729.568801 C126.746719,731.163682 127.74377,732.337515 129.523895,732.337515 C130.908898,732.337515 131.597248,731.955869 132.398059,731.163682 L134.334801,733.002486 C133.094714,734.219852 131.79349,734.959126 129.500875,734.959126 C126.499153,734.959126 123.626497,733.331596 123.626497,728.588229 C123.626497,724.535353 126.1346,722.240976 129.430303,722.240976 C132.770917,722.240976 134.700865,724.927131 134.700865,728.445629 L134.700865,729.568801 L126.746719,729.568801 Z M120.979519,734.746349 C118.424999,734.746349 117.341147,732.978095 117.341147,731.231606 L117.341147,719.095119 L120.471935,719.095119 L120.471935,722.449624 L122.832101,722.449624 L122.832101,724.966534 L120.471935,724.966534 L120.471935,731.036466 C120.471935,731.751724 120.811583,732.148756 121.558427,732.148756 L122.832101,732.148756 L122.832101,734.746349 L120.979519,734.746349 Z M102.046482,720.748166 L98.8892801,720.748166 L98.8892801,717.765925 L102.046482,717.765925 L102.046482,720.748166 Z M102.054449,734.891202 C99.6901077,734.665292 98.8859005,733.23928 98.8859005,731.593738 L98.889319,722.449624 L102.054449,722.449624 L102.054449,734.891202 Z M139.683875,734.62814 C137.324462,734.401855 136.52403,732.978095 136.52403,731.334803 L136.52403,717.341498 L139.683875,717.341498 L139.683875,734.62814 Z M150.730313,719.363809 C152.264007,726.801212 146.981747,732.877149 141.831193,734.750853 L141.831193,731.435749 C146.110364,728.901953 148.506382,724.493699 147.751991,720.265573 C145.497113,707.478749 120.747819,707.426213 103.297152,716.34404 L103.297152,715.176587 C120.765556,704.601959 147.866716,705.480831 150.730315,719.363809 Z M118.97675,743.653666 C126.386329,742.971432 135.282807,740.338941 140.659036,737.155559 L140.659036,741.749566 C134.734089,744.983236 126.211601,747.065214 119.700197,747.697161 C103.242809,749.28754 92.4605393,744.498391 90.4456786,736.047397 C88.8670765,729.456971 91.6091574,723.879389 96.6615908,719.473762 L96.6615908,721.099791 C93.8549768,724.140574 91.7393556,729.035922 92.5997933,733.65395 C94.3576536,743.021719 106.920804,744.761828 118.97675,743.653666 Z M143.336456,718.270694 C143.336456,718.118335 143.247016,718.069927 143.042473,718.069927 L142.845101,718.069927 L142.845101,718.501107 C142.873782,718.501107 143.017189,718.506358 143.042473,718.506358 C143.247016,718.506358 143.336456,718.438436 143.336456,718.295834 L143.336456,718.270708 L143.336456,718.270694 Z M143.644402,719.339827 L143.410424,719.339827 C143.389291,719.339827 143.370799,719.326678 143.361741,719.309057 L143.042473,718.770925 C143.036803,718.760055 143.009263,718.746906 142.99832,718.746906 L142.854913,718.746906 L142.854913,719.280535 C142.854913,719.309057 142.835282,719.339827 142.79755,719.339827 L142.585837,719.339827 C142.559421,719.339827 142.533005,719.309057 142.533005,719.280535 L142.533005,717.930702 C142.533005,717.852647 142.563572,717.82 142.629993,717.809868 C142.704713,717.800118 142.907747,717.79336 143.017189,717.79336 C143.405896,717.79336 143.641006,717.907441 143.641006,718.270698 L143.641006,718.295826 C143.641006,718.520611 143.528545,718.639194 143.354194,718.69736 L143.685162,719.253881 C143.68727,719.265137 143.694967,719.280539 143.694967,719.293658 C143.694967,719.315424 143.681743,719.339817 143.644396,719.339817 L143.644402,719.339827 Z M143.088887,717.549797 C142.512995,717.549797 142.047303,718.022633 142.047303,718.591912 C142.047303,719.16194 142.512995,719.62727 143.088887,719.62727 C143.661756,719.62727 144.131978,719.16194 144.131978,718.591912 C144.131978,718.022633 143.661756,717.549797 143.088887,717.549797 Z M143.088887,719.841923 C142.389215,719.841923 141.83106,719.280525 141.83106,718.591912 C141.83106,717.904424 142.389215,717.341524 143.088887,717.341524 C143.781011,717.341524 144.34973,717.904424 144.34973,718.591912 C144.34973,719.280525 143.781011,719.841923 143.088887,719.841923 Z" id="Combined-Shape"></path>
        </g>
    </g>
</svg>