<?xml version="1.0" encoding="UTF-8"?>
<svg width="61px" height="40px" viewBox="0 0 61 40" version="1.1" xmlns="http://www.w3.org/2000/svg" xmlns:xlink="http://www.w3.org/1999/xlink">
    <!-- Generator: sketchtool 53 (72520) - https://sketchapp.com -->
    <title>A38F11AF-C0E8-435C-8BB5-40F3391A1D14</title>
    <desc>Created with sketchtool.</desc>
    <g id="Desktop" stroke="none" stroke-width="1" fill="none" fill-rule="evenodd" opacity="0.4">
        <g id="About-us" transform="translate(-748.000000, -873.000000)" fill="#5D5D5D" fill-rule="nonzero">
            <path d="M765.972184,889.966534 L765.972184,899.761735 L762.836491,899.761749 L762.836491,887.449624 L769.310157,887.456015 C772.059785,887.456015 772.996455,889.384134 772.996455,891.135502 L772.996455,899.761749 L769.866422,899.761749 L769.866422,891.151639 C769.866422,890.417993 769.484509,889.966548 768.56331,889.966548 L765.972184,889.966548 L765.972184,889.966534 Z M787.294445,889.819429 C786.222671,889.819429 785.393179,890.367319 785.046738,891.111096 C784.841441,891.557664 784.770871,891.899907 784.746719,892.446669 L789.570832,892.446669 C789.508942,891.111096 788.899842,889.819429 787.294445,889.819429 Z M784.746719,894.568801 C784.746719,896.163682 785.74377,897.337515 787.523895,897.337515 C788.908898,897.337515 789.597248,896.955869 790.398059,896.163682 L792.334801,898.002486 C791.094714,899.219852 789.79349,899.959126 787.500875,899.959126 C784.499153,899.959126 781.626497,898.331596 781.626497,893.588229 C781.626497,889.535353 784.1346,887.240976 787.430303,887.240976 C790.770917,887.240976 792.700865,889.927131 792.700865,893.445629 L792.700865,894.568801 L784.746719,894.568801 Z M778.979519,899.746349 C776.424999,899.746349 775.341147,897.978095 775.341147,896.231606 L775.341147,884.095119 L778.471935,884.095119 L778.471935,887.449624 L780.832101,887.449624 L780.832101,889.966534 L778.471935,889.966534 L778.471935,896.036466 C778.471935,896.751724 778.811583,897.148756 779.558427,897.148756 L780.832101,897.148756 L780.832101,899.746349 L778.979519,899.746349 Z M760.046482,885.748166 L756.88928,885.748166 L756.88928,882.765925 L760.046482,882.765925 L760.046482,885.748166 Z M760.054449,899.891202 C757.690108,899.665292 756.885901,898.23928 756.885901,896.593738 L756.889319,887.449624 L760.054449,887.449624 L760.054449,899.891202 Z M797.683875,899.62814 C795.324462,899.401855 794.52403,897.978095 794.52403,896.334803 L794.52403,882.341498 L797.683875,882.341498 L797.683875,899.62814 Z M808.730313,884.363809 C810.264007,891.801212 804.981747,897.877149 799.831193,899.750853 L799.831193,896.435749 C804.110364,893.901953 806.506382,889.493699 805.751991,885.265573 C803.497113,872.478749 778.747819,872.426213 761.297152,881.34404 L761.297152,880.176587 C778.765556,869.601959 805.866716,870.480831 808.730315,884.363809 Z M776.97675,908.653666 C784.386329,907.971432 793.282807,905.338941 798.659036,902.155559 L798.659036,906.749566 C792.734089,909.983236 784.211601,912.065214 777.700197,912.697161 C761.242809,914.28754 750.460539,909.498391 748.445679,901.047397 C746.867076,894.456971 749.609157,888.879389 754.661591,884.473762 L754.661591,886.099791 C751.854977,889.140574 749.739356,894.035922 750.599793,898.65395 C752.357654,908.021719 764.920804,909.761828 776.97675,908.653666 Z M801.336456,883.270694 C801.336456,883.118335 801.247016,883.069927 801.042473,883.069927 L800.845101,883.069927 L800.845101,883.501107 C800.873782,883.501107 801.017189,883.506358 801.042473,883.506358 C801.247016,883.506358 801.336456,883.438436 801.336456,883.295834 L801.336456,883.270708 L801.336456,883.270694 Z M801.644402,884.339827 L801.410424,884.339827 C801.389291,884.339827 801.370799,884.326678 801.361741,884.309057 L801.042473,883.770925 C801.036803,883.760055 801.009263,883.746906 800.99832,883.746906 L800.854913,883.746906 L800.854913,884.280535 C800.854913,884.309057 800.835282,884.339827 800.79755,884.339827 L800.585837,884.339827 C800.559421,884.339827 800.533005,884.309057 800.533005,884.280535 L800.533005,882.930702 C800.533005,882.852647 800.563572,882.82 800.629993,882.809868 C800.704713,882.800118 800.907747,882.79336 801.017189,882.79336 C801.405896,882.79336 801.641006,882.907441 801.641006,883.270698 L801.641006,883.295826 C801.641006,883.520611 801.528545,883.639194 801.354194,883.69736 L801.685162,884.253881 C801.68727,884.265137 801.694967,884.280539 801.694967,884.293658 C801.694967,884.315424 801.681743,884.339817 801.644396,884.339817 L801.644402,884.339827 Z M801.088887,882.549797 C800.512995,882.549797 800.047303,883.022633 800.047303,883.591912 C800.047303,884.16194 800.512995,884.62727 801.088887,884.62727 C801.661756,884.62727 802.131978,884.16194 802.131978,883.591912 C802.131978,883.022633 801.661756,882.549797 801.088887,882.549797 Z M801.088887,884.841923 C800.389215,884.841923 799.83106,884.280525 799.83106,883.591912 C799.83106,882.904424 800.389215,882.341524 801.088887,882.341524 C801.781011,882.341524 802.34973,882.904424 802.34973,883.591912 C802.34973,884.280525 801.781011,884.841923 801.088887,884.841923 Z" id="Combined-Shape"></path>
        </g>
    </g>
</svg>