<svg width="61" height="40" viewBox="0 0 61 40" xmlns="http://www.w3.org/2000/svg"><title>A6453230-052B-46E6-B644-A2C1212C9EC7</title><path d="M17.972 16.967v9.795h-3.136V14.45l6.474.006c2.75 0 3.686 1.928 3.686 3.68v8.626h-3.13v-8.61c0-.734-.381-1.185-1.303-1.185h-2.59zm21.322-.148c-1.071 0-1.9.548-2.247 1.292-.206.447-.276.789-.3 1.336h4.824c-.062-1.336-.671-2.628-2.277-2.628zm-2.547 4.75c0 1.595.997 2.769 2.777 2.769 1.385 0 2.073-.382 2.874-1.174l1.937 1.838c-1.24 1.218-2.542 1.957-4.834 1.957-3.002 0-5.875-1.627-5.875-6.37 0-4.054 2.509-6.348 5.804-6.348 3.34 0 5.27 2.686 5.27 6.205v1.123h-7.953zm-5.767 5.177c-2.555 0-3.639-1.768-3.639-3.514V11.095h3.13v3.355h2.361v2.517h-2.36v6.07c0 .715.34 1.112 1.086 1.112h1.274v2.597H30.98zM12.046 12.748H8.89V9.766h3.157v2.982zm.008 14.143c-2.364-.226-3.168-1.652-3.168-3.297l.003-9.144h3.165v12.44zm37.63-.263c-2.36-.226-3.16-1.65-3.16-3.293V9.34h3.16v17.287zM60.73 11.364c1.534 7.437-3.748 13.513-8.899 15.387v-3.315c4.28-2.534 6.675-6.942 5.921-11.17C55.497-.521 30.748-.574 13.297 8.344V7.177C30.766-3.398 57.867-2.52 60.73 11.364zm-31.753 24.29c7.41-.683 16.306-3.315 21.682-6.498v4.594c-5.925 3.233-14.447 5.315-20.959 5.947-16.457 1.59-27.24-3.199-29.254-11.65-1.579-6.59 1.163-12.168 6.216-16.573V13.1C3.855 16.14 1.739 21.036 2.6 25.654c1.758 9.368 14.32 11.108 26.377 10zm24.36-25.383c0-.153-.09-.201-.295-.201h-.197v.431l.197.005c.205 0 .294-.068.294-.21v-.025zm.307 1.069h-.234a.056.056 0 0 1-.048-.03l-.32-.54c-.005-.01-.033-.023-.044-.023h-.143v.534c0 .028-.02.059-.057.059h-.212c-.027 0-.053-.03-.053-.06V9.93c0-.077.03-.11.097-.12a4.34 4.34 0 0 1 .387-.017c.389 0 .624.114.624.478v.025c0 .225-.112.343-.287.401l.331.557c.002.011.01.027.01.04 0 .021-.013.046-.05.046zm-.555-1.79c-.576 0-1.042.473-1.042 1.042a1.042 1.042 0 1 0 2.085 0c0-.57-.47-1.042-1.043-1.042zm0 2.292c-.7 0-1.258-.561-1.258-1.25a1.26 1.26 0 0 1 2.519 0 1.26 1.26 0 0 1-1.261 1.25z" fill="#FFF" opacity=".4"/></svg>