<?xml version="1.0" encoding="UTF-8"?>
<svg width="84px" height="84px" viewBox="0 0 84 84" version="1.1" xmlns="http://www.w3.org/2000/svg" xmlns:xlink="http://www.w3.org/1999/xlink">
    <!-- Generator: sketchtool 53 (72520) - https://sketchapp.com -->
    <title>9BFFAF5D-672B-4AD6-B081-8AD5D5FF6AFA</title>
    <desc>Created with sketchtool.</desc>
    <g id="Desktop" stroke="none" stroke-width="1" fill="none" fill-rule="evenodd">
        <g id="Developers" transform="translate(-731.000000, -598.000000)">
            <g id="Group-4" transform="translate(90.000000, 518.000000)">
                <g id="Group-5" transform="translate(641.000000, 80.000000)">
                    <circle id="Oval-Copy-4" fill="#0A192B" cx="42" cy="42" r="42"></circle>
                    <path d="M42,22 C33.7290277,22 27,28.6939842 27,36.9221046 C27,49.1814573 40.5069479,61.1516527 41.0820113,61.6553547 C41.3444873,61.8849836 41.6721082,62 42,62 C42.3278918,62 42.6556482,61.8851182 42.9179887,61.6553547 C43.4927812,61.1517874 57,49.181592 57,36.9221046 C57,28.6939842 50.2709723,22 42,22 Z M50.7573249,36.0753735 L47.3849557,39.3525342 L48.1813224,43.980128 C48.2704396,44.4985101 48.0559082,45.0221447 47.6279288,45.3310999 C47.3860392,45.5055101 47.0999973,45.5941293 46.8121947,45.5941293 C46.5906206,45.5941293 46.3683693,45.5414696 46.1648082,45.4348032 L42.0001354,43.251915 L37.8354627,45.4348032 C37.3675295,45.6801896 36.8003214,45.639651 36.3722066,45.3310999 C35.9442272,45.0221447 35.7296958,44.4983754 35.818813,43.980128 L36.6151797,39.3525342 L33.2428106,36.0753735 C32.8650781,35.7082367 32.7292353,35.1596863 32.8928426,34.6601594 C33.0563145,34.1606325 33.4906594,33.7965933 34.0133089,33.7207686 L38.6704288,33.0461581 L40.7539841,28.8372834 C40.9877475,28.3650964 41.4708495,28.0661075 42,28.0661075 C42.5291505,28.0661075 43.0123879,28.3650964 43.2460159,28.8372834 L45.3297066,33.0462928 L49.9868265,33.7209033 C50.509476,33.796728 50.9438209,34.1607671 51.1072928,34.6602941 C51.2707647,35.1596863 51.1350573,35.7082367 50.7573249,36.0753735 Z" id="Shape" fill="#0091FF" fill-rule="nonzero"></path>
                    <path d="M50.5898241,35.7679625 L47.2819436,38.9463887 L48.0630816,43.4345622 C48.1504947,43.9373265 47.9400657,44.445185 47.5202704,44.744832 C47.2830064,44.9139875 47.0024343,44.9999368 46.7201353,44.9999368 C46.5027983,44.9999368 46.284797,44.9488636 46.0851285,44.845411 L42.0000954,42.7282888 L37.9150622,44.845411 C37.4560772,45.0834043 36.8997156,45.0440871 36.4797875,44.744832 C36.0599922,44.445185 35.8495632,43.9371959 35.9369762,43.4345622 L36.7181143,38.9463887 L33.4102338,35.7679625 C33.0397246,35.4118868 32.9064794,34.8798632 33.0669581,34.395386 C33.227304,33.9109088 33.6533431,33.5578374 34.1659981,33.4842972 L38.7340615,32.8300114 L40.7777737,28.7479418 C41.007067,28.2899809 41.4809308,28 41.9999625,28 C42.5189942,28 42.9929909,28.2899809 43.2221513,28.7479418 L45.2659963,32.830142 L49.8340598,33.4844279 C50.3467148,33.5579681 50.7727539,33.9110395 50.9330997,34.3955166 C51.0934456,34.8798632 50.9603333,35.4118868 50.5898241,35.7679625 Z" id="Shape" fill="#FFFFFF" fill-rule="nonzero"></path>
                </g>
            </g>
        </g>
    </g>
</svg>