<?xml version="1.0" encoding="UTF-8"?>
<svg width="40px" height="40px" viewBox="0 0 40 40" version="1.1" xmlns="http://www.w3.org/2000/svg" xmlns:xlink="http://www.w3.org/1999/xlink">
    <!-- Generator: sketchtool 53 (72520) - https://sketchapp.com -->
    <title>E8DCCA4D-7A8A-4A1E-86BD-406DC592E570</title>
    <desc>Created with sketchtool.</desc>
    <g id="Desktop" stroke="none" stroke-width="1" fill="none" fill-rule="evenodd">
        <g id="Landing-page" transform="translate(-1040.000000, -950.000000)" fill-rule="nonzero">
            <g id="Group-6" transform="translate(1040.000000, 950.000000)">
                <path d="M21.3793103,18.5682759 L39.9475862,18.5682759 C39.2689655,8.62275862 31.3248276,0.67862069 21.3793103,-1.19015908e-13 L21.3793103,18.5682759 Z" id="Path-Copy-2" fill="#FFFFFF"></path>
                <path d="M34.7489655,33.5013793 C37.7441379,30.2531034 39.6806897,26.0131034 40,21.3268966 L22.5744828,21.3268966 L34.7489655,33.5013793 Z" id="Path-Copy-3" fill="#0091FF" opacity="0.5"></path>
                <path d="M18.6206897,19.3765517 L18.6206897,3.7658765e-13 C8.21931034,0.709655172 6.75015599e-14,9.3662069 6.75015599e-14,19.9475862 C6.75015599e-14,24.9737931 1.85862069,29.5634483 4.92,33.0772414 L18.6206897,19.3765517 Z" id="Path-Copy-4" fill="#0091FF"></path>
                <path d="M19.5958621,22.302069 L6.87034483,35.0275862 C10.3841379,38.0889655 14.9737931,39.9475862 20,39.9475862 C24.8206897,39.9475862 29.2386207,38.237931 32.6903448,35.3965517 L19.5958621,22.302069 Z" id="Path-Copy-5" fill="#0091FF" opacity="0.8"></path>
            </g>
        </g>
    </g>
</svg>