<svg width="40" height="40" viewBox="0 0 40 40" xmlns="http://www.w3.org/2000/svg"><title>E8DCCA4D-7A8A-4A1E-86BD-406DC592E570</title><g fill="none"><path d="M21.38 18.568h18.568C39.269 8.623 31.325.678 21.379 0v18.568z" fill="#FFF"/><path d="M34.749 33.501A19.925 19.925 0 0 0 40 21.327H22.574L34.75 33.5z" fill="#0091FF" opacity=".5"/><path d="M18.62 19.377V0C8.22.71 0 9.366 0 19.948a19.92 19.92 0 0 0 4.92 13.13l13.7-13.701z" fill="#0091FF"/><path d="M19.596 22.302L6.87 35.028A19.92 19.92 0 0 0 20 39.948c4.82 0 9.239-1.71 12.69-4.551L19.596 22.302z" fill="#0091FF" opacity=".8"/></g></svg>