<?xml version="1.0" encoding="UTF-8"?>
<svg width="120px" height="40px" viewBox="0 0 120 40" version="1.1" xmlns="http://www.w3.org/2000/svg" xmlns:xlink="http://www.w3.org/1999/xlink">
    <!-- Generator: sketchtool 53 (72520) - https://sketchapp.com -->
    <title>4CA98D29-669B-49C1-AA88-73709563C189</title>
    <desc>Created with sketchtool.</desc>
    <g id="Desktop" stroke="none" stroke-width="1" fill="none" fill-rule="evenodd" opacity="0.4">
        <g id="Landing-page" transform="translate(-380.000000, -708.000000)" fill="#FFFFFF" fill-rule="nonzero">
            <path d="M429.655196,746.366051 L429.07777,746.366051 L428.693048,746.26841 L428.211973,746.172818 L427.827251,746.076542 L427.441845,745.884674 L427.057122,745.692807 L426.672399,745.500256 L426.383345,745.307023 L426.09429,745.01888 L425.805919,744.730736 L425.613216,744.443276 L425.421196,744.057492 L425.228493,743.673756 L425.036473,743.287972 L424.940122,742.904237 L424.843087,742.42286 L424.747419,741.942167 L424.747419,739.827524 L424.843087,739.346147 L424.940122,738.866136 L425.036473,738.38476 L425.228493,738.000341 L425.421196,737.518965 L425.613216,737.134546 L425.90227,736.846403 L426.191325,736.461302 L426.479696,736.173159 L426.768067,735.980608 L427.15279,735.692465 L427.538196,735.499915 L427.922919,735.308047 L428.403993,735.211772 L428.885067,735.115496 L429.366825,735.019221 L429.655196,735.019221 L430.328973,735.019221 L430.906399,735.115496 L431.291122,735.211772 L431.772196,735.403639 L432.157602,735.499915 L432.542325,735.788741 L432.927047,735.980608 L433.215419,736.268751 L433.408122,736.557577 L433.696493,736.941996 L433.889196,737.327097 L433.985547,737.710833 L434.17825,738.096617 L434.273918,738.480352 L434.37027,738.961729 L434.37027,740.692636 L434.273918,741.17333 L429.655196,741.17333 L427.538196,741.17333 L427.538196,741.750299 L427.633864,742.23031 L427.827251,742.711686 L428.01927,743.096105 L428.308325,743.481206 L428.596696,743.673756 L428.981419,743.9619 L429.463176,744.057492 L429.655196,744.153767 L431.675844,744.153767 L432.157602,744.057492 L432.734344,743.865624 L433.215419,743.673756 L433.792844,743.481206 L433.792844,744.057492 L433.985547,745.115155 L433.985547,745.692807 L433.504473,745.884674 L432.927047,745.98095 L432.445973,746.172818 L431.868547,746.26841 L431.291122,746.366051 L429.655196,746.366051 Z M429.655196,737.134546 L429.174122,737.134546 L428.693048,737.327097 L428.308325,737.710833 L427.922919,738.096617 L427.730899,738.576628 L427.633864,739.249872 L429.655196,739.249872 L431.580176,739.249872 L431.580176,738.576628 L431.387473,738.096617 L431.098419,737.61524 L430.713696,737.327097 L430.328973,737.134546 L429.751547,737.038954 L429.655196,737.134546 Z M404.538885,737.42269 L404.154162,737.42269 L403.76944,737.518965 L403.384034,737.710833 L403.095662,738.000341 L402.71094,738.38476 L402.518237,738.769861 L402.325534,739.346147 L402.133514,739.923116 L402.133514,741.268922 L402.229866,741.846574 L402.325534,742.326585 L402.518237,742.807961 L402.71094,743.19238 L402.999311,743.481206 L403.287682,743.673756 L403.673088,743.865624 L404.154162,743.9619 L404.538885,743.9619 L405.019959,743.9619 L405.309014,743.865624 L405.693737,743.673756 L406.078459,743.481206 L406.271162,743.19238 L406.559534,742.807961 L406.752237,742.326585 L406.848588,741.846574 L406.94494,741.268922 L407.040608,740.692636 L406.94494,740.019392 L406.848588,739.44174 L406.752237,738.866136 L406.559534,738.480352 L406.271162,738.096617 L405.982108,737.808474 L405.597385,737.61524 L405.116311,737.42269 L404.538885,737.42269 Z M404.538885,735.019221 L405.309014,735.019221 L405.790088,735.115496 L406.174811,735.115496 L406.655885,735.308047 L407.040608,735.403639 L407.426014,735.59619 L407.714385,735.788741 L408.099791,735.980608 L408.388162,736.268751 L408.676533,736.461302 L408.869236,736.846403 L409.157608,737.134546 L409.350311,737.518965 L409.543014,737.904066 L409.639365,738.38476 L409.735717,738.866136 L409.831385,739.44174 L409.927736,739.923116 L409.927736,740.980779 L409.831385,741.46079 L409.735717,741.942167 L409.639365,742.42286 L409.446662,742.904237 L409.350311,743.287972 L409.157608,743.673756 L408.869236,744.057492 L408.580865,744.443276 L408.388162,744.730736 L408.003439,745.01888 L407.714385,745.307023 L407.329662,745.596531 L406.94494,745.788399 L406.559534,745.98095 L406.174811,746.076542 L405.693737,746.26841 L405.309014,746.26841 L404.827256,746.366051 L404.538885,746.366051 L403.384034,746.366051 L402.902959,746.26841 L402.518237,746.172818 L402.133514,746.076542 L401.748791,745.884674 L401.363385,745.692807 L401.074331,745.500256 L400.78596,745.21143 L400.497588,744.923287 L400.208534,744.635144 L400.015831,744.24936 L399.823811,743.9619 L399.631108,743.481206 L399.439088,743.096105 L399.342737,742.616094 L399.245702,742.038442 L399.245702,739.923116 L399.342737,739.44174 L399.534757,738.961729 L399.631108,738.576628 L399.823811,738.096617 L400.015831,737.710833 L400.208534,737.327097 L400.497588,737.038954 L400.78596,736.65317 L401.074331,736.36571 L401.363385,736.173159 L401.748791,735.884333 L402.133514,735.692465 L402.518237,735.499915 L402.902959,735.308047 L403.384034,735.211772 L403.865108,735.115496 L404.346182,735.019221 L404.538885,735.019221 Z M394.62698,746.172818 L394.62698,745.788399 L394.530628,745.307023 L394.434277,744.827012 L394.338608,744.153767 L394.242257,743.481206 L394.145905,742.711686 L394.049554,741.942167 L393.953202,741.268922 L393.857534,740.595678 L393.761183,740.019392 L393.664831,739.63429 L393.664831,739.249872 L393.472128,738.576628 L393.472128,737.904066 L393.37646,737.327097 L393.280108,736.846403 L393.280108,736.268751 L393.183757,735.788741 L393.087405,735.788741 L392.991054,736.36571 L392.895386,736.941996 L392.702683,737.518965 L392.50998,738.192209 L392.31796,738.866136 L392.31796,738.961729 L392.221608,739.249872 L392.125257,739.63429 L391.932554,740.115667 L391.740534,740.788911 L391.547831,741.46079 L391.258777,742.134717 L391.066757,742.904237 L390.874054,743.577481 L390.585683,744.24936 L390.39298,744.923287 L390.296628,745.404664 L390.104609,745.788399 L390.008257,746.076542 L390.008257,746.172818 L387.21748,746.172818 L387.21748,746.076542 L387.121128,745.788399 L387.024777,745.404664 L386.832074,744.827012 L386.640054,744.153767 L386.351,743.481206 L385.869925,742.038442 L385.677222,741.365198 L385.485203,740.788911 L385.293183,740.211259 L385.10048,739.827524 L385.10048,739.538015 L385.004129,739.44174 L384.907777,738.866136 L384.715074,738.38476 L384.426703,737.327097 L384.330351,736.749445 L384.137648,736.268751 L384.137648,735.788741 L384.041297,735.788741 L384.041297,736.36571 L383.945629,737.038954 L383.849277,737.61524 L383.849277,738.192209 L383.752926,738.866136 L383.656574,739.44174 L383.656574,739.538015 L383.560223,739.923116 L383.560223,740.40381 L383.464554,740.980779 L383.368203,741.654706 L383.271851,742.42286 L383.1755,743.19238 L383.079148,743.9619 L382.98348,744.635144 L382.887129,745.692807 L382.887129,746.076542 L382.790777,746.172818 L380,746.172818 L382.213351,731.653682 L385.485203,731.653682 L385.485203,731.749957 L385.581554,732.038783 L385.774257,732.423202 L385.966277,732.903895 L386.15898,733.57714 L386.640054,735.019221 L387.024777,736.461302 L387.313831,737.134546 L387.505851,737.808474 L387.890574,738.961729 L387.890574,739.058004 L388.083277,739.731249 L388.27598,740.307535 L388.468,740.885187 L388.565034,741.557065 L388.757054,742.134717 L388.949757,741.557065 L389.046109,740.885187 L389.238128,740.307535 L389.430831,739.731249 L389.622851,739.153597 L389.622851,739.058004 L389.719203,738.769861 L389.815554,738.38476 L390.008257,737.808474 L390.296628,737.230822 L390.489331,736.461302 L390.681351,735.788741 L390.970406,735.019221 L391.258777,734.249701 L391.45148,733.57714 L391.643499,732.999488 L391.836886,732.423202 L391.932554,732.038783 L392.028905,731.749957 L392.125257,731.653682 L395.397108,731.653682 L397.61046,746.172818 L394.62698,746.172818 Z M436.006196,737.230822 L435.814176,736.941996 L435.717824,736.65317 L435.717824,735.980608 L435.814176,735.692465 L435.910527,735.403639 L436.48727,735.403639 L436.969027,735.308047 L437.54577,735.308047 L438.123879,735.211772 L440.240879,735.211772 L440.240879,735.884333 L440.144527,736.65317 L440.048176,737.42269 L440.240879,737.038954 L440.52925,736.557577 L440.817621,736.173159 L441.107359,735.788741 L441.491398,735.499915 L441.877488,735.308047 L442.357879,735.115496 L442.935988,735.019221 L443.512047,735.019221 L443.512047,735.403639 L443.416379,736.36571 L443.416379,737.808474 L442.935988,737.710833 L442.549898,737.710833 L442.165859,737.808474 L441.77977,737.904066 L441.491398,738.096617 L441.299379,738.288485 L441.011008,738.576628 L440.817621,738.961729 L440.625601,739.44174 L440.52925,739.923116 L440.432898,740.40381 L440.432898,741.077054 L440.336547,741.750299 L440.336547,746.172818 L437.642121,746.172818 L437.642121,737.42269 L437.064696,737.327097 L436.583621,737.230822 L436.006196,737.230822 Z M455.156913,746.366051 L454.291116,746.366051 L453.520987,746.26841 L452.846527,746.172818 L452.846527,744.443276 L452.942878,743.865624 L453.424636,744.057492 L454.001378,744.153767 L454.675155,744.153767 L455.253264,744.24936 L456.022026,744.153767 L456.600136,743.865624 L456.887823,743.577481 L457.081893,743.096105 L456.984175,742.807961 L456.887823,742.519818 L456.792155,742.326585 L456.600136,742.23031 L456.311764,742.038442 L456.119061,741.942167 L455.830007,741.750299 L455.445284,741.654706 L455.156913,741.557065 L454.867175,741.46079 L454.483136,741.268922 L454.194764,741.17333 L453.905027,740.980779 L453.616655,740.788911 L453.328284,740.499403 L453.03923,740.211259 L452.846527,739.827524 L452.750858,739.44174 L452.654507,739.058004 L452.654507,738.096617 L452.750858,737.710833 L452.846527,737.327097 L453.03923,736.941996 L453.232616,736.65317 L453.424636,736.36571 L453.809358,736.076884 L454.09773,735.788741 L454.579487,735.59619 L454.963527,735.403639 L455.445284,735.211772 L456.022026,735.115496 L456.600136,735.019221 L457.94769,735.019221 L458.620784,735.115496 L459.19821,735.211772 L459.19821,737.42269 L458.524432,737.327097 L457.850655,737.134546 L457.177561,737.134546 L456.407433,737.230822 L455.925675,737.42269 L455.637304,737.808474 L455.541636,738.288485 L455.541636,738.480352 L455.637304,738.769861 L455.830007,738.961729 L456.022026,739.058004 L456.215413,739.249872 L456.503784,739.346147 L456.792155,739.44174 L457.081893,739.63429 L457.465932,739.731249 L457.754304,739.827524 L458.140393,740.019392 L458.428081,740.211259 L458.716452,740.40381 L459.00619,740.595678 L459.294561,740.885187 L459.582932,741.17333 L459.774952,741.46079 L459.87267,741.846574 L459.968338,742.326585 L459.968338,743.19238 L459.87267,743.577481 L459.774952,743.9619 L459.582932,744.345635 L459.390913,744.635144 L459.102541,745.01888 L458.812804,745.307023 L458.524432,745.500256 L458.140393,745.692807 L457.754304,745.884674 L457.273913,746.076542 L456.792155,746.26841 L456.215413,746.26841 L455.733655,746.366051 L455.156913,746.366051 Z M415.412939,735.211772 L415.412939,736.557577 L415.317271,737.230822 L415.605642,736.846403 L415.894013,736.36571 L416.183068,736.076884 L416.567791,735.788741 L416.952513,735.499915 L417.434271,735.308047 L417.915345,735.115496 L418.492087,735.019221 L419.646939,735.019221 L420.128013,735.115496 L420.609771,735.308047 L420.994493,735.499915 L421.282865,735.788741 L421.571919,736.076884 L421.86029,736.36571 L421.956642,736.749445 L422.149345,737.134546 L422.245696,737.61524 L422.245696,746.172818 L419.551271,746.172818 L419.551271,739.153597 L419.454919,738.576628 L419.358568,738.096617 L419.069513,737.710833 L418.68479,737.42269 L418.203716,737.327097 L417.722642,737.42269 L417.337919,737.518965 L416.952513,737.808474 L416.664142,738.096617 L416.375088,738.38476 L416.086716,738.866136 L415.894013,739.249872 L415.701994,739.827524 L415.701994,740.307535 L415.605642,740.885187 L415.605642,746.172818 L412.814865,746.172818 L412.814865,737.42269 L412.333791,737.327097 L411.756365,737.230822 L411.178939,737.230822 L411.082588,736.941996 L410.986236,736.65317 L410.889885,736.268751 L410.986236,735.980608 L411.082588,735.692465 L411.178939,735.403639 L411.660014,735.403639 L412.237439,735.308047 L412.814865,735.308047 L413.295939,735.211772 L415.412939,735.211772 Z M448.709562,733.865283 L448.131453,733.769008 L447.651062,733.57714 L447.361324,733.192721 L447.072953,732.711345 L446.977285,732.134376 L447.072953,731.653682 L447.361324,731.172988 L447.651062,730.78857 L448.131453,730.596019 L448.709562,730.499744 L449.285621,730.596019 L449.768062,730.78857 L450.152101,731.172988 L450.344121,731.653682 L450.441839,732.134376 L450.344121,732.711345 L450.152101,733.192721 L449.768062,733.57714 L449.285621,733.769008 L448.709562,733.865283 Z M450.152101,735.211772 L450.152101,746.172818 L447.361324,746.172818 L447.361324,737.42269 L446.880933,737.327097 L446.302824,737.230822 L445.726765,737.230822 L445.532695,736.941996 L445.437027,736.65317 L445.437027,735.980608 L445.532695,735.692465 L445.726765,735.403639 L446.207156,735.403639 L446.784581,735.308047 L447.361324,735.308047 L447.939433,735.211772 L450.152101,735.211772 Z M488.452852,715.018538 L488.549204,715.114813 L488.644872,715.211772 L488.741223,715.307364 L488.836891,715.403639 L488.836891,715.499915 L488.933243,715.59619 L488.933243,716.076884 L488.836891,716.173159 L488.836891,716.268751 L488.741223,716.365027 L488.644872,716.365027 L488.549204,716.461302 L487.971095,716.461302 L487.874743,716.365027 L487.779075,716.365027 L487.104614,715.980608 L486.334486,715.788058 L485.662075,715.59619 L483.737095,715.59619 L483.159669,715.788058 L482.486575,715.884333 L481.909149,716.173159 L481.33104,716.365027 L480.754298,716.749445 L480.368892,717.038271 L479.984169,717.42269 L479.598763,717.807108 L479.21404,718.287802 L478.925669,718.769178 L478.73365,719.153597 L478.636615,719.442423 L478.443912,719.63429 L478.348244,719.826841 L478.251892,720.114984 L478.156224,720.40381 L478.059872,720.884504 L478.059872,721.845891 L478.156224,722.519136 L478.251892,723.096105 L478.443912,723.673074 L478.636615,724.153767 L478.830001,724.634461 L479.21404,725.115155 L479.502412,725.595849 L479.888501,725.98095 L480.27254,726.365368 L480.754298,726.846062 L481.234689,727.134205 L481.716446,727.519306 L482.197521,727.807449 L482.679278,728.096275 L483.159669,728.288143 L483.737095,728.480694 L484.218169,728.576969 L484.795595,728.672562 L485.275986,728.76952 L486.334486,728.76952 L486.816243,728.672562 L487.394352,728.576969 L487.971095,728.480694 L488.549204,728.288143 L489.125263,728 L489.703372,727.807449 L490.185129,727.519306 L490.66552,727.134205 L491.050243,726.749787 L491.435649,726.365368 L491.820372,725.98095 L492.109426,725.595849 L492.397797,725.115155 L492.686169,724.634461 L492.878188,724.153767 L493.072258,723.673074 L493.167926,723.19238 L493.360629,722.711686 L493.360629,722.230992 L493.456297,721.749616 L493.456297,720.788228 L493.360629,720.307535 L493.264278,719.826841 L493.167926,719.346147 L493.072258,718.865454 L492.878188,718.287802 L492.686169,717.807108 L492.397797,717.326414 L492.205778,716.845721 L491.91604,716.365027 L491.627669,715.884333 L491.339981,715.403639 L491.050243,715.018538 L490.66552,714.63412 L490.377149,714.249701 L489.991743,713.865283 L489.60702,713.480182 L489.222981,713.095763 L488.741223,712.711345 L488.356501,712.423202 L487.874743,712.134376 L487.394352,711.846233 L487.008946,711.557407 L486.527872,711.269264 L485.950446,710.980438 L485.470055,710.78857 L484.988298,710.596019 L484.410189,710.403469 L483.833446,710.210918 L483.255337,710.01905 L482.679278,709.922775 L482.101169,709.8265 L481.427392,709.730224 L480.947001,709.634632 L479.888501,709.634632 L479.406743,709.538356 L478.830001,709.538356 L478.348244,709.634632 L477.771501,709.634632 L477.289744,709.730224 L476.809353,709.730224 L476.231244,709.8265 L475.749486,709.922775 L475.269095,710.01905 L474.787338,710.115326 L474.210595,710.307193 L473.728838,710.403469 L473.248447,710.596019 L472.766689,710.78857 L472.286298,710.884162 L471.804541,711.172988 L471.323467,711.364856 L470.841709,711.557407 L469.879561,712.134376 L469.495521,712.326926 L469.013764,712.615069 L468.243635,713.192039 L467.858912,713.480182 L467.474873,713.769008 L466.993115,714.153426 L466.704744,714.442252 L466.318655,714.82667 L465.934615,715.211772 L465.549893,715.59619 L464.876115,716.365027 L464.587744,716.749445 L464.298006,717.133864 L464.009635,717.518965 L463.721264,717.903383 L463.527878,718.287802 L463.239506,718.769178 L463.047487,719.153597 L462.759116,719.63429 L462.565729,720.019392 L462.373709,720.500085 L462.18169,720.980779 L461.988987,721.461473 L461.796967,721.942167 L461.699249,722.42286 L461.603581,722.903554 L461.411561,723.384248 L461.31521,723.864941 L461.218858,724.44191 L461.218858,724.634461 L461.12319,724.827012 L460.93117,725.115155 L460.7371,725.307705 L460.545081,725.499573 L460.353061,725.692124 L460.06469,725.788399 L459.87267,725.98095 L459.486581,726.076542 L459.19821,726.172818 L458.909838,726.269093 L458.524432,726.365368 L457.562284,726.365368 L457.273913,726.269093 L457.081893,726.172818 L456.887823,725.98095 L456.695804,725.884674 L456.503784,725.692124 L456.407433,725.499573 L456.407433,724.827012 L456.503784,724.345635 L456.695804,723.864941 L456.792155,723.384248 L456.984175,722.903554 L457.081893,722.42286 L457.273913,721.942167 L457.465932,721.461473 L457.657952,720.980779 L457.94769,720.500085 L458.140393,720.114984 L458.332413,719.63429 L458.620784,719.249872 L458.812804,718.865454 L459.102541,718.38476 L459.87267,717.230822 L460.161041,716.845721 L460.448729,716.461302 L460.7371,716.076884 L461.12319,715.692465 L461.411561,715.307364 L461.796967,714.922946 L462.18169,714.63412 L462.855467,713.865283 L463.239506,713.576457 L463.625596,713.192039 L464.009635,712.903895 L464.490026,712.615069 L464.876115,712.326926 L465.260155,712.0381 L465.646244,711.749957 L466.126635,711.461131 L466.512041,711.172988 L466.896764,710.980438 L467.378521,710.691612 L467.763244,710.499744 L468.243635,710.210918 L468.725392,710.01905 L469.205783,709.8265 L469.687541,709.634632 L470.167932,709.442081 L470.746041,709.249531 L471.227798,709.057663 L471.708189,708.961387 L472.189947,708.768837 L472.670338,708.672562 L473.248447,708.480694 L473.728838,708.480694 L474.210595,708.288143 L474.690986,708.288143 L475.172744,708.191868 L475.749486,708.096275 L476.231244,708.096275 L476.711635,708 L479.21404,708 L479.694431,708.096275 L480.27254,708.096275 L480.754298,708.191868 L481.234689,708.191868 L481.812798,708.288143 L482.293189,708.384418 L482.871298,708.480694 L483.351689,708.672562 L483.929798,708.768837 L484.410189,708.961387 L484.891946,709.153255 L485.372337,709.345806 L485.854095,709.538356 L486.334486,709.730224 L486.816243,710.01905 L487.394352,710.307193 L487.779075,710.596019 L488.260832,710.884162 L488.741223,711.172988 L489.222981,711.461131 L489.60702,711.846233 L489.991743,712.134376 L490.4735,712.518794 L490.85754,712.903895 L491.243629,713.288314 L491.532,713.672732 L492.205778,714.442252 L492.5905,714.922946 L492.878188,715.307364 L493.167926,715.788058 L493.456297,716.268751 L493.744668,716.749445 L493.938055,717.230822 L494.226426,717.711515 L494.418446,718.287802 L494.611149,718.769178 L494.803168,719.346147 L494.900203,719.922434 L494.996555,720.500085 L495.092906,721.17333 L495.188574,721.749616 L495.188574,722.903554 L495.092906,723.576798 L494.996555,724.153767 L494.803168,724.730736 L494.611149,725.403981 L494.418446,725.98095 L494.130075,726.557236 L493.744668,727.134205 L493.360629,727.711174 L492.975906,728.288143 L492.494149,728.76952 L492.013758,729.250213 L491.435649,729.730224 L490.85754,730.115326 L490.185129,730.499744 L489.60702,730.78857 L489.125263,730.980438 L488.549204,731.172988 L487.874743,731.365539 L487.394352,731.55809 L486.816243,731.55809 L486.238817,731.653682 L484.507224,731.653682 L483.929798,731.55809 L483.351689,731.461131 L482.679278,731.269264 L482.101169,731.076713 L481.619412,730.884845 L481.042669,730.596019 L481.234689,730.884845 L481.812798,731.365539 L482.101169,731.55809 L482.486575,731.846233 L482.774946,732.038783 L483.063318,732.230651 L483.44804,732.423202 L483.737095,732.615069 L484.121817,732.711345 L484.410189,732.903895 L484.795595,732.999488 L485.470055,733.192721 L486.142466,733.384589 L486.816243,733.57714 L487.490704,733.673415 L489.511352,733.673415 L490.087411,733.57714 L490.66552,733.480182 L491.243629,733.288314 L491.820372,733.192721 L492.397797,732.999488 L493.072258,732.615069 L493.744668,732.230651 L494.322778,731.846233 L494.900203,731.365539 L495.476946,730.884845 L495.958703,730.404151 L496.343426,729.8265 L496.727465,729.250213 L497.017203,728.672562 L497.305574,728.096275 L497.497594,727.519306 L497.69098,726.846062 L497.883683,726.172818 L497.979352,725.595849 L497.979352,724.922604 L498.075703,724.345635 L498.075703,723.288655 L497.979352,722.807961 L497.979352,722.230992 L497.883683,721.749616 L497.787332,721.17333 L497.69098,720.691953 L497.497594,720.211259 L497.401926,719.63429 L497.209223,719.153597 L497.017203,718.672903 L496.825184,718.095934 L496.343426,717.133864 L496.055055,716.65317 L495.765317,716.173159 L495.476946,715.692465 L495.188574,715.307364 L494.900203,714.82667 L494.514797,714.345977 L494.226426,713.961558 L493.84102,713.576457 L493.456297,713.192039 L493.072258,712.80762 L492.686169,712.423202 L492.205778,712.0381 L491.820372,711.653682 L491.339981,711.364856 L490.85754,710.980438 L490.377149,710.691612 L489.895391,710.403469 L489.415001,710.115326 L489.318649,710.01905 L489.222981,709.922775 L489.125263,709.922775 L489.029594,709.8265 L489.029594,709.730224 L488.933243,709.634632 L488.933243,709.538356 L488.836891,709.442081 L488.836891,709.153255 L488.933243,709.057663 L489.029594,708.961387 L489.60702,708.961387 L489.703372,709.057663 L489.799723,709.057663 L490.281481,709.345806 L490.761872,709.634632 L491.72402,710.307193 L492.205778,710.596019 L492.5905,710.980438 L492.975906,711.364856 L493.456297,711.653682 L493.84102,712.0381 L494.226426,712.423202 L494.611149,712.80762 L494.996555,713.288314 L495.284926,713.672732 L495.668965,714.057151 L495.958703,714.442252 L496.247074,714.922946 L496.631797,715.403639 L496.920852,715.788058 L497.209223,716.268751 L497.401926,716.749445 L497.69098,717.230822 L497.979352,717.711515 L498.172055,718.192209 L498.364074,718.769178 L498.556094,719.249872 L498.74948,719.826841 L498.9415,720.307535 L499.037852,720.788228 L499.326223,721.845891 L499.518242,722.903554 L499.518242,723.480523 L499.615961,724.057492 L499.615961,726.461644 L499.518242,727.23048 L499.326223,728 L499.229871,728.576969 L499.037852,729.153938 L498.845832,729.730224 L498.653812,730.210918 L498.364074,730.78857 L498.075703,731.365539 L497.787332,731.846233 L497.401926,732.326926 L497.017203,732.903895 L496.535446,733.384589 L496.151406,733.865283 L495.573297,734.249701 L495.188574,734.634802 L494.706817,734.922946 L494.226426,735.211772 L493.744668,735.499915 L493.264278,735.788741 L492.686169,735.980608 L492.205778,736.268751 L491.627669,736.461302 L491.050243,736.557577 L490.4735,736.749445 L489.799723,736.846403 L489.222981,736.941996 L487.200966,736.941996 L486.720575,736.846403 L486.142466,736.846403 L485.565723,736.749445 L484.988298,736.557577 L484.410189,736.461302 L483.833446,736.268751 L483.351689,736.076884 L482.871298,735.884333 L482.38954,735.692465 L481.909149,735.499915 L481.427392,735.211772 L481.042669,734.922946 L480.560912,734.730395 L480.176872,734.442252 L479.694431,734.057833 L479.310392,733.769008 L478.925669,733.384589 L478.636615,732.999488 L478.251892,732.711345 L477.578115,731.941825 L477.289744,731.55809 L477.001372,731.076713 L476.711635,730.692295 L476.423263,730.210918 L476.231244,729.8265 L476.039224,729.345806 L475.845838,728.865112 L475.653135,728.384418 L475.461115,728 L475.269095,727.519306 L475.172744,726.942337 L474.980724,726.461644 L474.883006,725.98095 L474.883006,725.499573 L474.787338,724.44191 L474.787338,722.42286 L474.883006,721.845891 L474.980724,721.365198 L475.172744,720.788228 L475.269095,720.211259 L475.461115,719.730566 L475.653135,719.153597 L475.941506,718.672903 L476.231244,718.192209 L476.519615,717.711515 L476.615966,717.518965 L477.001372,717.038271 L477.193392,716.845721 L477.289744,716.749445 L477.386095,716.557577 L477.578115,716.461302 L477.673783,716.268751 L477.771501,716.173159 L477.963521,715.980608 L478.059872,715.884333 L478.348244,715.692465 L478.540263,715.59619 L478.830001,715.403639 L479.022021,715.211772 L479.21404,715.114813 L479.502412,714.922946 L479.694431,714.82667 L479.984169,714.730395 L480.176872,714.63412 L480.46456,714.537844 L480.657263,714.442252 L480.947001,714.345977 L480.368892,714.345977 L480.080521,714.442252 L479.79215,714.442252 L479.502412,714.537844 L479.21404,714.537844 L478.925669,714.63412 L478.636615,714.730395 L478.348244,714.82667 L477.963521,714.922946 L477.771501,715.018538 L477.386095,715.114813 L477.193392,715.307364 L476.905021,715.403639 L476.711635,715.499915 L476.423263,715.692465 L476.135575,715.788058 L475.941506,715.980608 L475.653135,716.076884 L475.461115,716.268751 L475.172744,716.461302 L474.980724,716.557577 L474.690986,716.749445 L474.498966,716.941996 L474.018576,717.326414 L473.536818,717.711515 L473.152095,718.095934 L472.766689,718.576628 L472.381967,719.057321 L471.996561,719.538015 L471.611838,720.019392 L471.323467,720.595678 L470.938061,721.17333 L470.649689,721.749616 L470.361318,722.326585 L470.167932,722.999829 L469.975912,723.576798 L469.783892,724.250043 L469.591189,724.827012 L469.495521,725.499573 L469.39917,726.076542 L469.302818,726.653511 L469.302818,727.23048 L469.205783,727.807449 L469.302818,728.384418 L469.302818,729.442081 L469.39917,730.01905 L469.495521,730.596019 L469.687541,731.172988 L469.783892,731.749957 L469.975912,732.326926 L470.167932,732.80762 L470.361318,733.384589 L470.649689,733.961558 L470.841709,734.538527 L471.13008,735.019221 L471.51617,735.499915 L471.804541,736.076884 L472.093595,736.461302 L472.766689,737.230822 L473.056427,737.61524 L473.440466,738.000341 L473.728838,738.38476 L474.114244,738.769861 L474.498966,739.058004 L474.787338,739.44174 L475.172744,739.731249 L475.557466,740.019392 L475.941506,740.307535 L476.327595,740.595678 L476.809353,740.788911 L477.193392,741.077054 L477.578115,741.365198 L477.963521,741.557065 L478.443912,741.750299 L478.830001,741.942167 L479.310392,742.134717 L479.79215,742.326585 L480.27254,742.519818 L480.754298,742.711686 L481.234689,742.807961 L481.716446,742.904237 L482.197521,743.096105 L482.679278,743.19238 L483.159669,743.19238 L483.641427,743.287972 L484.121817,743.287972 L484.603575,743.384248 L486.046114,743.384248 L486.527872,743.287972 L487.008946,743.287972 L487.490704,743.19238 L488.066763,743.19238 L488.549204,742.999829 L489.125263,742.904237 L489.60702,742.807961 L490.087411,742.616094 L490.569852,742.42286 L491.050243,742.23031 L491.532,742.038442 L492.013758,741.846574 L492.494149,741.557065 L492.878188,741.365198 L493.360629,741.077054 L493.84102,740.788911 L494.226426,740.40381 L494.611149,740.115667 L494.996555,739.827524 L495.381278,739.44174 L495.765317,739.058004 L496.055055,738.769861 L496.439094,738.38476 L497.017203,737.518965 L497.401926,737.134546 L497.69098,736.65317 L497.883683,736.268751 L498.172055,735.788741 L498.267723,735.692465 L498.364074,735.59619 L498.459742,735.499915 L498.556094,735.403639 L499.037852,735.403639 L499.229871,735.499915 L499.326223,735.59619 L499.422574,735.692465 L499.518242,735.788741 L499.711629,735.884333 L499.80798,736.076884 L499.80798,736.268751 L499.904332,736.461302 L500,736.65317 L500,737.518965 L499.904332,737.710833 L499.904332,737.808474 L499.615961,738.288485 L499.422574,738.769861 L499.134203,739.249872 L498.9415,739.63429 L498.653812,740.115667 L498.364074,740.499403 L498.075703,740.885187 L497.787332,741.268922 L497.113555,742.038442 L496.727465,742.42286 L496.439094,742.807961 L496.055055,743.096105 L495.668965,743.481206 L495.284926,743.769349 L494.900203,744.153767 L494.514797,744.443276 L494.130075,744.730736 L493.744668,745.01888 L493.360629,745.307023 L492.878188,745.500256 L492.494149,745.788399 L492.013758,745.98095 L491.627669,746.26841 L491.147278,746.462326 L490.66552,746.654194 L490.185129,746.846062 L489.799723,747.03793 L489.318649,747.134205 L488.836891,747.327438 L488.260832,747.423714 L487.779075,747.519306 L487.296634,747.615582 L486.816243,747.711857 L486.334486,747.807449 L485.854095,747.903725 L485.372337,747.903725 L484.891946,748 L482.967649,748 L482.486575,747.903725 L482.004818,747.903725 L481.52306,747.807449 L481.042669,747.711857 L480.560912,747.711857 L480.080521,747.615582 L479.598763,747.423714 L479.118372,747.327438 L478.636615,747.23048 L478.156224,747.03793 L477.673783,746.942337 L477.193392,746.750469 L476.711635,746.557919 L476.327595,746.366051 L475.077076,745.692807 L474.595318,745.500256 L474.210595,745.21143 L473.825189,745.01888 L473.440466,744.730736 L473.056427,744.443276 L472.670338,744.153767 L472.286298,743.865624 L471.900209,743.577481 L471.51617,743.287972 L470.841709,742.616094 L470.167932,741.942167 L469.205783,740.788911 L468.821061,740.40381 L468.532689,740.019392 L468.243635,739.63429 L467.955264,739.249872 L467.666893,738.769861 L467.378521,738.288485 L467.185135,737.904066 L466.896764,737.42269 L466.704744,736.941996 L466.512041,736.461302 L466.318655,735.980608 L466.126635,735.499915 L465.934615,735.019221 L465.742596,734.538527 L465.646244,733.961558 L465.452858,733.384589 L465.356506,732.903895 L465.260155,732.326926 L465.164487,731.749957 L465.164487,731.269264 L465.068135,730.692295 L465.068135,729.057663 L465.164487,728.576969 L465.164487,727.519306 L465.260155,726.942337 L465.356506,726.365368 L465.452858,725.884674 L465.646244,725.307705 L465.742596,724.730736 L465.934615,724.153767 L466.126635,723.576798 L466.318655,723.096105 L466.608393,722.519136 L466.800412,722.038442 L467.088783,721.557748 L467.280803,721.076372 L467.570541,720.595678 L467.858912,720.114984 L468.147283,719.63429 L468.437021,719.249872 L468.821061,718.769178 L469.205783,718.287802 L469.495521,717.903383 L469.975912,717.42269 L470.361318,717.038271 L470.746041,716.65317 L471.227798,716.173159 L471.708189,715.788058 L472.286298,715.403639 L472.766689,715.018538 L473.344798,714.730395 L473.825189,714.442252 L474.402615,714.153426 L474.883006,713.865283 L475.461115,713.576457 L476.039224,713.384589 L476.615966,713.192039 L477.193392,712.999488 L477.771501,712.80762 L478.348244,712.711345 L478.925669,712.615069 L479.598763,712.518794 L481.812798,712.518794 L482.38954,712.615069 L482.871298,712.615069 L483.545075,712.80762 L484.121817,712.903895 L484.795595,713.095763 L485.372337,713.288314 L485.950446,713.480182 L486.527872,713.769008 L487.008946,714.057151 L487.586372,714.345977 L488.066763,714.730395 L488.452852,715.018538 Z" id="Combined-Shape"></path>
        </g>
    </g>
</svg>