<?xml version="1.0" encoding="UTF-8"?>
<svg width="120px" height="40px" viewBox="0 0 120 40" version="1.1" xmlns="http://www.w3.org/2000/svg" xmlns:xlink="http://www.w3.org/1999/xlink">
    <!-- Generator: sketchtool 53 (72520) - https://sketchapp.com -->
    <title>6A95732A-B01D-4177-9973-1140E9FF392D</title>
    <desc>Created with sketchtool.</desc>
    <g id="Desktop" stroke="none" stroke-width="1" fill="none" fill-rule="evenodd" opacity="0.4">
        <g id="About-us" transform="translate(-1038.000000, -873.000000)" fill="#5D5D5D" fill-rule="nonzero">
            <path d="M1087.6552,911.366051 L1087.07777,911.366051 L1086.69305,911.26841 L1086.21197,911.172818 L1085.82725,911.076542 L1085.44184,910.884674 L1085.05712,910.692807 L1084.6724,910.500256 L1084.38334,910.307023 L1084.09429,910.01888 L1083.80592,909.730736 L1083.61322,909.443276 L1083.4212,909.057492 L1083.22849,908.673756 L1083.03647,908.287972 L1082.94012,907.904237 L1082.84309,907.42286 L1082.74742,906.942167 L1082.74742,904.827524 L1082.84309,904.346147 L1082.94012,903.866136 L1083.03647,903.38476 L1083.22849,903.000341 L1083.4212,902.518965 L1083.61322,902.134546 L1083.90227,901.846403 L1084.19132,901.461302 L1084.4797,901.173159 L1084.76807,900.980608 L1085.15279,900.692465 L1085.5382,900.499915 L1085.92292,900.308047 L1086.40399,900.211772 L1086.88507,900.115496 L1087.36682,900.019221 L1087.6552,900.019221 L1088.32897,900.019221 L1088.9064,900.115496 L1089.29112,900.211772 L1089.7722,900.403639 L1090.1576,900.499915 L1090.54232,900.788741 L1090.92705,900.980608 L1091.21542,901.268751 L1091.40812,901.557577 L1091.69649,901.941996 L1091.8892,902.327097 L1091.98555,902.710833 L1092.17825,903.096617 L1092.27392,903.480352 L1092.37027,903.961729 L1092.37027,905.692636 L1092.27392,906.17333 L1087.6552,906.17333 L1085.5382,906.17333 L1085.5382,906.750299 L1085.63386,907.23031 L1085.82725,907.711686 L1086.01927,908.096105 L1086.30832,908.481206 L1086.5967,908.673756 L1086.98142,908.9619 L1087.46318,909.057492 L1087.6552,909.153767 L1089.67584,909.153767 L1090.1576,909.057492 L1090.73434,908.865624 L1091.21542,908.673756 L1091.79284,908.481206 L1091.79284,909.057492 L1091.98555,910.115155 L1091.98555,910.692807 L1091.50447,910.884674 L1090.92705,910.98095 L1090.44597,911.172818 L1089.86855,911.26841 L1089.29112,911.366051 L1087.6552,911.366051 Z M1087.6552,902.134546 L1087.17412,902.134546 L1086.69305,902.327097 L1086.30832,902.710833 L1085.92292,903.096617 L1085.7309,903.576628 L1085.63386,904.249872 L1087.6552,904.249872 L1089.58018,904.249872 L1089.58018,903.576628 L1089.38747,903.096617 L1089.09842,902.61524 L1088.7137,902.327097 L1088.32897,902.134546 L1087.75155,902.038954 L1087.6552,902.134546 Z M1062.53889,902.42269 L1062.15416,902.42269 L1061.76944,902.518965 L1061.38403,902.710833 L1061.09566,903.000341 L1060.71094,903.38476 L1060.51824,903.769861 L1060.32553,904.346147 L1060.13351,904.923116 L1060.13351,906.268922 L1060.22987,906.846574 L1060.32553,907.326585 L1060.51824,907.807961 L1060.71094,908.19238 L1060.99931,908.481206 L1061.28768,908.673756 L1061.67309,908.865624 L1062.15416,908.9619 L1062.53889,908.9619 L1063.01996,908.9619 L1063.30901,908.865624 L1063.69374,908.673756 L1064.07846,908.481206 L1064.27116,908.19238 L1064.55953,907.807961 L1064.75224,907.326585 L1064.84859,906.846574 L1064.94494,906.268922 L1065.04061,905.692636 L1064.94494,905.019392 L1064.84859,904.44174 L1064.75224,903.866136 L1064.55953,903.480352 L1064.27116,903.096617 L1063.98211,902.808474 L1063.59739,902.61524 L1063.11631,902.42269 L1062.53889,902.42269 Z M1062.53889,900.019221 L1063.30901,900.019221 L1063.79009,900.115496 L1064.17481,900.115496 L1064.65589,900.308047 L1065.04061,900.403639 L1065.42601,900.59619 L1065.71438,900.788741 L1066.09979,900.980608 L1066.38816,901.268751 L1066.67653,901.461302 L1066.86924,901.846403 L1067.15761,902.134546 L1067.35031,902.518965 L1067.54301,902.904066 L1067.63937,903.38476 L1067.73572,903.866136 L1067.83138,904.44174 L1067.92774,904.923116 L1067.92774,905.980779 L1067.83138,906.46079 L1067.73572,906.942167 L1067.63937,907.42286 L1067.44666,907.904237 L1067.35031,908.287972 L1067.15761,908.673756 L1066.86924,909.057492 L1066.58087,909.443276 L1066.38816,909.730736 L1066.00344,910.01888 L1065.71438,910.307023 L1065.32966,910.596531 L1064.94494,910.788399 L1064.55953,910.98095 L1064.17481,911.076542 L1063.69374,911.26841 L1063.30901,911.26841 L1062.82726,911.366051 L1062.53889,911.366051 L1061.38403,911.366051 L1060.90296,911.26841 L1060.51824,911.172818 L1060.13351,911.076542 L1059.74879,910.884674 L1059.36339,910.692807 L1059.07433,910.500256 L1058.78596,910.21143 L1058.49759,909.923287 L1058.20853,909.635144 L1058.01583,909.24936 L1057.82381,908.9619 L1057.63111,908.481206 L1057.43909,908.096105 L1057.34274,907.616094 L1057.2457,907.038442 L1057.2457,904.923116 L1057.34274,904.44174 L1057.53476,903.961729 L1057.63111,903.576628 L1057.82381,903.096617 L1058.01583,902.710833 L1058.20853,902.327097 L1058.49759,902.038954 L1058.78596,901.65317 L1059.07433,901.36571 L1059.36339,901.173159 L1059.74879,900.884333 L1060.13351,900.692465 L1060.51824,900.499915 L1060.90296,900.308047 L1061.38403,900.211772 L1061.86511,900.115496 L1062.34618,900.019221 L1062.53889,900.019221 Z M1052.62698,911.172818 L1052.62698,910.788399 L1052.53063,910.307023 L1052.43428,909.827012 L1052.33861,909.153767 L1052.24226,908.481206 L1052.14591,907.711686 L1052.04955,906.942167 L1051.9532,906.268922 L1051.85753,905.595678 L1051.76118,905.019392 L1051.66483,904.63429 L1051.66483,904.249872 L1051.47213,903.576628 L1051.47213,902.904066 L1051.37646,902.327097 L1051.28011,901.846403 L1051.28011,901.268751 L1051.18376,900.788741 L1051.08741,900.788741 L1050.99105,901.36571 L1050.89539,901.941996 L1050.70268,902.518965 L1050.50998,903.192209 L1050.31796,903.866136 L1050.31796,903.961729 L1050.22161,904.249872 L1050.12526,904.63429 L1049.93255,905.115667 L1049.74053,905.788911 L1049.54783,906.46079 L1049.25878,907.134717 L1049.06676,907.904237 L1048.87405,908.577481 L1048.58568,909.24936 L1048.39298,909.923287 L1048.29663,910.404664 L1048.10461,910.788399 L1048.00826,911.076542 L1048.00826,911.172818 L1045.21748,911.172818 L1045.21748,911.076542 L1045.12113,910.788399 L1045.02478,910.404664 L1044.83207,909.827012 L1044.64005,909.153767 L1044.351,908.481206 L1043.86993,907.038442 L1043.67722,906.365198 L1043.4852,905.788911 L1043.29318,905.211259 L1043.10048,904.827524 L1043.10048,904.538015 L1043.00413,904.44174 L1042.90778,903.866136 L1042.71507,903.38476 L1042.4267,902.327097 L1042.33035,901.749445 L1042.13765,901.268751 L1042.13765,900.788741 L1042.0413,900.788741 L1042.0413,901.36571 L1041.94563,902.038954 L1041.84928,902.61524 L1041.84928,903.192209 L1041.75293,903.866136 L1041.65657,904.44174 L1041.65657,904.538015 L1041.56022,904.923116 L1041.56022,905.40381 L1041.46455,905.980779 L1041.3682,906.654706 L1041.27185,907.42286 L1041.1755,908.19238 L1041.07915,908.9619 L1040.98348,909.635144 L1040.88713,910.692807 L1040.88713,911.076542 L1040.79078,911.172818 L1038,911.172818 L1040.21335,896.653682 L1043.4852,896.653682 L1043.4852,896.749957 L1043.58155,897.038783 L1043.77426,897.423202 L1043.96628,897.903895 L1044.15898,898.57714 L1044.64005,900.019221 L1045.02478,901.461302 L1045.31383,902.134546 L1045.50585,902.808474 L1045.89057,903.961729 L1045.89057,904.058004 L1046.08328,904.731249 L1046.27598,905.307535 L1046.468,905.885187 L1046.56503,906.557065 L1046.75705,907.134717 L1046.94976,906.557065 L1047.04611,905.885187 L1047.23813,905.307535 L1047.43083,904.731249 L1047.62285,904.153597 L1047.62285,904.058004 L1047.7192,903.769861 L1047.81555,903.38476 L1048.00826,902.808474 L1048.29663,902.230822 L1048.48933,901.461302 L1048.68135,900.788741 L1048.97041,900.019221 L1049.25878,899.249701 L1049.45148,898.57714 L1049.6435,897.999488 L1049.83689,897.423202 L1049.93255,897.038783 L1050.02891,896.749957 L1050.12526,896.653682 L1053.39711,896.653682 L1055.61046,911.172818 L1052.62698,911.172818 Z M1094.0062,902.230822 L1093.81418,901.941996 L1093.71782,901.65317 L1093.71782,900.980608 L1093.81418,900.692465 L1093.91053,900.403639 L1094.48727,900.403639 L1094.96903,900.308047 L1095.54577,900.308047 L1096.12388,900.211772 L1098.24088,900.211772 L1098.24088,900.884333 L1098.14453,901.65317 L1098.04818,902.42269 L1098.24088,902.038954 L1098.52925,901.557577 L1098.81762,901.173159 L1099.10736,900.788741 L1099.4914,900.499915 L1099.87749,900.308047 L1100.35788,900.115496 L1100.93599,900.019221 L1101.51205,900.019221 L1101.51205,900.403639 L1101.41638,901.36571 L1101.41638,902.808474 L1100.93599,902.710833 L1100.5499,902.710833 L1100.16586,902.808474 L1099.77977,902.904066 L1099.4914,903.096617 L1099.29938,903.288485 L1099.01101,903.576628 L1098.81762,903.961729 L1098.6256,904.44174 L1098.52925,904.923116 L1098.4329,905.40381 L1098.4329,906.077054 L1098.33655,906.750299 L1098.33655,911.172818 L1095.64212,911.172818 L1095.64212,902.42269 L1095.0647,902.327097 L1094.58362,902.230822 L1094.0062,902.230822 Z M1113.15691,911.366051 L1112.29112,911.366051 L1111.52099,911.26841 L1110.84653,911.172818 L1110.84653,909.443276 L1110.94288,908.865624 L1111.42464,909.057492 L1112.00138,909.153767 L1112.67516,909.153767 L1113.25326,909.24936 L1114.02203,909.153767 L1114.60014,908.865624 L1114.88782,908.577481 L1115.08189,908.096105 L1114.98417,907.807961 L1114.88782,907.519818 L1114.79216,907.326585 L1114.60014,907.23031 L1114.31176,907.038442 L1114.11906,906.942167 L1113.83001,906.750299 L1113.44528,906.654706 L1113.15691,906.557065 L1112.86717,906.46079 L1112.48314,906.268922 L1112.19476,906.17333 L1111.90503,905.980779 L1111.61666,905.788911 L1111.32828,905.499403 L1111.03923,905.211259 L1110.84653,904.827524 L1110.75086,904.44174 L1110.65451,904.058004 L1110.65451,903.096617 L1110.75086,902.710833 L1110.84653,902.327097 L1111.03923,901.941996 L1111.23262,901.65317 L1111.42464,901.36571 L1111.80936,901.076884 L1112.09773,900.788741 L1112.57949,900.59619 L1112.96353,900.403639 L1113.44528,900.211772 L1114.02203,900.115496 L1114.60014,900.019221 L1115.94769,900.019221 L1116.62078,900.115496 L1117.19821,900.211772 L1117.19821,902.42269 L1116.52443,902.327097 L1115.85066,902.134546 L1115.17756,902.134546 L1114.40743,902.230822 L1113.92567,902.42269 L1113.6373,902.808474 L1113.54164,903.288485 L1113.54164,903.480352 L1113.6373,903.769861 L1113.83001,903.961729 L1114.02203,904.058004 L1114.21541,904.249872 L1114.50378,904.346147 L1114.79216,904.44174 L1115.08189,904.63429 L1115.46593,904.731249 L1115.7543,904.827524 L1116.14039,905.019392 L1116.42808,905.211259 L1116.71645,905.40381 L1117.00619,905.595678 L1117.29456,905.885187 L1117.58293,906.17333 L1117.77495,906.46079 L1117.87267,906.846574 L1117.96834,907.326585 L1117.96834,908.19238 L1117.87267,908.577481 L1117.77495,908.9619 L1117.58293,909.345635 L1117.39091,909.635144 L1117.10254,910.01888 L1116.8128,910.307023 L1116.52443,910.500256 L1116.14039,910.692807 L1115.7543,910.884674 L1115.27391,911.076542 L1114.79216,911.26841 L1114.21541,911.26841 L1113.73366,911.366051 L1113.15691,911.366051 Z M1073.41294,900.211772 L1073.41294,901.557577 L1073.31727,902.230822 L1073.60564,901.846403 L1073.89401,901.36571 L1074.18307,901.076884 L1074.56779,900.788741 L1074.95251,900.499915 L1075.43427,900.308047 L1075.91535,900.115496 L1076.49209,900.019221 L1077.64694,900.019221 L1078.12801,900.115496 L1078.60977,900.308047 L1078.99449,900.499915 L1079.28286,900.788741 L1079.57192,901.076884 L1079.86029,901.36571 L1079.95664,901.749445 L1080.14934,902.134546 L1080.2457,902.61524 L1080.2457,911.172818 L1077.55127,911.172818 L1077.55127,904.153597 L1077.45492,903.576628 L1077.35857,903.096617 L1077.06951,902.710833 L1076.68479,902.42269 L1076.20372,902.327097 L1075.72264,902.42269 L1075.33792,902.518965 L1074.95251,902.808474 L1074.66414,903.096617 L1074.37509,903.38476 L1074.08672,903.866136 L1073.89401,904.249872 L1073.70199,904.827524 L1073.70199,905.307535 L1073.60564,905.885187 L1073.60564,911.172818 L1070.81487,911.172818 L1070.81487,902.42269 L1070.33379,902.327097 L1069.75637,902.230822 L1069.17894,902.230822 L1069.08259,901.941996 L1068.98624,901.65317 L1068.88988,901.268751 L1068.98624,900.980608 L1069.08259,900.692465 L1069.17894,900.403639 L1069.66001,900.403639 L1070.23744,900.308047 L1070.81487,900.308047 L1071.29594,900.211772 L1073.41294,900.211772 Z M1106.70956,898.865283 L1106.13145,898.769008 L1105.65106,898.57714 L1105.36132,898.192721 L1105.07295,897.711345 L1104.97728,897.134376 L1105.07295,896.653682 L1105.36132,896.172988 L1105.65106,895.78857 L1106.13145,895.596019 L1106.70956,895.499744 L1107.28562,895.596019 L1107.76806,895.78857 L1108.1521,896.172988 L1108.34412,896.653682 L1108.44184,897.134376 L1108.34412,897.711345 L1108.1521,898.192721 L1107.76806,898.57714 L1107.28562,898.769008 L1106.70956,898.865283 Z M1108.1521,900.211772 L1108.1521,911.172818 L1105.36132,911.172818 L1105.36132,902.42269 L1104.88093,902.327097 L1104.30282,902.230822 L1103.72676,902.230822 L1103.5327,901.941996 L1103.43703,901.65317 L1103.43703,900.980608 L1103.5327,900.692465 L1103.72676,900.403639 L1104.20716,900.403639 L1104.78458,900.308047 L1105.36132,900.308047 L1105.93943,900.211772 L1108.1521,900.211772 Z M1146.45285,880.018538 L1146.5492,880.114813 L1146.64487,880.211772 L1146.74122,880.307364 L1146.83689,880.403639 L1146.83689,880.499915 L1146.93324,880.59619 L1146.93324,881.076884 L1146.83689,881.173159 L1146.83689,881.268751 L1146.74122,881.365027 L1146.64487,881.365027 L1146.5492,881.461302 L1145.97109,881.461302 L1145.87474,881.365027 L1145.77907,881.365027 L1145.10461,880.980608 L1144.33449,880.788058 L1143.66207,880.59619 L1141.73709,880.59619 L1141.15967,880.788058 L1140.48658,880.884333 L1139.90915,881.173159 L1139.33104,881.365027 L1138.7543,881.749445 L1138.36889,882.038271 L1137.98417,882.42269 L1137.59876,882.807108 L1137.21404,883.287802 L1136.92567,883.769178 L1136.73365,884.153597 L1136.63661,884.442423 L1136.44391,884.63429 L1136.34824,884.826841 L1136.25189,885.114984 L1136.15622,885.40381 L1136.05987,885.884504 L1136.05987,886.845891 L1136.15622,887.519136 L1136.25189,888.096105 L1136.44391,888.673074 L1136.63661,889.153767 L1136.83,889.634461 L1137.21404,890.115155 L1137.50241,890.595849 L1137.8885,890.98095 L1138.27254,891.365368 L1138.7543,891.846062 L1139.23469,892.134205 L1139.71645,892.519306 L1140.19752,892.807449 L1140.67928,893.096275 L1141.15967,893.288143 L1141.73709,893.480694 L1142.21817,893.576969 L1142.79559,893.672562 L1143.27599,893.76952 L1144.33449,893.76952 L1144.81624,893.672562 L1145.39435,893.576969 L1145.97109,893.480694 L1146.5492,893.288143 L1147.12526,893 L1147.70337,892.807449 L1148.18513,892.519306 L1148.66552,892.134205 L1149.05024,891.749787 L1149.43565,891.365368 L1149.82037,890.98095 L1150.10943,890.595849 L1150.3978,890.115155 L1150.68617,889.634461 L1150.87819,889.153767 L1151.07226,888.673074 L1151.16793,888.19238 L1151.36063,887.711686 L1151.36063,887.230992 L1151.4563,886.749616 L1151.4563,885.788228 L1151.36063,885.307535 L1151.26428,884.826841 L1151.16793,884.346147 L1151.07226,883.865454 L1150.87819,883.287802 L1150.68617,882.807108 L1150.3978,882.326414 L1150.20578,881.845721 L1149.91604,881.365027 L1149.62767,880.884333 L1149.33998,880.403639 L1149.05024,880.018538 L1148.66552,879.63412 L1148.37715,879.249701 L1147.99174,878.865283 L1147.60702,878.480182 L1147.22298,878.095763 L1146.74122,877.711345 L1146.3565,877.423202 L1145.87474,877.134376 L1145.39435,876.846233 L1145.00895,876.557407 L1144.52787,876.269264 L1143.95045,875.980438 L1143.47006,875.78857 L1142.9883,875.596019 L1142.41019,875.403469 L1141.83345,875.210918 L1141.25534,875.01905 L1140.67928,874.922775 L1140.10117,874.8265 L1139.42739,874.730224 L1138.947,874.634632 L1137.8885,874.634632 L1137.40674,874.538356 L1136.83,874.538356 L1136.34824,874.634632 L1135.7715,874.634632 L1135.28974,874.730224 L1134.80935,874.730224 L1134.23124,874.8265 L1133.74949,874.922775 L1133.2691,875.01905 L1132.78734,875.115326 L1132.2106,875.307193 L1131.72884,875.403469 L1131.24845,875.596019 L1130.76669,875.78857 L1130.2863,875.884162 L1129.80454,876.172988 L1129.32347,876.364856 L1128.84171,876.557407 L1127.87956,877.134376 L1127.49552,877.326926 L1127.01376,877.615069 L1126.24363,878.192039 L1125.85891,878.480182 L1125.47487,878.769008 L1124.99312,879.153426 L1124.70474,879.442252 L1124.31865,879.82667 L1123.93462,880.211772 L1123.54989,880.59619 L1122.87612,881.365027 L1122.58774,881.749445 L1122.29801,882.133864 L1122.00964,882.518965 L1121.72126,882.903383 L1121.52788,883.287802 L1121.23951,883.769178 L1121.04749,884.153597 L1120.75912,884.63429 L1120.56573,885.019392 L1120.37371,885.500085 L1120.18169,885.980779 L1119.98899,886.461473 L1119.79697,886.942167 L1119.69925,887.42286 L1119.60358,887.903554 L1119.41156,888.384248 L1119.31521,888.864941 L1119.21886,889.44191 L1119.21886,889.634461 L1119.12319,889.827012 L1118.93117,890.115155 L1118.7371,890.307705 L1118.54508,890.499573 L1118.35306,890.692124 L1118.06469,890.788399 L1117.87267,890.98095 L1117.48658,891.076542 L1117.19821,891.172818 L1116.90984,891.269093 L1116.52443,891.365368 L1115.56228,891.365368 L1115.27391,891.269093 L1115.08189,891.172818 L1114.88782,890.98095 L1114.6958,890.884674 L1114.50378,890.692124 L1114.40743,890.499573 L1114.40743,889.827012 L1114.50378,889.345635 L1114.6958,888.864941 L1114.79216,888.384248 L1114.98417,887.903554 L1115.08189,887.42286 L1115.27391,886.942167 L1115.46593,886.461473 L1115.65795,885.980779 L1115.94769,885.500085 L1116.14039,885.114984 L1116.33241,884.63429 L1116.62078,884.249872 L1116.8128,883.865454 L1117.10254,883.38476 L1117.87267,882.230822 L1118.16104,881.845721 L1118.44873,881.461302 L1118.7371,881.076884 L1119.12319,880.692465 L1119.41156,880.307364 L1119.79697,879.922946 L1120.18169,879.63412 L1120.85547,878.865283 L1121.23951,878.576457 L1121.6256,878.192039 L1122.00964,877.903895 L1122.49003,877.615069 L1122.87612,877.326926 L1123.26015,877.0381 L1123.64624,876.749957 L1124.12664,876.461131 L1124.51204,876.172988 L1124.89676,875.980438 L1125.37852,875.691612 L1125.76324,875.499744 L1126.24363,875.210918 L1126.72539,875.01905 L1127.20578,874.8265 L1127.68754,874.634632 L1128.16793,874.442081 L1128.74604,874.249531 L1129.2278,874.057663 L1129.70819,873.961387 L1130.18995,873.768837 L1130.67034,873.672562 L1131.24845,873.480694 L1131.72884,873.480694 L1132.2106,873.288143 L1132.69099,873.288143 L1133.17274,873.191868 L1133.74949,873.096275 L1134.23124,873.096275 L1134.71163,873 L1137.21404,873 L1137.69443,873.096275 L1138.27254,873.096275 L1138.7543,873.191868 L1139.23469,873.191868 L1139.8128,873.288143 L1140.29319,873.384418 L1140.8713,873.480694 L1141.35169,873.672562 L1141.9298,873.768837 L1142.41019,873.961387 L1142.89195,874.153255 L1143.37234,874.345806 L1143.85409,874.538356 L1144.33449,874.730224 L1144.81624,875.01905 L1145.39435,875.307193 L1145.77907,875.596019 L1146.26083,875.884162 L1146.74122,876.172988 L1147.22298,876.461131 L1147.60702,876.846233 L1147.99174,877.134376 L1148.4735,877.518794 L1148.85754,877.903895 L1149.24363,878.288314 L1149.532,878.672732 L1150.20578,879.442252 L1150.5905,879.922946 L1150.87819,880.307364 L1151.16793,880.788058 L1151.4563,881.268751 L1151.74467,881.749445 L1151.93805,882.230822 L1152.22643,882.711515 L1152.41845,883.287802 L1152.61115,883.769178 L1152.80317,884.346147 L1152.9002,884.922434 L1152.99655,885.500085 L1153.09291,886.17333 L1153.18857,886.749616 L1153.18857,887.903554 L1153.09291,888.576798 L1152.99655,889.153767 L1152.80317,889.730736 L1152.61115,890.403981 L1152.41845,890.98095 L1152.13007,891.557236 L1151.74467,892.134205 L1151.36063,892.711174 L1150.97591,893.288143 L1150.49415,893.76952 L1150.01376,894.250213 L1149.43565,894.730224 L1148.85754,895.115326 L1148.18513,895.499744 L1147.60702,895.78857 L1147.12526,895.980438 L1146.5492,896.172988 L1145.87474,896.365539 L1145.39435,896.55809 L1144.81624,896.55809 L1144.23882,896.653682 L1142.50722,896.653682 L1141.9298,896.55809 L1141.35169,896.461131 L1140.67928,896.269264 L1140.10117,896.076713 L1139.61941,895.884845 L1139.04267,895.596019 L1139.23469,895.884845 L1139.8128,896.365539 L1140.10117,896.55809 L1140.48658,896.846233 L1140.77495,897.038783 L1141.06332,897.230651 L1141.44804,897.423202 L1141.73709,897.615069 L1142.12182,897.711345 L1142.41019,897.903895 L1142.79559,897.999488 L1143.47006,898.192721 L1144.14247,898.384589 L1144.81624,898.57714 L1145.4907,898.673415 L1147.51135,898.673415 L1148.08741,898.57714 L1148.66552,898.480182 L1149.24363,898.288314 L1149.82037,898.192721 L1150.3978,897.999488 L1151.07226,897.615069 L1151.74467,897.230651 L1152.32278,896.846233 L1152.9002,896.365539 L1153.47695,895.884845 L1153.9587,895.404151 L1154.34343,894.8265 L1154.72747,894.250213 L1155.0172,893.672562 L1155.30557,893.096275 L1155.49759,892.519306 L1155.69098,891.846062 L1155.88368,891.172818 L1155.97935,890.595849 L1155.97935,889.922604 L1156.0757,889.345635 L1156.0757,888.288655 L1155.97935,887.807961 L1155.97935,887.230992 L1155.88368,886.749616 L1155.78733,886.17333 L1155.69098,885.691953 L1155.49759,885.211259 L1155.40193,884.63429 L1155.20922,884.153597 L1155.0172,883.672903 L1154.82518,883.095934 L1154.34343,882.133864 L1154.05505,881.65317 L1153.76532,881.173159 L1153.47695,880.692465 L1153.18857,880.307364 L1152.9002,879.82667 L1152.5148,879.345977 L1152.22643,878.961558 L1151.84102,878.576457 L1151.4563,878.192039 L1151.07226,877.80762 L1150.68617,877.423202 L1150.20578,877.0381 L1149.82037,876.653682 L1149.33998,876.364856 L1148.85754,875.980438 L1148.37715,875.691612 L1147.89539,875.403469 L1147.415,875.115326 L1147.31865,875.01905 L1147.22298,874.922775 L1147.12526,874.922775 L1147.02959,874.8265 L1147.02959,874.730224 L1146.93324,874.634632 L1146.93324,874.538356 L1146.83689,874.442081 L1146.83689,874.153255 L1146.93324,874.057663 L1147.02959,873.961387 L1147.60702,873.961387 L1147.70337,874.057663 L1147.79972,874.057663 L1148.28148,874.345806 L1148.76187,874.634632 L1149.72402,875.307193 L1150.20578,875.596019 L1150.5905,875.980438 L1150.97591,876.364856 L1151.4563,876.653682 L1151.84102,877.0381 L1152.22643,877.423202 L1152.61115,877.80762 L1152.99655,878.288314 L1153.28493,878.672732 L1153.66897,879.057151 L1153.9587,879.442252 L1154.24707,879.922946 L1154.6318,880.403639 L1154.92085,880.788058 L1155.20922,881.268751 L1155.40193,881.749445 L1155.69098,882.230822 L1155.97935,882.711515 L1156.17205,883.192209 L1156.36407,883.769178 L1156.55609,884.249872 L1156.74948,884.826841 L1156.9415,885.307535 L1157.03785,885.788228 L1157.32622,886.845891 L1157.51824,887.903554 L1157.51824,888.480523 L1157.61596,889.057492 L1157.61596,891.461644 L1157.51824,892.23048 L1157.32622,893 L1157.22987,893.576969 L1157.03785,894.153938 L1156.84583,894.730224 L1156.65381,895.210918 L1156.36407,895.78857 L1156.0757,896.365539 L1155.78733,896.846233 L1155.40193,897.326926 L1155.0172,897.903895 L1154.53545,898.384589 L1154.15141,898.865283 L1153.5733,899.249701 L1153.18857,899.634802 L1152.70682,899.922946 L1152.22643,900.211772 L1151.74467,900.499915 L1151.26428,900.788741 L1150.68617,900.980608 L1150.20578,901.268751 L1149.62767,901.461302 L1149.05024,901.557577 L1148.4735,901.749445 L1147.79972,901.846403 L1147.22298,901.941996 L1145.20097,901.941996 L1144.72057,901.846403 L1144.14247,901.846403 L1143.56572,901.749445 L1142.9883,901.557577 L1142.41019,901.461302 L1141.83345,901.268751 L1141.35169,901.076884 L1140.8713,900.884333 L1140.38954,900.692465 L1139.90915,900.499915 L1139.42739,900.211772 L1139.04267,899.922946 L1138.56091,899.730395 L1138.17687,899.442252 L1137.69443,899.057833 L1137.31039,898.769008 L1136.92567,898.384589 L1136.63661,897.999488 L1136.25189,897.711345 L1135.57811,896.941825 L1135.28974,896.55809 L1135.00137,896.076713 L1134.71163,895.692295 L1134.42326,895.210918 L1134.23124,894.8265 L1134.03922,894.345806 L1133.84584,893.865112 L1133.65313,893.384418 L1133.46111,893 L1133.2691,892.519306 L1133.17274,891.942337 L1132.98072,891.461644 L1132.88301,890.98095 L1132.88301,890.499573 L1132.78734,889.44191 L1132.78734,887.42286 L1132.88301,886.845891 L1132.98072,886.365198 L1133.17274,885.788228 L1133.2691,885.211259 L1133.46111,884.730566 L1133.65313,884.153597 L1133.94151,883.672903 L1134.23124,883.192209 L1134.51961,882.711515 L1134.61597,882.518965 L1135.00137,882.038271 L1135.19339,881.845721 L1135.28974,881.749445 L1135.3861,881.557577 L1135.57811,881.461302 L1135.67378,881.268751 L1135.7715,881.173159 L1135.96352,880.980608 L1136.05987,880.884333 L1136.34824,880.692465 L1136.54026,880.59619 L1136.83,880.403639 L1137.02202,880.211772 L1137.21404,880.114813 L1137.50241,879.922946 L1137.69443,879.82667 L1137.98417,879.730395 L1138.17687,879.63412 L1138.46456,879.537844 L1138.65726,879.442252 L1138.947,879.345977 L1138.36889,879.345977 L1138.08052,879.442252 L1137.79215,879.442252 L1137.50241,879.537844 L1137.21404,879.537844 L1136.92567,879.63412 L1136.63661,879.730395 L1136.34824,879.82667 L1135.96352,879.922946 L1135.7715,880.018538 L1135.3861,880.114813 L1135.19339,880.307364 L1134.90502,880.403639 L1134.71163,880.499915 L1134.42326,880.692465 L1134.13558,880.788058 L1133.94151,880.980608 L1133.65313,881.076884 L1133.46111,881.268751 L1133.17274,881.461302 L1132.98072,881.557577 L1132.69099,881.749445 L1132.49897,881.941996 L1132.01858,882.326414 L1131.53682,882.711515 L1131.1521,883.095934 L1130.76669,883.576628 L1130.38197,884.057321 L1129.99656,884.538015 L1129.61184,885.019392 L1129.32347,885.595678 L1128.93806,886.17333 L1128.64969,886.749616 L1128.36132,887.326585 L1128.16793,887.999829 L1127.97591,888.576798 L1127.78389,889.250043 L1127.59119,889.827012 L1127.49552,890.499573 L1127.39917,891.076542 L1127.30282,891.653511 L1127.30282,892.23048 L1127.20578,892.807449 L1127.30282,893.384418 L1127.30282,894.442081 L1127.39917,895.01905 L1127.49552,895.596019 L1127.68754,896.172988 L1127.78389,896.749957 L1127.97591,897.326926 L1128.16793,897.80762 L1128.36132,898.384589 L1128.64969,898.961558 L1128.84171,899.538527 L1129.13008,900.019221 L1129.51617,900.499915 L1129.80454,901.076884 L1130.0936,901.461302 L1130.76669,902.230822 L1131.05643,902.61524 L1131.44047,903.000341 L1131.72884,903.38476 L1132.11424,903.769861 L1132.49897,904.058004 L1132.78734,904.44174 L1133.17274,904.731249 L1133.55747,905.019392 L1133.94151,905.307535 L1134.3276,905.595678 L1134.80935,905.788911 L1135.19339,906.077054 L1135.57811,906.365198 L1135.96352,906.557065 L1136.44391,906.750299 L1136.83,906.942167 L1137.31039,907.134717 L1137.79215,907.326585 L1138.27254,907.519818 L1138.7543,907.711686 L1139.23469,907.807961 L1139.71645,907.904237 L1140.19752,908.096105 L1140.67928,908.19238 L1141.15967,908.19238 L1141.64143,908.287972 L1142.12182,908.287972 L1142.60358,908.384248 L1144.04611,908.384248 L1144.52787,908.287972 L1145.00895,908.287972 L1145.4907,908.19238 L1146.06676,908.19238 L1146.5492,907.999829 L1147.12526,907.904237 L1147.60702,907.807961 L1148.08741,907.616094 L1148.56985,907.42286 L1149.05024,907.23031 L1149.532,907.038442 L1150.01376,906.846574 L1150.49415,906.557065 L1150.87819,906.365198 L1151.36063,906.077054 L1151.84102,905.788911 L1152.22643,905.40381 L1152.61115,905.115667 L1152.99655,904.827524 L1153.38128,904.44174 L1153.76532,904.058004 L1154.05505,903.769861 L1154.43909,903.38476 L1155.0172,902.518965 L1155.40193,902.134546 L1155.69098,901.65317 L1155.88368,901.268751 L1156.17205,900.788741 L1156.26772,900.692465 L1156.36407,900.59619 L1156.45974,900.499915 L1156.55609,900.403639 L1157.03785,900.403639 L1157.22987,900.499915 L1157.32622,900.59619 L1157.42257,900.692465 L1157.51824,900.788741 L1157.71163,900.884333 L1157.80798,901.076884 L1157.80798,901.268751 L1157.90433,901.461302 L1158,901.65317 L1158,902.518965 L1157.90433,902.710833 L1157.90433,902.808474 L1157.61596,903.288485 L1157.42257,903.769861 L1157.1342,904.249872 L1156.9415,904.63429 L1156.65381,905.115667 L1156.36407,905.499403 L1156.0757,905.885187 L1155.78733,906.268922 L1155.11355,907.038442 L1154.72747,907.42286 L1154.43909,907.807961 L1154.05505,908.096105 L1153.66897,908.481206 L1153.28493,908.769349 L1152.9002,909.153767 L1152.5148,909.443276 L1152.13007,909.730736 L1151.74467,910.01888 L1151.36063,910.307023 L1150.87819,910.500256 L1150.49415,910.788399 L1150.01376,910.98095 L1149.62767,911.26841 L1149.14728,911.462326 L1148.66552,911.654194 L1148.18513,911.846062 L1147.79972,912.03793 L1147.31865,912.134205 L1146.83689,912.327438 L1146.26083,912.423714 L1145.77907,912.519306 L1145.29663,912.615582 L1144.81624,912.711857 L1144.33449,912.807449 L1143.85409,912.903725 L1143.37234,912.903725 L1142.89195,913 L1140.96765,913 L1140.48658,912.903725 L1140.00482,912.903725 L1139.52306,912.807449 L1139.04267,912.711857 L1138.56091,912.711857 L1138.08052,912.615582 L1137.59876,912.423714 L1137.11837,912.327438 L1136.63661,912.23048 L1136.15622,912.03793 L1135.67378,911.942337 L1135.19339,911.750469 L1134.71163,911.557919 L1134.3276,911.366051 L1133.07708,910.692807 L1132.59532,910.500256 L1132.2106,910.21143 L1131.82519,910.01888 L1131.44047,909.730736 L1131.05643,909.443276 L1130.67034,909.153767 L1130.2863,908.865624 L1129.90021,908.577481 L1129.51617,908.287972 L1128.84171,907.616094 L1128.16793,906.942167 L1127.20578,905.788911 L1126.82106,905.40381 L1126.53269,905.019392 L1126.24363,904.63429 L1125.95526,904.249872 L1125.66689,903.769861 L1125.37852,903.288485 L1125.18513,902.904066 L1124.89676,902.42269 L1124.70474,901.941996 L1124.51204,901.461302 L1124.31865,900.980608 L1124.12664,900.499915 L1123.93462,900.019221 L1123.7426,899.538527 L1123.64624,898.961558 L1123.45286,898.384589 L1123.35651,897.903895 L1123.26015,897.326926 L1123.16449,896.749957 L1123.16449,896.269264 L1123.06814,895.692295 L1123.06814,894.057663 L1123.16449,893.576969 L1123.16449,892.519306 L1123.26015,891.942337 L1123.35651,891.365368 L1123.45286,890.884674 L1123.64624,890.307705 L1123.7426,889.730736 L1123.93462,889.153767 L1124.12664,888.576798 L1124.31865,888.096105 L1124.60839,887.519136 L1124.80041,887.038442 L1125.08878,886.557748 L1125.2808,886.076372 L1125.57054,885.595678 L1125.85891,885.114984 L1126.14728,884.63429 L1126.43702,884.249872 L1126.82106,883.769178 L1127.20578,883.287802 L1127.49552,882.903383 L1127.97591,882.42269 L1128.36132,882.038271 L1128.74604,881.65317 L1129.2278,881.173159 L1129.70819,880.788058 L1130.2863,880.403639 L1130.76669,880.018538 L1131.3448,879.730395 L1131.82519,879.442252 L1132.40261,879.153426 L1132.88301,878.865283 L1133.46111,878.576457 L1134.03922,878.384589 L1134.61597,878.192039 L1135.19339,877.999488 L1135.7715,877.80762 L1136.34824,877.711345 L1136.92567,877.615069 L1137.59876,877.518794 L1139.8128,877.518794 L1140.38954,877.615069 L1140.8713,877.615069 L1141.54508,877.80762 L1142.12182,877.903895 L1142.79559,878.095763 L1143.37234,878.288314 L1143.95045,878.480182 L1144.52787,878.769008 L1145.00895,879.057151 L1145.58637,879.345977 L1146.06676,879.730395 L1146.45285,880.018538 Z" id="Combined-Shape"></path>
        </g>
    </g>
</svg>