<svg width="120" height="40" viewBox="0 0 120 40" xmlns="http://www.w3.org/2000/svg"><title>4CA98D29-669B-49C1-AA88-73709563C189</title><path d="M49.655 38.366h-.577l-.385-.098-.481-.095-.385-.096-.385-.192-.385-.192-.385-.193-.289-.193-.289-.288-.288-.288-.193-.288-.192-.386-.193-.383-.192-.386-.096-.384-.097-.481-.096-.48v-2.115l.096-.482.097-.48.096-.481.192-.385.193-.481.192-.384.29-.289.288-.385.289-.288.288-.192.385-.289.385-.192.385-.192.481-.096.481-.097.482-.096h.962l.577.096.385.097.481.192.386.096.384.289.385.192.288.288.193.289.288.384.193.385.097.384.192.386.096.383.096.482v1.73l-.096.481h-6.736v.577l.096.48.193.482.192.384.29.385.288.193.384.288.482.095.192.097h2.02l.483-.097.576-.191.481-.192.578-.193v.576l.193 1.058v.578l-.482.192-.577.096-.481.192-.577.095-.578.098h-1.636zm0-9.231h-.48l-.482.192-.385.384-.385.386-.192.48-.097.673h3.946v-.673l-.193-.48-.289-.482-.384-.288-.385-.192-.577-.096-.097.096zm-25.116.288h-.385l-.385.096-.385.192-.288.29-.385.384-.193.385-.192.576-.192.577v1.346l.096.578.096.48.192.481.193.384.288.29.289.192.385.192.481.096h.866l.289-.096.385-.192.384-.193.193-.289.289-.384.192-.481.097-.48.096-.578.096-.576-.096-.674-.096-.577-.097-.576-.192-.386-.289-.383-.289-.289-.385-.193-.48-.192h-.578zm0-2.404h.77l.481.096h.385l.48.193.386.096.385.192.288.193.386.192.288.288.289.192.192.385.289.289.192.384.193.385.096.48.097.482.095.576.097.481v1.058l-.097.48-.095.481-.097.48-.192.482-.097.384-.192.386-.289.383-.288.386-.193.288-.385.288-.289.288-.384.29-.385.191-.385.193-.385.096-.481.191h-.385l-.482.098h-1.443l-.481-.098-.385-.095-.384-.096-.385-.192-.386-.192-.289-.193-.288-.289-.288-.288-.29-.288-.192-.386-.192-.287-.193-.48-.192-.386-.096-.48-.097-.578v-2.115l.097-.481.192-.48.096-.385.193-.48.192-.386.193-.384.289-.288.288-.386.288-.287.29-.193.385-.289.385-.192.384-.192.385-.192.481-.096.481-.097.481-.096h.193zm-9.912 11.154v-.385l-.096-.481-.097-.48-.095-.673-.097-.673-.096-.77-.096-.769-.097-.673-.095-.673-.097-.577-.096-.385v-.384l-.193-.673v-.673l-.096-.577-.096-.48v-.578l-.096-.48h-.097l-.096.577-.096.576-.192.577-.193.673-.192.674v.096l-.096.288-.097.384-.192.482-.192.673-.193.672-.29.674-.191.77-.193.672-.288.672-.193.674-.096.482-.192.383-.097.289v.096h-2.79v-.096l-.097-.289-.096-.383-.193-.578-.192-.673-.289-.673-.481-1.443-.193-.673-.192-.576-.192-.578-.193-.383v-.29l-.096-.096-.096-.576-.193-.481-.288-1.058-.097-.578-.192-.48v-.48H4.04v.577l-.095.673-.097.576v.577l-.096.674-.096.576v.096l-.097.385v.48l-.095.578-.097.674-.096.768-.097.77-.096.769-.096.673-.096 1.058v.384l-.096.096H0l2.213-14.52h3.272v.097l.097.289.192.384.192.48.193.674.481 1.442.385 1.442.289.674.192.673.385 1.154v.096l.192.673.193.577.192.577.097.672.192.578.193-.578.096-.672.192-.577.193-.577.192-.577v-.096l.096-.288.097-.385.192-.577.289-.577.192-.77.192-.672.29-.77.288-.77.192-.672.192-.578.194-.576.096-.384.096-.289.096-.096h3.272l2.213 14.519h-2.983zm41.38-8.942l-.193-.289-.096-.289v-.672l.096-.289.097-.288h.576l.482-.096h.577l.578-.096h2.117v.672l-.096.77-.097.769.193-.384.288-.481.289-.385.29-.384.383-.29.386-.191.48-.193.579-.096h.576v.385l-.096.962v1.442l-.48-.097h-.386l-.384.097-.386.096-.289.193-.192.191-.288.289-.193.385-.192.48-.097.481-.096.48v.674l-.096.673v4.423h-2.695v-8.75l-.577-.096-.481-.096h-.578zm19.15 9.135h-.866l-.77-.098-.674-.095v-1.73l.096-.577.482.191.576.097h.674l.578.095.769-.095.578-.288.288-.289.194-.48-.098-.289-.096-.288-.096-.193-.192-.097-.288-.192-.193-.096-.289-.192-.385-.095-.288-.098-.29-.096-.384-.192-.288-.096-.29-.192-.288-.192-.289-.29-.289-.288-.192-.383-.096-.386-.096-.384v-.961l.096-.386.096-.384.192-.385.194-.289.192-.287.384-.29.289-.287.481-.193.385-.192.481-.192.577-.097.578-.096h1.348l.673.096.577.097v2.21l-.674-.095-.673-.192h-.673l-.77.096-.482.192-.289.385-.095.48v.192l.095.29.193.192.192.096.193.192.289.096.288.096.29.192.384.097.288.097.386.191.288.192.288.193.29.192.289.29.288.287.192.288.098.386.095.48v.865l-.095.385-.098.385-.192.384-.192.29-.288.383-.29.288-.289.193-.384.193-.386.192-.48.192-.482.191h-.577l-.481.098h-.577zM35.413 27.212v1.346l-.096.673.289-.385.288-.48.29-.29.384-.287.385-.29.481-.191.481-.193.577-.096h1.155l.481.096.482.193.384.192.289.289.289.288.288.289.097.383.192.386.097.48v8.558H39.55v-7.02l-.096-.576-.096-.48-.29-.386-.384-.288-.481-.096-.481.096-.385.096-.385.29-.289.288-.289.288-.288.481-.193.384-.192.578v.48l-.096.577v5.288h-2.791v-8.75l-.481-.096-.578-.096h-.577l-.096-.289-.097-.289-.096-.384.096-.288.097-.289.096-.288h.481l.577-.096h.578l.48-.096h2.118zm33.297-1.347l-.579-.096-.48-.192-.29-.384-.288-.482-.096-.577.096-.48.288-.481.29-.384.48-.193.579-.096.576.096.482.193.384.384.192.48.098.481-.098.577-.192.482-.384.384-.482.192-.576.096zm1.442 1.347v10.96h-2.79v-8.75l-.481-.095-.578-.096h-.576l-.194-.289-.096-.289v-.672l.096-.289.194-.288h.48l.578-.096h.576l.578-.096h2.213zm38.3-20.193l.097.096.096.097.096.095.096.097V7.5l.096.096v.48l-.096.097v.096l-.096.096h-.096l-.096.096h-.578l-.096-.096h-.096l-.674-.384-.77-.193-.673-.192h-1.925l-.577.192-.673.096-.578.29-.578.191-.577.384-.385.29-.385.384-.385.384-.385.48-.288.482-.192.385-.097.288-.193.192-.096.193-.096.288-.096.289-.096.48v.962l.096.673.096.577.192.577.193.48.193.481.384.481.288.48.387.386.384.384.481.481.48.288.482.385.482.288.481.29.48.191.578.193.481.096.578.096.48.097h1.058l.482-.097.578-.096.577-.096.578-.193.576-.288.578-.193.482-.288.48-.385.385-.384.386-.385.384-.384.29-.385.288-.48.288-.482.192-.48.194-.48.096-.482.193-.48v-.481l.095-.481v-.962l-.095-.48-.097-.481-.096-.48-.096-.482-.194-.577-.192-.48-.288-.482-.192-.48-.29-.481-.288-.48-.288-.481-.29-.385-.384-.385-.289-.384-.385-.385-.385-.385-.384-.384-.482-.385-.384-.288-.482-.289-.48-.288-.386-.289-.481-.288-.578-.289-.48-.191-.482-.193-.578-.193-.577-.192-.578-.192-.576-.096-.578-.096-.674-.097-.48-.095h-1.058l-.482-.097h-.577l-.482.097h-.576l-.482.095h-.48l-.579.097-.482.096-.48.096-.482.096-.576.192-.482.096-.48.193-.482.193-.48.095-.482.289-.482.192-.481.192-.962.577-.384.193-.482.288-.77.577-.385.288-.384.289-.482.384-.288.29-.386.384-.384.385-.385.384-.674.769-.288.384-.29.385-.288.385-.289.384-.193.385-.288.481-.193.385-.288.48-.193.385-.192.481-.192.48-.193.481-.192.481-.098.48-.095.482-.192.48-.097.48-.096.578v.192l-.096.193-.192.288-.194.193-.192.192-.192.192-.288.096-.192.193-.386.096-.289.096-.288.096-.386.096h-.962l-.288-.096-.192-.096-.194-.192-.192-.096-.192-.193-.097-.192v-.673l.097-.481.192-.481.096-.48.192-.481.098-.481.192-.48.192-.482.192-.48.29-.48.192-.386.192-.48.289-.385.192-.385.29-.48.77-1.154.288-.385.288-.385.288-.384.386-.385.289-.385.385-.384.385-.289.673-.769.385-.289.386-.384.384-.288.48-.289.386-.288.384-.289.386-.288.48-.289.386-.288.385-.193.482-.288.384-.192.48-.29.482-.191.48-.192.483-.192.48-.193.578-.192.482-.192.48-.097.482-.192.48-.096.578-.192h.48l.483-.193h.48l.482-.096.576-.096h.482l.48-.096h2.503l.48.096h.579l.481.096h.48l.579.096.48.096.578.097.48.192.579.096.48.192.482.192.48.193.482.192.48.192.482.289.578.288.385.289.482.288.48.289.482.288.384.385.385.288.481.385.385.385.386.384.288.385.674.77.385.48.287.384.29.481.288.48.289.481.193.482.288.48.192.577.193.481.192.577.097.576.097.578.096.673.096.577v1.154l-.096.673-.096.577-.194.577-.192.673-.193.577-.288.576-.385.577-.384.577-.385.577-.482.482-.48.48-.578.48-.578.385-.673.385-.578.289-.482.191-.576.193-.674.193-.48.192h-.579l-.577.096h-1.732l-.577-.096-.578-.097-.673-.192-.578-.192-.482-.192-.576-.289.192.289.578.48.288.193.386.288.288.193.288.192.385.192.29.192.384.096.288.193.386.095.674.194.672.192.674.192.675.096h2.02l.576-.096.579-.097.578-.192.576-.095.578-.194.674-.384.673-.384.578-.385.577-.48.577-.481.482-.48.384-.578.384-.577.29-.577.289-.577.192-.577.193-.673.193-.673.095-.577v-.673l.097-.577v-1.057l-.097-.481v-.577l-.095-.481-.097-.577-.096-.481-.193-.48-.096-.578-.193-.48-.192-.481-.192-.577-.482-.962-.288-.48-.29-.48-.288-.482-.288-.385-.289-.48-.385-.481-.289-.384-.385-.386-.385-.384-.384-.384-.386-.385-.48-.385-.386-.384-.48-.29-.482-.384-.48-.288-.483-.289-.48-.288-.096-.096-.096-.096h-.098l-.095-.096V1.73l-.097-.095v-.097l-.096-.096v-.289l.096-.095.097-.097h.577l.096.097h.097l.481.288.48.289.963.672.482.289.385.384.385.385.48.289.385.384.385.385.385.385.386.48.288.385.384.384.29.385.288.48.385.482.289.384.288.48.193.481.289.482.288.48.193.481.192.577.192.48.193.578.193.48.096.481.288 1.058.192 1.058v.577l.098.576v2.405l-.098.768-.192.77-.096.577-.192.577-.192.576-.192.48-.29.579-.288.577-.289.48-.385.48-.385.578-.482.48-.384.481-.578.385-.384.385-.482.288-.48.289-.482.288-.48.289-.579.192-.48.288-.578.192-.578.097-.576.191-.674.097-.577.096h-2.022l-.48-.096h-.579l-.576-.097-.578-.191-.578-.097-.577-.192-.481-.192-.48-.193-.482-.192-.48-.192-.483-.288-.384-.29-.482-.192-.384-.288-.483-.384-.384-.289-.384-.384-.29-.386-.384-.288-.674-.77-.288-.383-.289-.481-.29-.385-.288-.481-.192-.384-.192-.481-.193-.48-.193-.482-.192-.384-.192-.48-.096-.578-.192-.48-.098-.481V17.5l-.096-1.058v-2.02l.096-.576.098-.48.192-.578.096-.577.192-.48.192-.577.289-.481.29-.48.288-.481.096-.193.385-.48.192-.193.097-.097.096-.191.192-.097.096-.192.098-.096.192-.192.096-.097.288-.192.192-.096.29-.192.192-.192.192-.097.288-.192.192-.096.29-.097.193-.096.288-.096.192-.096.29-.096h-.578l-.288.096h-.289l-.29.096h-.288l-.288.096-.29.096-.288.097-.384.096-.192.096-.386.096-.193.192-.288.097-.193.096-.289.192-.287.096-.194.193-.289.096-.192.192-.288.192-.192.097-.29.191-.192.193-.48.384-.482.386-.385.384-.385.48-.385.481-.385.481-.385.481-.289.577-.385.577-.288.577-.289.577-.193.673-.192.577-.192.673-.193.577-.095.673-.097.577-.096.577v.576l-.097.577.097.577v1.058l.096.577.097.577.192.577.096.577.192.577.192.48.193.578.289.577.192.577.288.48.386.48.289.578.289.384.673.77.29.384.383.385.289.385.385.385.385.288.288.384.386.29.384.287.385.289.386.288.481.193.384.288.385.288.386.192.48.193.386.192.48.193.482.192.48.193.482.192.48.096.482.096.482.192.481.096h.48l.482.096h.48l.483.096h1.442l.482-.096h.48l.483-.096h.576l.482-.192.576-.096.482-.096.48-.192.483-.193.48-.193.482-.192.482-.191.48-.29.384-.192.483-.288.48-.288.385-.385.385-.288.386-.288.384-.386.384-.384.29-.288.384-.385.578-.866.385-.384.289-.482.193-.384.288-.48.096-.097.096-.096.096-.096.096-.096h.482l.192.096.096.096.097.096.095.097.194.095.096.193v.192l.096.192.096.192v.866l-.096.192v.097l-.288.48-.193.482-.289.48-.192.384-.288.482-.29.383-.288.386-.289.384-.673.77-.387.384-.288.385-.384.288-.386.385-.384.288-.385.385-.385.29-.385.287-.385.288-.384.288-.483.193-.384.288-.48.193-.386.287-.48.194-.482.192-.48.192-.386.192-.481.096-.482.193-.576.097-.482.095-.482.097-.48.096-.483.095-.48.097h-.482l-.48.096h-1.924l-.481-.096h-.482l-.482-.097-.48-.095h-.482l-.48-.096-.482-.192-.48-.097-.482-.097-.48-.192-.483-.096-.48-.192-.482-.192-.384-.192-1.25-.673-.483-.193-.384-.289-.386-.192-.385-.288-.384-.288-.386-.29-.384-.287-.386-.289-.384-.289-.674-.672-.674-.674-.962-1.153-.385-.385-.288-.385-.29-.385-.288-.384-.288-.48-.288-.482-.194-.384-.288-.481-.192-.481-.193-.48-.193-.481-.192-.481-.192-.48-.192-.481-.097-.577-.193-.577-.096-.481-.097-.577-.096-.577v-.48l-.096-.578v-1.634l.096-.481v-1.058l.096-.577.097-.577.096-.48.193-.577.097-.577.192-.577.192-.577.192-.48.29-.578.191-.48.289-.481.192-.482.29-.48.288-.481.288-.48.29-.385.384-.48.385-.482.29-.385.48-.48.385-.385.385-.385.482-.48.48-.385.578-.384.48-.385.579-.289.48-.288.578-.289.48-.288.578-.289.578-.191.577-.193.577-.193.579-.191.576-.097.578-.096.673-.096h2.214l.577.096h.481l.674.193.577.096.674.192.576.192.578.192.578.289.48.288.578.289.48.384.387.289z" fill="#FFF" opacity=".4"/></svg>