<?xml version="1.0" encoding="UTF-8"?>
<svg width="100px" height="100px" viewBox="0 0 100 100" version="1.1" xmlns="http://www.w3.org/2000/svg" xmlns:xlink="http://www.w3.org/1999/xlink">
    <!-- Generator: sketchtool 53 (72520) - https://sketchapp.com -->
    <title>B7DE4CC9-90FC-4F73-8601-4E3EB993235A</title>
    <desc>Created with sketchtool.</desc>
    <g id="Desktop" stroke="none" stroke-width="1" fill="none" fill-rule="evenodd">
        <g id="Landing-page" transform="translate(-592.000000, -4243.000000)" fill-rule="nonzero">
            <g id="Group-15" transform="translate(162.000000, 4023.000000)">
                <g id="Group-20" transform="translate(390.000000, 0.000000)">
                    <g id="visualization" transform="translate(40.000000, 220.000000)">
                        <path d="M100,50 C100,77.6145936 77.6145936,100 50,100 C22.3854064,100 0,77.6145936 0,50 C0,22.3854064 22.3854064,0 50,0 C77.6145936,0 100,22.3854064 100,50 Z" id="Path" fill="#243340"></path>
                        <g id="Group-18" transform="translate(0.000000, 15.000000)">
                            <path d="M73.3133198,2.36304012 L73.3133198,51.2124332 C73.3133198,52.5167207 72.2554903,53.5754733 70.9502797,53.5754733 L3.47902269,53.5754733 C1.22859631,47.2414182 -3.55271368e-15,40.4246011 -3.55271368e-15,33.3188657 C-3.55271368e-15,32.2564207 0.0295380015,31.2013601 0.0830755112,30.1518381 C0.030461005,29.9561488 -3.55271368e-15,29.750306 -3.55271368e-15,29.5380015 L-3.55271368e-15,2.36304012 C-3.55271368e-15,1.05782956 1.05782956,-4.12114787e-13 2.36304012,-4.12114787e-13 L70.9502797,-4.12114787e-13 C71.766267,-4.12114787e-13 72.4853328,0.413532022 72.9099416,1.04213756 C73.0797851,1.29321057 73.2025523,1.57936008 73.2653206,1.88673985 C73.2967048,2.04089135 73.3133198,2.19965811 73.3133198,2.36304012 Z" id="Path" fill="#0091FF"></path>
                            <path d="M6.88235436,53.5754733 L6.88235436,-4.156675e-13 L70.9502797,-4.156675e-13 C72.2554903,-4.156675e-13 73.3133198,1.05782956 73.3133198,2.36304012 L73.3133198,51.2124332 C73.3133198,52.5167207 72.2554903,53.5754733 70.9502797,53.5754733 L6.88235436,53.5754733 Z" id="Path" fill="#0091FF"></path>
                            <path d="M47.2608025,7.88295416 L47.2608025,45.6915961 C47.2608025,46.9968065 46.2029729,48.0546363 44.8977623,48.0546363 L7.08912037,48.0546363 C5.78390981,48.0546363 4.72608025,46.9968065 4.72608025,45.6915961 L4.72608025,7.88295416 C4.72608025,6.57866684 5.78390981,5.51991404 7.08912037,5.51991404 L44.8977623,5.51991404 C46.2029729,5.51991404 47.2608025,6.57866684 47.2608025,7.88295416 Z" id="Path" fill="#FFFFFF" opacity="0.32686942"></path>
                            <path d="M40.8972091,39.1849283 C41.0818217,39.3695408 41.0818217,39.6686131 40.8972091,39.8532256 L39.0584685,41.6910432 C38.8747793,41.8756557 38.574784,41.8756557 38.3910945,41.6910432 L25.9934414,29.294313 L13.5957882,41.6910432 C13.4120987,41.8756557 13.1121034,41.8756557 12.9284142,41.6910432 L11.0896736,39.8532256 C10.9050611,39.6686131 10.9050611,39.3695408 11.0896736,39.1849283 L23.4873265,26.7872751 L11.0896736,14.3905452 C10.9050611,14.2059327 10.9050611,13.9068602 11.0896736,13.7222477 L12.9284142,11.8835071 C13.1121034,11.6998179 13.4120987,11.6998179 13.5957882,11.8835071 L25.9934414,24.2811603 L38.3910945,11.8835071 C38.574784,11.6998179 38.8747793,11.6998179 39.0584685,11.8835071 L40.8972091,13.7222477 C41.0818217,13.9068602 41.0818217,14.2059327 40.8972091,14.3905452 L28.4995562,26.7872751 L40.8972091,39.1849283 Z" id="Path" fill="#FFFFFF" opacity="0.224446615"></path>
                            <path d="M55.5314429,7.6798804 C55.5314429,8.6583267 54.7376091,9.45216049 53.7591628,9.45216049 C52.7807165,9.45216049 51.9868827,8.6583267 51.9868827,7.6798804 C51.9868827,6.7014341 52.7807165,5.90760031 53.7591628,5.90760031 C54.7376091,5.90760031 55.5314429,6.7014341 55.5314429,7.6798804 Z M59.6667631,5.90760031 C58.6883168,5.90760031 57.894483,6.7014341 57.894483,7.6798804 C57.894483,8.6583267 58.6883168,9.45216049 59.6667631,9.45216049 C60.6452094,9.45216049 61.4390432,8.6583267 61.4390432,7.6798804 C61.4390432,6.7014341 60.6452094,5.90760031 59.6667631,5.90760031 Z M65.5743634,5.90760031 C64.5959171,5.90760031 63.8020833,6.7014341 63.8020833,7.6798804 C63.8020833,8.6583267 64.5959171,9.45216049 65.5743634,9.45216049 C66.5528097,9.45216049 67.3466435,8.6583267 67.3466435,7.6798804 C67.3466435,6.7014341 66.5528097,5.90760031 65.5743634,5.90760031 Z" id="Shape" fill="#FFFFFF" opacity="0.370768229"></path>
                            <path d="M23.8371672,76.798804 L23.8371672,27.949411 C23.8371672,26.6451234 24.8949968,25.5863708 26.2002074,25.5863708 L94.787447,25.5863708 C96.0926575,25.5863708 97.1504871,26.6451234 97.1504871,27.949411 L97.1504871,76.798804 C97.1504871,78.1040146 96.0926575,79.1618441 94.787447,79.1618441 L26.2002074,79.1618441 C24.8949968,79.1618441 23.8371672,78.1040146 23.8371672,76.798804 Z" id="Path" fill="#9DD5FF"></path>
                            <path d="M30.7195216,79.1618441 L30.7195216,25.5863708 L94.787447,25.5863708 C96.0926575,25.5863708 97.1504871,26.6451234 97.1504871,27.949411 L97.1504871,76.798804 C97.1504871,78.1040146 96.0926575,79.1618441 94.787447,79.1618441 L30.7195216,79.1618441 Z" id="Path" fill="#9DD5FF"></path>
                            <path d="M75.617284,36.1545139 L75.617284,33.5551698 C75.617284,33.293943 75.8286652,33.0825617 76.089892,33.0825617 L90.3078245,33.0825617 C90.5690512,33.0825617 90.7804325,33.293943 90.7804325,33.5551698 L90.7804325,36.1545139 C90.7804325,36.4157406 90.5690512,36.6271219 90.3078245,36.6271219 L76.089892,36.6271219 C75.8286652,36.6271219 75.617284,36.4157406 75.617284,36.1545139 Z M92.1585648,40.1716821 L76.089892,40.1716821 C75.8286652,40.1716821 75.617284,40.3830634 75.617284,40.6442901 L75.617284,43.2436343 C75.617284,43.504861 75.8286652,43.7162423 76.089892,43.7162423 L92.1585648,43.7162423 C92.4197916,43.7162423 92.6311728,43.504861 92.6311728,43.2436343 L92.6311728,40.6442901 C92.6311728,40.3830634 92.4197916,40.1716821 92.1585648,40.1716821 Z M92.1585648,47.2608025 L76.089892,47.2608025 C75.8286652,47.2608025 75.617284,47.4721837 75.617284,47.7334105 L75.617284,50.3327546 C75.617284,50.5939814 75.8286652,50.8053627 76.089892,50.8053627 L92.1585648,50.8053627 C92.4197916,50.8053627 92.6311728,50.5939814 92.6311728,50.3327546 L92.6311728,47.7334105 C92.6311728,47.4721837 92.4197916,47.2608025 92.1585648,47.2608025 Z M83.2187041,54.3499228 L76.089892,54.3499228 C75.8286652,54.3499228 75.617284,54.5613041 75.617284,54.8225309 L75.617284,57.421875 C75.617284,57.6831018 75.8286652,57.894483 76.089892,57.894483 L83.2187041,57.894483 C83.4799309,57.894483 83.6913121,57.6831018 83.6913121,57.421875 L83.6913121,54.8225309 C83.6913121,54.5613041 83.4790076,54.3499228 83.2187041,54.3499228 Z" id="Shape" fill="#FFFFFF"></path>
                            <path d="M70.8912037,33.470248 L70.8912037,71.27889 C70.8912037,72.5831773 69.8333741,73.6419301 68.5281636,73.6419301 L30.7195216,73.6419301 C29.414311,73.6419301 28.3564815,72.5831773 28.3564815,71.27889 L28.3564815,33.470248 C28.3564815,32.1650377 29.414311,31.1072079 30.7195216,31.1072079 L68.5281636,31.1072079 C69.8333741,31.1072079 70.8912037,32.1650377 70.8912037,33.470248 Z" id="Path" fill="#FEFEFE"></path>
                            <path d="M31.9010417,41.7408884 C31.9010417,37.825257 35.0745308,34.6517681 38.990162,34.6517681 C42.9057932,34.6517681 46.0792824,37.825257 46.0792824,41.7408884 C46.0792824,45.6555966 42.9057932,48.8300088 38.990162,48.8300088 C35.0745308,48.8300088 31.9010417,45.6555966 31.9010417,41.7408884 Z M66.9460345,50.0013751 L64.1657699,46.3635857 C63.4171663,45.3842164 61.9411892,45.3842164 61.1916624,46.3635857 L50.1555266,60.8039762 C49.4059998,61.7842687 47.9300228,61.7842687 47.180496,60.8039762 L43.6313205,56.1600484 C42.8827167,55.1797561 41.4067397,55.1797561 40.6572131,56.1600484 L32.3044199,67.088186 C31.3628961,68.3204746 32.2416517,70.0973699 33.7914738,70.0973699 L65.4589807,70.0973699 C66.4928107,70.0973699 67.3309515,69.2592291 67.3309515,68.2253991 L67.3309515,51.1385882 C67.3309515,50.7278254 67.1961843,50.3281394 66.9460345,50.0013751 Z" id="Shape" fill="#9DD5FF"></path>
                        </g>
                    </g>
                </g>
            </g>
        </g>
    </g>
</svg>