<svg width="100" height="100" viewBox="0 0 100 100" xmlns="http://www.w3.org/2000/svg"><title>B7DE4CC9-90FC-4F73-8601-4E3EB993235A</title><g fill="none"><path d="M100 50c0 27.615-22.385 50-50 50S0 77.615 0 50 22.385 0 50 0s50 22.385 50 50z" fill="#243340"/><path d="M73.313 17.363v48.85a2.363 2.363 0 0 1-2.363 2.362H3.48A60.385 60.385 0 0 1 0 48.32c0-1.063.03-2.118.083-3.167A2.362 2.362 0 0 1 0 44.538V17.363A2.363 2.363 0 0 1 2.363 15H70.95a2.36 2.36 0 0 1 2.363 2.363z" fill="#0091FF"/><path d="M6.882 68.575V15H70.95a2.363 2.363 0 0 1 2.363 2.363v48.85a2.363 2.363 0 0 1-2.363 2.362H6.882z" fill="#0091FF"/><path d="M47.26 22.883v37.809a2.363 2.363 0 0 1-2.362 2.363H7.089a2.363 2.363 0 0 1-2.363-2.363V22.883A2.363 2.363 0 0 1 7.09 20.52h37.809a2.363 2.363 0 0 1 2.363 2.363z" fill="#FFF" opacity=".327"/><path d="M40.897 54.185a.472.472 0 0 1 0 .668l-1.839 1.838a.471.471 0 0 1-.667 0L25.993 44.294 13.596 56.691a.471.471 0 0 1-.668 0l-1.838-1.838a.472.472 0 0 1 0-.668l12.397-12.398L11.09 29.391a.472.472 0 0 1 0-.669l1.838-1.838a.473.473 0 0 1 .668 0L25.993 39.28l12.398-12.397a.473.473 0 0 1 .667 0l1.84 1.838a.472.472 0 0 1 0 .669L28.5 41.787l12.397 12.398z" fill="#FFF" opacity=".224"/><path d="M55.531 22.68a1.773 1.773 0 1 1-3.545-.001 1.773 1.773 0 0 1 3.545 0zm4.136-1.772a1.773 1.773 0 1 0 0 3.545 1.773 1.773 0 0 0 0-3.545zm5.907 0a1.773 1.773 0 1 0 .001 3.545 1.773 1.773 0 0 0 0-3.545z" fill="#FFF" opacity=".371"/><path d="M23.837 91.799v-48.85a2.363 2.363 0 0 1 2.363-2.363h68.587a2.363 2.363 0 0 1 2.363 2.363V91.8a2.363 2.363 0 0 1-2.363 2.363H26.2a2.363 2.363 0 0 1-2.363-2.363z" fill="#9DD5FF"/><path d="M30.72 94.162V40.586h64.067a2.363 2.363 0 0 1 2.363 2.363V91.8a2.363 2.363 0 0 1-2.363 2.363H30.72z" fill="#9DD5FF"/><path d="M75.617 51.155v-2.6c0-.261.212-.472.473-.472h14.218c.261 0 .472.21.472.472v2.6a.472.472 0 0 1-.472.472H76.09a.472.472 0 0 1-.473-.472zm16.542 4.017h-16.07a.472.472 0 0 0-.472.472v2.6c0 .26.212.472.473.472h16.069a.472.472 0 0 0 .472-.472v-2.6a.472.472 0 0 0-.472-.472zm0 7.089h-16.07a.472.472 0 0 0-.472.472v2.6c0 .261.212.472.473.472h16.069a.472.472 0 0 0 .472-.472v-2.6a.472.472 0 0 0-.472-.472zm-8.94 7.089h-7.13a.472.472 0 0 0-.472.473v2.599c0 .261.212.472.473.472h7.129a.472.472 0 0 0 .472-.472v-2.6a.473.473 0 0 0-.472-.472z" fill="#FFF"/><path d="M70.891 48.47v37.81a2.363 2.363 0 0 1-2.363 2.363H30.72a2.363 2.363 0 0 1-2.364-2.363V48.47a2.363 2.363 0 0 1 2.364-2.363h37.808a2.363 2.363 0 0 1 2.363 2.363z" fill="#FEFEFE"/><path d="M31.901 56.74a7.089 7.089 0 0 1 7.09-7.088 7.09 7.09 0 1 1-7.09 7.09zm35.045 8.261l-2.78-3.637a1.873 1.873 0 0 0-2.974 0l-11.036 14.44c-.75.98-2.226.98-2.976 0l-3.549-4.644a1.871 1.871 0 0 0-2.974 0l-8.353 10.928c-.941 1.232-.062 3.01 1.487 3.01H65.46a1.872 1.872 0 0 0 1.872-1.873V66.14c0-.411-.135-.81-.385-1.138z" fill="#9DD5FF"/></g></svg>