<?xml version="1.0" encoding="UTF-8"?>
<svg width="283px" height="250px" viewBox="0 0 283 250" version="1.1" xmlns="http://www.w3.org/2000/svg" xmlns:xlink="http://www.w3.org/1999/xlink">
    <!-- Generator: sketchtool 53 (72520) - https://sketchapp.com -->
    <title>D04D6482-2F8B-4DB0-9AAC-04813B44F6C7</title>
    <desc>Created with sketchtool.</desc>
    <g id="Desktop" stroke="none" stroke-width="1" fill="none" fill-rule="evenodd">
        <g id="Pricing" transform="translate(-1073.000000, -227.000000)" fill-rule="nonzero">
            <g id="blueprint" transform="translate(1073.000000, 227.000000)">
                <path d="M277.306404,73.7088634 L0,73.7088634 L0,214.169663 C0,233.819742 15.9191817,249.751538 35.556366,249.751538 L277.306404,249.751538 C280.450081,249.751538 283,247.199945 283,244.052043 L283,79.406198 C283,76.2582965 280.450081,73.7088634 277.306404,73.7088634 Z" id="Path" fill="#64BDFF"></path>
                <path d="M283,79.4083584 L283,244.054204 C283,247.199945 280.450081,249.751538 277.306404,249.751538 L262.950424,249.751538 C266.094101,249.751538 268.64402,247.199945 268.64402,244.054204 L268.64402,79.4083584 C268.64402,76.2561361 266.094101,73.7088634 262.950424,73.7088634 L277.306404,73.7088634 C280.450081,73.7088634 283,76.2561361 283,79.4083584 Z" id="Path" fill="#43A3F9"></path>
                <g id="Group" fill="#1685FB">
                    <path d="M50.0267789,170.634852 C50.0267789,173.782754 47.4790194,176.332187 44.3331832,176.332187 L35.554207,176.332187 C15.9191817,176.332187 0,192.261822 0,211.911902 L0,35.8562638 C0,16.2061842 15.9191817,0.276548673 35.556366,0.276548673 L44.3331832,0.276548673 C47.4768599,0.276548673 50.0267789,2.82814215 50.0267789,5.9738833 L50.0267789,170.634852 Z" id="Path"></path>
                    <path d="M256.447159,147.411245 C256.447159,129.290825 241.715492,114.551645 223.609123,114.551645 C206.163444,114.551645 191.857124,128.234323 190.833702,145.438675 L171.174927,145.438675 C168.817169,145.438675 166.906349,147.35075 166.906349,149.712217 L166.906349,198.527378 C166.906349,200.886684 168.817169,202.800919 171.174927,202.800919 L219.958053,202.800919 C222.31797,202.800919 224.22879,200.886684 224.22879,198.527378 L224.22879,180.255721 C242.050155,179.922998 256.447159,165.322093 256.447159,147.411245 Z M223.609123,123.096567 C237.006454,123.096567 247.905685,134.005116 247.905685,147.411245 C247.905685,160.609962 237.341118,171.378076 224.22879,171.708639 L224.22879,149.712217 C224.22879,147.35075 222.31797,145.438675 219.958053,145.438675 L199.396767,145.438675 C200.405075,132.952935 210.874642,123.096567 223.609123,123.096567 L223.609123,123.096567 Z M215.687317,170.392872 C208.20813,167.802389 202.376351,161.657823 200.219391,153.985758 L215.687317,153.985758 L215.687317,170.392872 Z M175.445663,194.253837 L175.445663,153.985758 L191.429619,153.985758 C193.955788,166.385077 203.486137,176.26521 215.687317,179.300764 L215.687317,194.253837 L175.445663,194.253837 Z" id="Shape"></path>
                    <path d="M248.97229,183.222138 L239.472168,183.222138 C237.11441,183.222138 235.201432,185.136373 235.201432,187.495679 C235.201432,189.857145 237.11441,191.76922 239.472168,191.76922 L248.97229,191.76922 C251.332207,191.76922 253.243026,189.857145 253.243026,187.495679 C253.243026,185.136373 251.332207,183.222138 248.97229,183.222138 Z" id="Path"></path>
                    <path d="M248.97229,194.253837 L239.472168,194.253837 C237.11441,194.253837 235.201432,196.165912 235.201432,198.527378 C235.201432,200.886684 237.11441,202.798759 239.472168,202.798759 L248.97229,202.798759 C251.332207,202.798759 253.243026,200.886684 253.243026,198.527378 C253.243026,196.165912 251.332207,194.253837 248.97229,194.253837 Z" id="Path"></path>
                    <path d="M73.7382202,112.849143 L80.5718306,112.849143 C82.9295882,112.849143 84.8425676,110.934907 84.8425676,108.575602 C84.8425676,106.216295 82.9295882,104.30206 80.5718306,104.30206 L73.7382202,104.30206 C71.3804626,104.30206 69.4696428,106.216295 69.4696428,108.575602 C69.4696428,110.934907 71.3804626,112.849143 73.7382202,112.849143 Z" id="Path"></path>
                    <path d="M73.7382202,125.298154 L106.705803,125.298154 C109.06356,125.298154 110.97654,123.386079 110.97654,121.024613 C110.97654,118.665307 109.06356,116.753232 106.705803,116.753232 L73.7382202,116.753232 C71.3804626,116.753232 69.4696428,118.665307 69.4696428,121.024613 C69.4696428,123.386079 71.3804626,125.298154 73.7382202,125.298154 Z" id="Path"></path>
                    <path d="M99.8721924,112.849143 L106.705803,112.849143 C109.06356,112.849143 110.97654,110.934907 110.97654,108.575602 C110.97654,106.216295 109.06356,104.30206 106.705803,104.30206 L99.8721924,104.30206 C97.5144348,104.30206 95.6036149,106.216295 95.6036149,108.575602 C95.6036149,110.934907 97.5144348,112.849143 99.8721924,112.849143 Z" id="Path"></path>
                    <path d="M126.006165,112.849143 L132.839775,112.849143 C135.197533,112.849143 137.110512,110.934907 137.110512,108.575602 C137.110512,106.216295 135.197533,104.30206 132.839775,104.30206 L126.006165,104.30206 C123.648407,104.30206 121.735428,106.216295 121.735428,108.575602 C121.735428,110.934907 123.648407,112.849143 126.006165,112.849143 Z" id="Path"></path>
                    <path d="M73.7382202,137.656423 L106.705803,137.656423 C109.06356,137.656423 110.97654,135.742188 110.97654,133.382882 C110.97654,131.021415 109.06356,129.109341 106.705803,129.109341 L73.7382202,129.109341 C71.3804626,129.109341 69.4696428,131.021415 69.4696428,133.382882 C69.4696428,135.742188 71.3804626,137.656423 73.7382202,137.656423 Z" id="Path"></path>
                    <path d="M73.7382202,150.012531 L126.006165,150.012531 C128.363922,150.012531 130.276901,148.098296 130.276901,145.73899 C130.276901,143.379684 128.363922,141.465449 126.006165,141.465449 L73.7382202,141.465449 C71.3804626,141.465449 69.4696428,143.379684 69.4696428,145.73899 C69.4696428,148.098296 71.3804626,150.012531 73.7382202,150.012531 Z" id="Path"></path>
                    <path d="M73.7382202,162.368639 L132.839775,162.368639 C135.197533,162.368639 137.110512,160.456565 137.110512,158.095098 C137.110512,155.735792 135.197533,153.821557 132.839775,153.821557 L73.7382202,153.821557 C71.3804626,153.821557 69.4696428,155.735792 69.4696428,158.095098 C69.4696428,160.456565 71.3804626,162.368639 73.7382202,162.368639 Z" id="Path"></path>
                    <path d="M85.5075761,173.730901 L73.7403792,173.730901 C71.3804626,173.730901 69.4696428,175.642976 69.4696428,178.004442 L69.4696428,189.779366 C69.4696428,192.140832 71.3804626,194.052907 73.7403792,194.052907 L85.5075761,194.052907 C87.8653337,194.052907 89.7783125,192.138672 89.7783125,189.779366 L89.7783125,178.004442 C89.7783125,175.642976 87.8653337,173.730901 85.5075761,173.730901 Z M81.2368392,185.505825 L78.0089566,185.505825 L78.0089566,182.277983 L81.2368392,182.277983 L81.2368392,185.505825 Z" id="Shape"></path>
                    <path d="M113.742371,173.730901 L101.975174,173.730901 C99.6174161,173.730901 97.7044373,175.642976 97.7044373,178.004442 L97.7044373,189.779366 C97.7044373,192.140832 99.6174161,194.052907 101.975174,194.052907 L113.742371,194.052907 C116.102287,194.052907 118.013107,192.138672 118.013107,189.779366 L118.013107,178.004442 C118.013107,175.642976 116.102287,173.730901 113.742371,173.730901 Z M109.471634,185.505825 L106.245911,185.505825 L106.245911,182.277983 L109.471634,182.277983 L109.471634,185.505825 Z" id="Shape"></path>
                    <path d="M141.979325,173.730901 L130.209969,173.730901 C127.852211,173.730901 125.941391,175.642976 125.941391,178.004442 L125.941391,189.779366 C125.941391,192.140832 127.852211,194.052907 130.209969,194.052907 L141.979325,194.052907 C144.337082,194.052907 146.250061,192.138672 146.250061,189.779366 L146.250061,178.004442 C146.250061,175.642976 144.337082,173.730901 141.979325,173.730901 Z M137.708588,185.505825 L134.482865,185.505825 L134.482865,182.277983 L137.708588,182.277983 L137.708588,185.505825 Z" id="Shape"></path>
                    <path d="M85.5075761,203.738592 L73.7403792,203.738592 C71.3804626,203.738592 69.4696428,205.652827 69.4696428,208.012134 L69.4696428,219.789218 C69.4696428,222.148524 71.3804626,224.062759 73.7403792,224.062759 L85.5075761,224.062759 C87.8653337,224.062759 89.7783125,222.148524 89.7783125,219.789218 L89.7783125,208.012134 C89.7783125,205.652827 87.8653337,203.738592 85.5075761,203.738592 Z M81.2368392,215.515677 L78.0089566,215.515677 L78.0089566,212.285675 L81.2368392,212.285675 L81.2368392,215.515677 Z" id="Shape"></path>
                    <path d="M113.742371,203.738592 L101.975174,203.738592 C99.6174161,203.738592 97.7044373,205.652827 97.7044373,208.012134 L97.7044373,219.789218 C97.7044373,222.148524 99.6174161,224.062759 101.975174,224.062759 L113.742371,224.062759 C116.102287,224.062759 118.013107,222.148524 118.013107,219.789218 L118.013107,208.012134 C118.013107,205.652827 116.102287,203.738592 113.742371,203.738592 Z M109.471634,215.515677 L106.245911,215.515677 L106.245911,212.285675 L109.471634,212.285675 L109.471634,215.515677 Z" id="Shape"></path>
                    <path d="M141.979325,203.738592 L130.209969,203.738592 C127.852211,203.738592 125.941391,205.652827 125.941391,208.012134 L125.941391,219.789218 C125.941391,222.148524 127.852211,224.062759 130.209969,224.062759 L141.979325,224.062759 C144.337082,224.062759 146.250061,222.148524 146.250061,219.789218 L146.250061,208.012134 C146.250061,205.652827 144.337082,203.738592 141.979325,203.738592 Z M137.708588,215.515677 L134.482865,215.515677 L134.482865,212.285675 L137.708588,212.285675 L137.708588,215.515677 Z" id="Shape"></path>
                </g>
                <path d="M178.215813,119.337234 L159.880577,128.459019 C157.833732,129.476632 155.599045,127.465172 156.391441,125.32192 L163.492782,106.103948 L178.215813,119.337234 Z" id="Path" fill="#4E7693"></path>
                <path d="M182.158363,118.209434 L255.749764,36.2300365 C257.30217,34.5037677 257.161827,31.8441477 255.432373,30.2885614 L243.721313,19.7624275 C241.99186,18.2090017 239.336143,18.3537577 237.783737,20.0821869 L164.192337,102.061584 C162.639931,103.792174 162.782432,106.447473 164.511886,108.003059 L176.220787,118.529193 C177.9524,120.082619 180.605957,119.942184 182.158363,118.209434 Z" id="Path" fill="#C0FF66"></path>
                <path d="M182.158363,118.209434 L255.749764,36.2300365 C257.30217,34.5037677 257.161827,31.8441477 255.432373,30.2885614 L249.576843,25.0254945 L170.367416,113.266126 L176.220787,118.529193 C177.9524,120.082619 180.605957,119.942184 182.158363,118.209434 Z" id="Path" fill="#9BE058"></path>
                <path d="M247.778298,45.1098418 L255.749764,36.2321969 C257.300011,34.5037677 257.161827,31.8441477 255.430214,30.2907218 L243.721313,19.7645879 C241.99186,18.2090017 239.333984,18.3537577 237.783737,20.0821869 L229.812271,28.9619917 L247.778298,45.1098418 Z" id="Path" fill="#FD82AC"></path>
            </g>
        </g>
    </g>
</svg>