<?xml version="1.0" encoding="UTF-8"?>
<svg width="240px" height="250px" viewBox="0 0 240 250" version="1.1" xmlns="http://www.w3.org/2000/svg" xmlns:xlink="http://www.w3.org/1999/xlink">
    <!-- Generator: sketchtool 53 (72520) - https://sketchapp.com -->
    <title>D0CC8FAF-0463-4158-9DFC-F6072DEC3FD5</title>
    <desc>Created with sketchtool.</desc>
    <g id="Desktop" stroke="none" stroke-width="1" fill="none" fill-rule="evenodd">
        <g id="Privacy" transform="translate(-1111.000000, -212.000000)" fill-rule="nonzero">
            <g id="web-security" transform="translate(1111.000000, 212.000000)">
                <circle id="Oval" fill="#F24976" cx="119.628906" cy="130.371094" r="119.628906"></circle>
                <path d="M19.0429688,195.148438 C25.8852539,205.750977 34.3588867,215.199219 44.1074219,223.144531 L195.150391,223.144531 C204.898926,215.199219 213.372559,205.750488 220.214844,195.148438 L220.214844,28.8085938 L19.0429688,28.8085938 L19.0429688,195.148438 Z" id="Path" fill="#AEC1ED"></path>
                <path d="M19.0429688,28.8085938 L19.0429688,195.148438 C21.9804688,199.700684 25.2207031,204.038086 28.7319336,208.137207 L28.7319336,28.8085938 L19.0429688,28.8085938 Z" id="Path" fill="#85A0DD"></path>
                <g id="Group" transform="translate(37.109375, 43.457031)" fill="#EEF6FF">
                    <path d="M162.361328,0.017578125 L2.67773437,0.017578125 C1.33496094,0.017578125 0.236328125,1.11621094 0.236328125,2.45898438 L0.236328125,35.8486328 C0.236328125,37.1914062 1.33496094,38.2900391 2.67773437,38.2900391 L41.7553711,38.2900391 C43.9140625,17.703125 61.3706055,1.60302734 82.519043,1.60302734 C103.668457,1.60302734 121.125,17.703125 123.283203,38.2900391 L162.360352,38.2900391 C163.703125,38.2900391 164.801758,37.1914062 164.801758,35.8486328 L164.801758,2.45898438 C164.802734,1.11621094 163.704102,0.017578125 162.361328,0.017578125 Z" id="Path"></path>
                    <path d="M82.5195312,20.1577148 C71.6206055,20.1577148 62.515625,27.9711914 60.5014648,38.2900391 L104.538086,38.2900391 C102.523926,27.9711914 93.4189453,20.1577148 82.5195312,20.1577148 Z" id="Path"></path>
                    <path d="M162.361328,54.0654297 L2.67773437,54.0654297 C1.33496094,54.0654297 0.236328125,55.1640625 0.236328125,56.5068359 L0.236328125,65.5415039 C0.236328125,66.8842773 1.33496094,67.9829102 2.67773437,67.9829102 L26.1899414,67.9829102 C27.2060547,67.0302734 28.5668945,66.4418945 30.0664062,66.4418945 L134.972168,66.4418945 C136.470703,66.4418945 137.83252,67.0302734 138.848145,67.9829102 L162.36084,67.9829102 C163.703613,67.9829102 164.802246,66.8842773 164.802246,65.5415039 L164.802246,56.5068359 C164.802734,55.1640625 163.704102,54.0654297 162.361328,54.0654297 Z" id="Path"></path>
                    <path d="M24.3896484,73.1074219 L2.67773437,73.1074219 C1.33496094,73.1074219 0.236328125,74.2060547 0.236328125,75.5488281 L0.236328125,84.5839844 C0.236328125,85.9267578 1.33496094,87.0253906 2.67773437,87.0253906 L24.3896484,87.0253906 L24.3896484,73.1074219 Z" id="Path"></path>
                    <path d="M162.361328,73.1074219 L140.648926,73.1074219 L140.648926,87.0253906 L162.361328,87.0253906 C163.704102,87.0253906 164.802734,85.9267578 164.802734,84.5839844 L164.802734,75.5488281 C164.802734,74.2060547 163.704102,73.1074219 162.361328,73.1074219 Z" id="Path"></path>
                    <path d="M24.3896484,92.1494141 L2.67773437,92.1494141 C1.33496094,92.1494141 0.236328125,93.2480469 0.236328125,94.5908203 L0.236328125,103.625488 C0.236328125,104.968262 1.33496094,106.066895 2.67773437,106.066895 L24.3896484,106.066895 L24.3896484,92.1494141 Z" id="Path"></path>
                    <path d="M162.361328,92.1494141 L140.648926,92.1494141 L140.648926,106.066895 L162.361328,106.066895 C163.704102,106.066895 164.802734,104.968262 164.802734,103.625488 L164.802734,94.5908203 C164.802734,93.2480469 163.704102,92.1494141 162.361328,92.1494141 Z" id="Path"></path>
                    <path d="M24.3896484,111.191406 L2.67773437,111.191406 C1.33496094,111.191406 0.236328125,112.290039 0.236328125,113.632812 L0.236328125,122.66748 C0.236328125,124.010254 1.33496094,125.108887 2.67773437,125.108887 L24.3896484,125.108887 L24.3896484,111.191406 Z" id="Path"></path>
                    <path d="M162.361328,111.191406 L140.648926,111.191406 L140.648926,125.108887 L162.361328,125.108887 C163.704102,125.108887 164.802734,124.010254 164.802734,122.66748 L164.802734,113.632812 C164.802734,112.290039 163.704102,111.191406 162.361328,111.191406 Z" id="Path"></path>
                    <path d="M24.3896484,130.233398 L2.67773437,130.233398 C1.33496094,130.233398 0.236328125,131.332031 0.236328125,132.674805 L0.236328125,141.709473 C0.236328125,143.052246 1.33496094,144.150879 2.67773437,144.150879 L24.3896484,144.150879 L24.3896484,130.233398 Z" id="Path"></path>
                    <path d="M162.361328,130.233398 L140.648926,130.233398 L140.648926,144.150879 L162.361328,144.150879 C163.704102,144.150879 164.802734,143.052246 164.802734,141.709473 L164.802734,132.674805 C164.802734,131.332031 163.704102,130.233398 162.361328,130.233398 Z" id="Path"></path>
                    <path d="M162.361328,149.275391 L140.648926,149.275391 L140.648926,150.429199 C140.648926,153.55957 138.102051,156.105957 134.972168,156.105957 L30.0664062,156.105957 C26.9365234,156.105957 24.3896484,153.55957 24.3896484,150.429199 L24.3896484,149.275391 L2.67773437,149.275391 C1.33496094,149.275391 0.236328125,150.374023 0.236328125,151.716797 L0.236328125,160.751465 C0.236328125,162.094238 1.33496094,163.192871 2.67773437,163.192871 L162.36084,163.192871 C163.703613,163.192871 164.802246,162.094238 164.802246,160.751465 L164.802246,151.716797 C164.802734,150.374023 163.704102,149.275391 162.361328,149.275391 Z" id="Path"></path>
                </g>
                <g id="Group" transform="translate(37.109375, 43.457031)" fill="#D9EAFC">
                    <path d="M9.92529297,35.8486328 L9.92529297,2.45898438 C9.92529297,1.11621094 11.0239258,0.017578125 12.3666992,0.017578125 L2.67773437,0.017578125 C1.33496094,0.017578125 0.236328125,1.11621094 0.236328125,2.45898438 L0.236328125,35.8486328 C0.236328125,37.1914062 1.33496094,38.2900391 2.67773437,38.2900391 L12.3666992,38.2900391 C11.0239258,38.2900391 9.92529297,37.1914062 9.92529297,35.8486328 Z" id="Path"></path>
                    <path d="M9.92529297,65.5415039 L9.92529297,56.5068359 C9.92529297,55.1640625 11.0239258,54.0654297 12.3666992,54.0654297 L2.67773437,54.0654297 C1.33496094,54.0654297 0.236328125,55.1640625 0.236328125,56.5068359 L0.236328125,65.5415039 C0.236328125,66.8842773 1.33496094,67.9829102 2.67773437,67.9829102 L12.3666992,67.9829102 C11.0239258,67.9829102 9.92529297,66.8842773 9.92529297,65.5415039 Z" id="Path"></path>
                    <path d="M9.92529297,84.5834961 L9.92529297,75.5483398 C9.92529297,74.2055664 11.0239258,73.1069336 12.3666992,73.1069336 L2.67773437,73.1069336 C1.33496094,73.1069336 0.236328125,74.2055664 0.236328125,75.5483398 L0.236328125,84.5834961 C0.236328125,85.9262695 1.33496094,87.0249023 2.67773437,87.0249023 L12.3666992,87.0249023 C11.0239258,87.0249023 9.92529297,85.9262695 9.92529297,84.5834961 Z" id="Path"></path>
                    <path d="M9.92529297,103.625488 L9.92529297,94.5908203 C9.92529297,93.2480469 11.0239258,92.1494141 12.3666992,92.1494141 L2.67773437,92.1494141 C1.33496094,92.1494141 0.236328125,93.2480469 0.236328125,94.5908203 L0.236328125,103.625488 C0.236328125,104.968262 1.33496094,106.066895 2.67773437,106.066895 L12.3666992,106.066895 C11.0239258,106.066895 9.92529297,104.968262 9.92529297,103.625488 Z" id="Path"></path>
                    <path d="M9.92529297,122.66748 L9.92529297,113.632812 C9.92529297,112.290039 11.0239258,111.191406 12.3666992,111.191406 L2.67773437,111.191406 C1.33496094,111.191406 0.236328125,112.290039 0.236328125,113.632812 L0.236328125,122.66748 C0.236328125,124.010254 1.33496094,125.108887 2.67773437,125.108887 L12.3666992,125.108887 C11.0239258,125.108887 9.92529297,124.010254 9.92529297,122.66748 Z" id="Path"></path>
                    <path d="M9.92529297,141.709473 L9.92529297,132.674805 C9.92529297,131.332031 11.0239258,130.233398 12.3666992,130.233398 L2.67773437,130.233398 C1.33496094,130.233398 0.236328125,131.332031 0.236328125,132.674805 L0.236328125,141.709473 C0.236328125,143.052246 1.33496094,144.150879 2.67773437,144.150879 L12.3666992,144.150879 C11.0239258,144.150879 9.92529297,143.052246 9.92529297,141.709473 Z" id="Path"></path>
                    <path d="M9.92529297,160.751465 L9.92529297,151.716797 C9.92529297,150.374023 11.0239258,149.275391 12.3666992,149.275391 L2.67773437,149.275391 C1.33496094,149.275391 0.236328125,150.374023 0.236328125,151.716797 L0.236328125,160.751465 C0.236328125,162.094238 1.33496094,163.192871 2.67773437,163.192871 L12.3666992,163.192871 C11.0239258,163.192871 9.92529297,162.094238 9.92529297,160.751465 Z" id="Path"></path>
                </g>
                <path d="M97.6806641,109.898926 L97.6806641,86.0517578 C97.6806641,73.9492188 107.526855,64.1030273 119.628906,64.1030273 C131.731445,64.1030273 141.577637,73.9492188 141.577637,86.0517578 L141.577637,109.898926 L161.108887,109.898926 L161.108887,86.0517578 C161.108887,63.1796875 142.500977,44.5717773 119.628906,44.5717773 C96.7568359,44.5717773 78.1494141,63.1796875 78.1494141,86.0517578 L78.1494141,109.898926 L97.6806641,109.898926 Z" id="Path" fill="#445EA0"></path>
                <path d="M87.8383789,109.898926 L87.8383789,86.0517578 C87.8383789,64.8193359 103.877441,47.2719727 124.473633,44.8637695 C122.882813,44.6777344 121.268066,44.5712891 119.628906,44.5712891 C96.7568359,44.5712891 78.1494141,63.1791992 78.1494141,86.0512695 L78.1494141,109.898926 L87.8383789,109.898926 L87.8383789,109.898926 Z" id="Path" fill="#293D7C"></path>
                <path d="M178.246582,193.88623 C178.246582,197.276855 175.472168,200.05127 172.081543,200.05127 L67.1757812,200.05127 C63.7851562,200.05127 61.0107422,197.276855 61.0107422,193.88623 L61.0107422,115.575684 C61.0107422,112.185059 63.7851562,109.410645 67.1757812,109.410645 L172.081543,109.410645 C175.472168,109.410645 178.246582,112.185059 178.246582,115.575684 L178.246582,193.88623 Z" id="Path" fill="#FF9518"></path>
                <path d="M70.699707,193.88623 L70.699707,115.575684 C70.699707,112.185059 73.4741211,109.410645 76.8647461,109.410645 L67.1757812,109.410645 C63.7851563,109.410645 61.0107422,112.185059 61.0107422,115.575684 L61.0107422,193.885742 C61.0107422,197.276367 63.7851562,200.050781 67.1757812,200.050781 L76.8647461,200.050781 C73.4741211,200.05127 70.699707,197.276855 70.699707,193.88623 Z" id="Path" fill="#EF8318"></path>
                <g id="Group" transform="translate(60.546875, 125.488281)" fill="#DB722C">
                    <path d="M70.7958984,11.8642578 C70.7958984,5.39501953 65.5512695,0.150878906 59.0820312,0.150878906 C52.6132813,0.150878906 47.3686523,5.39550781 47.3686523,11.8642578 C47.3686523,17.0541992 50.7451172,21.4526367 55.4199219,22.9907227 L55.4199219,42.0732422 C55.4199219,44.0957031 57.059082,45.7353516 59.0820312,45.7353516 C61.1049805,45.7353516 62.7441406,44.0957031 62.7441406,42.0732422 L62.7441406,22.9907227 C67.4189453,21.453125 70.7958984,17.0541992 70.7958984,11.8642578 Z" id="Path"></path>
                    <path d="M0.463867187,58.1020508 L0.463867187,68.3974609 C0.463867187,71.7880859 3.23828125,74.5625 6.62890625,74.5625 L111.534668,74.5625 C114.925293,74.5625 117.699707,71.7880859 117.699707,68.3974609 L117.699707,58.1020508 L0.463867187,58.1020508 Z" id="Path"></path>
                </g>
                <path d="M215.332031,0 L23.9257812,0 C21.2402344,0 19.0429688,2.19726562 19.0429688,4.8828125 L19.0429688,29.296875 L220.214844,29.296875 L220.214844,4.8828125 C220.214844,2.19726562 218.017578,0 215.332031,0 Z" id="Path" fill="#293D7C"></path>
                <path d="M33.8637695,19.6713867 C32.8193359,19.6713867 31.8012695,19.2490234 31.0634766,18.5161133 C30.3300781,17.777832 29.9082031,16.7597656 29.9082031,15.7158203 C29.9082031,14.6762695 30.3300781,13.6586914 31.0634766,12.9204102 C31.8017578,12.1816406 32.8198242,11.7602539 33.8637695,11.7602539 C34.902832,11.7602539 35.9262695,12.1821289 36.6591797,12.9204102 C37.3979492,13.6586914 37.8198242,14.6762695 37.8198242,15.7158203 C37.8198242,16.7597656 37.3979492,17.777832 36.6591797,18.5161133 C35.9257812,19.2490234 34.9023438,19.6713867 33.8637695,19.6713867 Z" id="Path" fill="#E26693"></path>
                <path d="M46.8359375,19.6713867 C45.796875,19.6713867 44.7734375,19.2490234 44.0400391,18.5107422 C43.3017578,17.777832 42.8798828,16.7597656 42.8798828,15.7158203 C42.8798828,14.6762695 43.3017578,13.6586914 44.0400391,12.9204102 C44.7788086,12.1816406 45.796875,11.7602539 46.8359375,11.7602539 C47.8803711,11.7602539 48.8979492,12.1821289 49.6367188,12.9204102 C50.3696289,13.6586914 50.7915039,14.6762695 50.7915039,15.7158203 C50.7915039,16.7548828 50.3696289,17.777832 49.6367188,18.5107422 C48.8979492,19.2490234 47.8803711,19.6713867 46.8359375,19.6713867 Z" id="Path" fill="#FFAF10"></path>
                <path d="M59.8134766,19.6713867 C58.769043,19.6713867 57.7509766,19.2490234 57.0180664,18.5161133 C56.2792969,17.777832 55.8574219,16.7597656 55.8574219,15.7158203 C55.8574219,14.6762695 56.2792969,13.6586914 57.0180664,12.9204102 C57.7509766,12.1816406 58.769043,11.7602539 59.8134766,11.7602539 C60.8525391,11.7602539 61.8759766,12.1821289 62.6088867,12.9204102 C63.3476562,13.6586914 63.7695312,14.6762695 63.7695312,15.7158203 C63.7695312,16.7597656 63.3476562,17.777832 62.6088867,18.5161133 C61.8706055,19.2490234 60.8525391,19.6713867 59.8134766,19.6713867 Z" id="Path" fill="#37C47A"></path>
            </g>
        </g>
    </g>
</svg>