<svg width="40" height="40" viewBox="0 0 40 40" xmlns="http://www.w3.org/2000/svg"><title>35A5BA45-4868-42E4-80CB-91BB0807C1D1</title><g fill="none"><path d="M20 40C8.972 40 0 31.028 0 20S8.972 0 20 0s20 8.972 20 20-8.972 20-20 20z" fill="#0091FF"/><path d="M22.759 31.034a.69.69 0 1 1 0 1.38H17.24a.69.69 0 1 1 0-1.38.69.69 0 0 0 .69-.69V15.863a.69.69 0 0 0-.69-.69.69.69 0 1 1 0-1.379h5.518a.69.69 0 1 1 0 1.38h-.001a.69.69 0 0 0-.69.689v14.483c0 .38.309.69.69.69zM20 11.724a2.069 2.069 0 1 1 0-4.138 2.069 2.069 0 0 1 0 4.138z" fill="#FFF"/></g></svg>