<?xml version="1.0" encoding="UTF-8"?>
<svg width="40px" height="40px" viewBox="0 0 40 40" version="1.1" xmlns="http://www.w3.org/2000/svg" xmlns:xlink="http://www.w3.org/1999/xlink">
    <!-- Generator: sketchtool 53 (72520) - https://sketchapp.com -->
    <title>35A5BA45-4868-42E4-80CB-91BB0807C1D1</title>
    <desc>Created with sketchtool.</desc>
    <g id="Desktop" stroke="none" stroke-width="1" fill="none" fill-rule="evenodd">
        <g id="Landing-page" transform="translate(-1043.000000, -1463.000000)" fill-rule="nonzero">
            <g id="Group-23" transform="translate(1043.000000, 1463.000000)">
                <path d="M20,40 C8.9721875,40 0,31.0278125 0,20 C0,8.9721875 8.9721875,0 20,0 C31.0278125,0 40,8.9721875 40,20 C40,31.0278125 31.0278125,40 20,40 Z" id="Path-Copy" fill="#0091FF"></path>
                <path d="M22.7585938,31.0344531 C23.1398438,31.0344531 23.4483594,31.3432812 23.4483594,31.7241406 C23.4483594,32.105 23.1398438,32.4138281 22.7586719,32.4138281 L17.2414063,32.4138281 C16.8601563,32.4138281 16.5517188,32.105 16.5517188,31.7241406 C16.5517188,31.3432812 16.8602344,31.0344531 17.2414063,31.0344531 L17.2407031,31.0344531 C17.6215625,31.0344531 17.9303906,30.725625 17.9303906,30.3447656 L17.9303906,15.8620312 C17.9303906,15.4811719 17.6215625,15.1723437 17.2407031,15.1723437 L17.2414063,15.1723437 C16.8601563,15.1723437 16.5517188,14.8635156 16.5517188,14.4826562 C16.5517188,14.1017969 16.8602344,13.7929687 17.2414063,13.7929687 L22.7585938,13.7929687 C23.1398438,13.7929687 23.4482813,14.1017969 23.4482813,14.4826562 C23.4482813,14.8635156 23.1397656,15.1723437 22.7585938,15.1723437 L22.7578906,15.1723437 C22.3770313,15.1723437 22.0682031,15.4811719 22.0682031,15.8620312 L22.0682031,30.3447656 C22.0682031,30.725625 22.3770313,31.0344531 22.7578906,31.0344531 L22.7585938,31.0344531 Z M20,11.7241406 C18.8573315,11.7241406 17.9310156,10.7978248 17.9310156,9.65515625 C17.9310156,8.51248773 18.8573315,7.58617187 20,7.58617187 C21.1426685,7.58617187 22.0689844,8.51248773 22.0689844,9.65515625 C22.0689844,10.7978248 21.1426685,11.7241406 20,11.7241406 Z" id="Combined-Shape-Copy" fill="#FFFFFF"></path>
            </g>
        </g>
    </g>
</svg>