<svg width="684" height="596" viewBox="0 0 684 596" xmlns="http://www.w3.org/2000/svg"><title>94F5698B-36FD-4CB4-9681-2963978BFAA2</title><g fill="none" fill-rule="evenodd"><rect stroke="#5893D3" x=".5" y=".5" width="874" height="595" rx="69"/><rect stroke="#5893D3" x="77.5" y="72.5" width="722" height="452" rx="6"/><path stroke="#5893D3" d="M77.5 86.5h722v31h-722zm0 412V519a5.5 5.5 0 0 0 5.5 5.5h711a5.5 5.5 0 0 0 5.5-5.5v-20.5h-722zm0-412h722V78a5.5 5.5 0 0 0-5.5-5.5H83a5.5 5.5 0 0 0-5.5 5.5v8.5zm0 31h349v381h-349zm349 0h373v44h-373zm0 44h373v30h-373z"/><path d="M448.5 457h329c6.904 0 12.5 5.596 12.5 12.5s-5.596 12.5-12.5 12.5h-329c-6.904 0-12.5-5.596-12.5-12.5s5.596-12.5 12.5-12.5zm0-90h68c6.904 0 12.5 5.596 12.5 12.5s-5.596 12.5-12.5 12.5h-68c-6.904 0-12.5-5.596-12.5-12.5s5.596-12.5 12.5-12.5zm135 0h194c6.904 0 12.5 5.596 12.5 12.5s-5.596 12.5-12.5 12.5h-194c-6.904 0-12.5-5.596-12.5-12.5s5.596-12.5 12.5-12.5zm176-166h28a5.5 5.5 0 0 1 0 11h-28a5.5 5.5 0 0 1 0-11z" fill="#213753"/><path stroke="#5893D3" d="M426.5 191.5h373v30h-373zm0 30h373v30h-373zm0 30h373v30h-373z"/><rect stroke="#5893D3" x="97.5" y="132.5" width="224" height="24" rx="12"/><rect stroke="#5893D3" opacity=".458" x="97.5" y="172.5" width="69" height="69" rx="4"/><rect stroke="#5893D3" opacity=".458" x="97.5" y="332.5" width="69" height="69" rx="4"/><rect stroke="#5893D3" opacity=".458" x="257.5" y="172.5" width="69" height="69" rx="4"/><rect stroke="#FFF" opacity=".458" x="257.5" y="332.5" width="69" height="69" rx="4"/><rect stroke="#5893D3" opacity=".458" x="177.5" y="172.5" width="69" height="69" rx="4"/><rect stroke="#FFF" opacity=".458" x="177.5" y="332.5" width="69" height="69" rx="4"/><rect stroke="#5893D3" opacity=".458" x="337.5" y="172.5" width="69" height="69" rx="4"/><rect stroke="#5893D3" opacity=".458" x="337.5" y="332.5" width="69" height="69" rx="4"/><rect stroke="#5893D3" opacity=".458" x="97.5" y="252.5" width="69" height="69" rx="4"/><rect stroke="#5893D3" opacity=".458" x="97.5" y="412.5" width="69" height="69" rx="4"/><rect stroke="#5893D3" opacity=".458" x="257.5" y="412.5" width="69" height="69" rx="4"/><rect stroke="#FFF" opacity=".458" x="177.5" y="252.5" width="69" height="69" rx="4"/><rect stroke="#FFF" opacity=".458" x="257.5" y="252.5" width="69" height="69" rx="4"/><rect stroke="#5893D3" opacity=".458" x="177.5" y="412.5" width="69" height="69" rx="4"/><rect stroke="#5893D3" opacity=".458" x="337.5" y="252.5" width="69" height="69" rx="4"/><rect stroke="#5893D3" opacity=".458" x="337.5" y="412.5" width="69" height="69" rx="4"/><rect fill="#213753" x="337" y="132" width="70" height="25" rx="12.5"/><g transform="translate(186 207)"><rect fill="#0083B0" width="100" height="100" rx="4"/><path d="M29 23h14.418c1.053 4.793 3.588 7.189 7.606 7.189s6.561-2.396 7.63-7.189H72v13.602h-7.075V59h-28.3V36.602H29V23z" fill="#FFF"/><text font-family="FaktPro-Medium, Fakt Pro" font-size="13" font-weight="400" fill="#FFF"><tspan x="14" y="87">Long Sleeve</tspan></text></g><rect fill="#0091FF" x="142" y="198" width="220" height="220" rx="4"/><path d="M206 249h31.519c2.301 10.517 7.843 15.775 16.626 15.775 8.783 0 14.344-5.258 16.68-15.775H300v29.848h-15.467V328h-61.866v-49.152H206V249z" fill="#FFF"/><text font-family="FaktPro-Medium, Fakt Pro" font-size="13" font-weight="400" fill="#FFF"><tspan x="213.798" y="377.351">Short Sleeve</tspan></text></g></svg>