<?xml version="1.0" encoding="UTF-8"?>
<svg width="684px" height="596px" viewBox="0 0 684 596" version="1.1" xmlns="http://www.w3.org/2000/svg" xmlns:xlink="http://www.w3.org/1999/xlink">
    <!-- Generator: sketchtool 53 (72520) - https://sketchapp.com -->
    <title>94F5698B-36FD-4CB4-9681-2963978BFAA2</title>
    <desc>Created with sketchtool.</desc>
    <g id="Desktop" stroke="none" stroke-width="1" fill="none" fill-rule="evenodd">
        <g id="Landing-page" transform="translate(-756.000000, -1906.000000)">
            <g id="Group-28" transform="translate(756.000000, 1906.000000)">
                <rect id="Rectangle-Copy-21" stroke="#5893D3" x="0.5" y="0.5" width="874" height="595" rx="69"></rect>
                <rect id="Rectangle-Copy-22" stroke="#5893D3" x="77.5" y="72.5" width="722" height="452" rx="6"></rect>
                <rect id="Rectangle-Copy-23" stroke="#5893D3" x="77.5" y="86.5" width="722" height="31"></rect>
                <path d="M77.5,498.5 L77.5,519 C77.5,522.037566 79.9624339,524.5 83,524.5 L794,524.5 C797.037566,524.5 799.5,522.037566 799.5,519 L799.5,498.5 L77.5,498.5 Z" id="Rectangle-Copy-23" stroke="#5893D3"></path>
                <path d="M77.5,86.5 L799.5,86.5 L799.5,78 C799.5,74.9624339 797.037566,72.5 794,72.5 L83,72.5 C79.9624339,72.5 77.5,74.9624339 77.5,78 L77.5,86.5 Z" id="Rectangle-Copy-24" stroke="#5893D3"></path>
                <rect id="Rectangle-Copy-25" stroke="#5893D3" x="77.5" y="117.5" width="349" height="381"></rect>
                <rect id="Rectangle-Copy-25" stroke="#5893D3" x="426.5" y="117.5" width="373" height="44"></rect>
                <rect id="Rectangle-Copy-25" stroke="#5893D3" x="426.5" y="161.5" width="373" height="30"></rect>
                <path d="M448.5,457 L777.5,457 C784.403559,457 790,462.596441 790,469.5 C790,476.403559 784.403559,482 777.5,482 L448.5,482 C441.596441,482 436,476.403559 436,469.5 C436,462.596441 441.596441,457 448.5,457 Z M448.5,367 L516.5,367 C523.403559,367 529,372.596441 529,379.5 C529,386.403559 523.403559,392 516.5,392 L448.5,392 C441.596441,392 436,386.403559 436,379.5 C436,372.596441 441.596441,367 448.5,367 Z M583.5,367 L777.5,367 C784.403559,367 790,372.596441 790,379.5 C790,386.403559 784.403559,392 777.5,392 L583.5,392 C576.596441,392 571,386.403559 571,379.5 C571,372.596441 576.596441,367 583.5,367 Z M759.5,201 L787.5,201 C790.537566,201 793,203.462434 793,206.5 C793,209.537566 790.537566,212 787.5,212 L759.5,212 C756.462434,212 754,209.537566 754,206.5 C754,203.462434 756.462434,201 759.5,201 Z" id="Combined-Shape" fill="#213753"></path>
                <rect id="Rectangle-Copy-25" stroke="#5893D3" x="426.5" y="191.5" width="373" height="30"></rect>
                <rect id="Rectangle-Copy-43" stroke="#5893D3" x="426.5" y="221.5" width="373" height="30"></rect>
                <rect id="Rectangle-Copy-47" stroke="#5893D3" x="426.5" y="251.5" width="373" height="30"></rect>
                <rect id="Rectangle-Copy-25" stroke="#5893D3" x="97.5" y="132.5" width="224" height="24" rx="12"></rect>
                <rect id="Rectangle-Copy-25" stroke="#5893D3" opacity="0.458193824" x="97.5" y="172.5" width="69" height="69" rx="4"></rect>
                <rect id="Rectangle-Copy-28" stroke="#5893D3" opacity="0.458193824" x="97.5" y="332.5" width="69" height="69" rx="4"></rect>
                <rect id="Rectangle-Copy-26" stroke="#5893D3" opacity="0.458193824" x="257.5" y="172.5" width="69" height="69" rx="4"></rect>
                <rect id="Rectangle-Copy-29" stroke="#FFFFFF" opacity="0.458193824" x="257.5" y="332.5" width="69" height="69" rx="4"></rect>
                <rect id="Rectangle-Copy-25" stroke="#5893D3" opacity="0.458193824" x="177.5" y="172.5" width="69" height="69" rx="4"></rect>
                <rect id="Rectangle-Copy-30" stroke="#FFFFFF" opacity="0.458193824" x="177.5" y="332.5" width="69" height="69" rx="4"></rect>
                <rect id="Rectangle-Copy-27" stroke="#5893D3" opacity="0.458193824" x="337.5" y="172.5" width="69" height="69" rx="4"></rect>
                <rect id="Rectangle-Copy-31" stroke="#5893D3" opacity="0.458193824" x="337.5" y="332.5" width="69" height="69" rx="4"></rect>
                <rect id="Rectangle-Copy-25" stroke="#5893D3" opacity="0.458193824" x="97.5" y="252.5" width="69" height="69" rx="4"></rect>
                <rect id="Rectangle-Copy-32" stroke="#5893D3" opacity="0.458193824" x="97.5" y="412.5" width="69" height="69" rx="4"></rect>
                <rect id="Rectangle-Copy-33" stroke="#5893D3" opacity="0.458193824" x="257.5" y="412.5" width="69" height="69" rx="4"></rect>
                <rect id="Rectangle-Copy-25" stroke="#FFFFFF" opacity="0.458193824" x="177.5" y="252.5" width="69" height="69" rx="4"></rect>
                <rect id="Rectangle-Copy-36" stroke="#FFFFFF" opacity="0.458193824" x="257.5" y="252.5" width="69" height="69" rx="4"></rect>
                <rect id="Rectangle-Copy-34" stroke="#5893D3" opacity="0.458193824" x="177.5" y="412.5" width="69" height="69" rx="4"></rect>
                <rect id="Rectangle-Copy-27" stroke="#5893D3" opacity="0.458193824" x="337.5" y="252.5" width="69" height="69" rx="4"></rect>
                <rect id="Rectangle-Copy-35" stroke="#5893D3" opacity="0.458193824" x="337.5" y="412.5" width="69" height="69" rx="4"></rect>
                <rect id="Rectangle-Copy-25" fill="#213753" x="337" y="132" width="70" height="25" rx="12.5"></rect>
                <g id="Group-28-Copy-2" transform="translate(186.000000, 207.000000)">
                    <rect id="Rectangle-Copy-26" fill="#0083B0" x="0" y="0" width="100" height="100" rx="4"></rect>
                    <path d="M29,23 L43.4182517,23 C44.4709202,27.7925356 47.0061429,30.1888034 51.0239197,30.1888034 C55.0416965,30.1888034 57.5851862,27.7925356 58.6543888,23 L72,23 L72,36.6018255 L64.9248552,36.6018255 L64.9248552,59 L36.6242758,59 L36.6242758,36.6018255 L29,36.6018255 L29,23 Z" id="Rectangle-Copy-54" fill="#FFFFFF"></path>
                    <text id="Long-Sleeve" font-family="FaktPro-Medium, Fakt Pro" font-size="13" font-weight="400" line-spacing="13" fill="#FFFFFF">
                        <tspan x="14" y="87">Long Sleeve</tspan>
                    </text>
                </g>
                <rect id="Rectangle-Copy-26" fill="#0091FF" x="142" y="198" width="220" height="220" rx="4"></rect>
                <path d="M206,249 L237.518969,249 C239.820151,259.516953 245.362266,264.77543 254.145313,264.77543 C262.92836,264.77543 268.488547,259.516953 270.825873,249 L300,249 L300,278.84845 L284.533404,278.84845 L284.533404,328 L222.667021,328 L222.667021,278.84845 L206,278.84845 L206,249 Z" id="Rectangle-Copy-54" fill="#FFFFFF"></path>
                <text id="Short-Sleeve" font-family="FaktPro-Medium, Fakt Pro" font-size="13" font-weight="400" line-spacing="13" fill="#FFFFFF">
                    <tspan x="213.7975" y="377.350906">Short Sleeve</tspan>
                </text>
            </g>
        </g>
    </g>
</svg>