<?xml version="1.0" encoding="UTF-8"?>
<svg width="138px" height="40px" viewBox="0 0 138 40" version="1.1" xmlns="http://www.w3.org/2000/svg" xmlns:xlink="http://www.w3.org/1999/xlink">
    <!-- Generator: sketchtool 53 (72520) - https://sketchapp.com -->
    <title>4E5C254C-8F2C-4F0F-8A39-C2CA24686D00</title>
    <desc>Created with sketchtool.</desc>
    <g id="Desktop" stroke="none" stroke-width="1" fill="none" fill-rule="evenodd" opacity="0.4">
        <g id="About-us" transform="translate(-859.000000, -873.000000)" fill="#5D5D5D">
            <path d="M952.365741,884.142796 C955.374953,884.142796 957.825843,886.575983 957.825843,889.570896 L957.825843,900.183492 L957.814391,900.183492 C957.774306,901.000287 957.101456,901.656588 956.271132,901.656588 C955.43508,901.656588 954.762231,901.000287 954.725009,900.183492 L954.719283,900.183492 L954.719283,900.143369 C954.719283,900.134771 954.71642,900.123307 954.71642,900.111844 C954.71642,900.10038 954.719283,900.091782 954.719283,900.080318 L954.719283,889.570896 C954.719283,888.278355 953.668492,887.229419 952.365741,887.229419 L952.276982,887.229419 C951.00859,887.229419 949.977841,888.226768 949.926304,889.479186 C949.929167,889.513577 949.929167,889.545103 949.929167,889.58236 L949.929167,900.189224 L949.923441,900.189224 C949.883356,901.01175 949.210507,901.665186 948.377319,901.665186 C947.850492,901.665186 947.392381,901.407251 947.108926,901.01175 C946.942861,900.776743 946.836923,900.493014 946.822607,900.183492 L946.81688,900.183492 L946.81688,889.570896 C946.81688,889.539371 946.819744,889.513577 946.819744,889.482052 C946.765343,888.229634 945.737458,887.238017 944.466202,887.238017 L944.380306,887.238017 C943.080418,887.238017 942.026765,888.286953 942.026765,889.58236 L942.026765,900.189224 L942.015312,900.189224 C941.980954,901.01175 941.305241,901.665186 940.472053,901.665186 C939.638865,901.665186 938.966015,901.01175 938.928794,900.189224 L938.920204,900.189224 L938.920204,889.58236 C938.920204,886.584581 941.371094,884.151394 944.380306,884.151394 L944.466202,884.151394 C945.998008,884.151394 947.375202,884.779036 948.368729,885.787848 C949.362256,884.773304 950.745176,884.142796 952.276982,884.142796 L952.365741,884.142796 Z M933.981203,884.142796 C934.825843,884.142796 935.507282,884.793365 935.547367,885.613026 L935.553093,885.613026 L935.553093,896.228487 C935.553093,899.2234 933.073572,901.665186 930.027138,901.665186 L929.941242,901.665186 C926.894809,901.665186 924.415287,899.2234 924.415287,896.228487 L924.415287,885.613026 L924.429603,885.613026 C924.466824,884.793365 925.148263,884.142796 925.992904,884.142796 C926.831819,884.142796 927.513258,884.793365 927.553342,885.613026 L927.559069,885.613026 L927.559069,885.68754 C927.559069,885.696138 927.559069,885.704736 927.559069,885.7162 L927.559069,896.228487 C927.559069,897.526761 928.627038,898.572831 929.941242,898.572831 L930.027138,898.572831 C931.344205,898.572831 932.412175,897.526761 932.412175,896.228487 L932.412175,885.613026 L932.420764,885.613026 C932.457986,884.793365 933.142288,884.142796 933.981203,884.142796 Z M970.824723,884.142796 C971.666501,884.142796 972.34794,884.793365 972.385161,885.613026 L972.396614,885.613026 L972.396614,896.228487 C972.396614,899.2234 969.914229,901.665186 966.870659,901.665186 L966.7819,901.665186 C963.735466,901.665186 961.258807,899.2234 961.258807,896.228487 L961.258807,885.613026 L961.267397,885.613026 C961.307482,884.793365 961.991784,884.142796 962.830698,884.142796 C963.672476,884.142796 964.356778,884.793365 964.394,885.613026 L964.399726,885.613026 L964.399726,885.653149 L964.402589,885.68754 C964.402589,885.696138 964.399726,885.704736 964.399726,885.7162 L964.399726,896.228487 C964.399726,897.526761 965.464833,898.572831 966.7819,898.572831 L966.870659,898.572831 C968.184862,898.572831 969.252832,897.526761 969.252832,896.228487 L969.252832,885.613026 L969.261422,885.613026 C969.301506,884.793365 969.977219,884.142796 970.824723,884.142796 Z M983.606,896.11385 L983.606,889.6884 C983.606,888.364333 982.520851,887.295336 981.186605,887.295336 L981.094983,887.295336 C979.760737,887.295336 978.672725,888.364333 978.672725,889.6884 L978.672725,896.11385 C978.672725,897.790428 979.760737,898.504048 981.094983,898.504048 L981.186605,898.504048 C982.520851,898.504048 983.606,897.790428 983.606,896.11385 Z M981.186605,884.142796 C984.281713,884.142796 986.640981,886.469943 986.640981,889.533639 L986.640981,895.956223 C986.640981,899.014186 984.281713,901.659454 981.186605,901.659454 L981.094983,901.659454 C980.207394,901.659454 979.219594,901.412983 978.626914,900.891381 L978.626914,908.887368 C978.626914,909.735688 977.931159,910.426381 977.069339,910.426381 C976.207519,910.426381 975.511764,909.735688 975.511764,908.887368 L975.511764,896.669843 C975.491722,896.486423 975.511764,896.300136 975.511764,896.11385 L975.511764,889.6884 C975.511764,886.62757 977.999876,884.142796 981.094983,884.142796 L981.186605,884.142796 Z M916.770571,891.055456 C919.023901,891.938167 921.826964,893.035824 921.826964,896.52368 C921.826964,899.862506 918.763351,901.665186 915.877256,901.665186 C914.193701,901.665186 911.974729,900.899979 910.995518,899.43548 C910.792232,899.143154 910.689157,898.830766 910.689157,898.506914 C910.689157,897.69012 911.465082,896.944974 912.315449,896.944974 C912.744927,896.944974 913.188722,897.182847 913.558073,897.615605 C914.256691,898.466791 915.313208,898.595758 915.877256,898.595758 C917.724013,898.595758 918.688908,897.549688 918.688908,896.52368 C918.688908,895.116501 917.228682,894.546178 915.536537,893.895608 C913.429229,893.073082 910.800822,892.049939 910.800822,888.863008 C910.800822,885.764921 913.452135,884.142796 916.074816,884.142796 C917.978837,884.142796 919.985933,885.183134 920.956554,886.679157 C921.122619,886.922763 921.208515,887.223687 921.208515,887.547539 C921.208515,888.395859 920.464086,889.112345 919.582223,889.112345 C919.118387,889.112345 918.697498,888.863008 918.33101,888.375797 C917.78414,887.61059 917.00249,887.209357 916.074816,887.209357 C914.597411,887.209357 913.938877,888.040481 913.938877,888.863008 C913.938877,889.891882 915.015436,890.364763 916.770571,891.055456 Z M886.83879,883.294476 C887.056392,883.0652 887.050666,882.704091 886.824474,882.480547 C886.807295,882.463352 886.787253,882.446156 886.76721,882.431826 C883.070833,879.236297 877.470434,879.385326 873.957301,882.88178 C870.424125,886.395429 870.292419,892.009816 873.553591,895.683958 L873.556455,895.683958 C873.779783,895.907502 874.143408,895.910368 874.372464,895.698288 L886.83879,883.294476 Z M884.24474,903.115354 C887.777916,899.601705 887.909623,893.987318 884.645587,890.313176 C884.419395,890.092498 884.061496,890.086766 883.829578,890.301712 L871.363252,902.705524 C871.145649,902.9348 871.151376,903.293043 871.374704,903.516587 C871.394747,903.533782 871.414789,903.553844 871.434831,903.568174 C875.128346,906.763703 880.728744,906.611808 884.24474,903.115354 Z M896.330263,873 C897.91647,873 899.202042,874.275346 899.202042,875.857348 L899.202042,910.142652 C899.202042,911.721788 897.91647,913 896.330263,913 L861.871779,913 C860.285572,913 859,911.721788 859,910.142652 L859,875.857348 C859,874.275346 860.285572,873 861.871779,873 L896.330263,873 Z M993.890576,889.576628 C995.190464,889.576628 996.246981,888.524826 996.246981,887.235151 C996.246981,885.942609 995.190464,884.899405 993.890576,884.899405 C992.596415,884.899405 991.537035,885.942609 991.537035,887.235151 C991.537035,888.524826 992.596415,889.576628 993.890576,889.576628 Z M993.890576,884.142796 C995.60849,884.142796 997,885.529913 997,887.235151 C997,888.940388 995.60849,890.327506 993.890576,890.327506 C992.178389,890.327506 990.784016,888.940388 990.784016,887.235151 C990.784016,885.529913 992.178389,884.142796 993.890576,884.142796 Z M993.919208,886.899835 C994.131084,886.899835 994.251338,886.76227 994.251338,886.584581 C994.251338,886.395429 994.102452,886.280791 993.919208,886.280791 L993.498319,886.280791 L993.498319,886.899835 L993.919208,886.899835 Z M994.237022,887.349789 L994.795344,887.951637 C994.88124,888.046213 994.927051,888.120728 994.927051,888.223902 C994.927051,888.318478 994.844018,888.52196 994.600647,888.52196 C994.434582,888.52196 994.377319,888.464641 994.297149,888.364333 L993.506909,887.372716 L993.498319,887.372716 L993.498319,888.183779 C993.498319,888.407322 993.36375,888.52196 993.177642,888.52196 C992.991535,888.52196 992.856965,888.407322 992.856965,888.183779 L992.856965,886.008526 C992.856965,885.805044 993.011577,885.690406 993.177642,885.690406 L993.950703,885.690406 C994.520478,885.690406 994.892693,886.037186 994.892693,886.561654 C994.892693,886.977216 994.637869,887.275274 994.237022,887.349789 Z" id="Combined-Shape"></path>
        </g>
    </g>
</svg>