<svg width="138" height="40" viewBox="0 0 138 40" xmlns="http://www.w3.org/2000/svg"><title>5EEE1273-76A8-4725-8484-33A59A6E8B7C</title><path d="M93.366 11.143c3.009 0 5.46 2.433 5.46 5.428v10.612h-.012a1.548 1.548 0 0 1-1.543 1.474 1.545 1.545 0 0 1-1.546-1.474h-.006v-.04c0-.008-.003-.02-.003-.031 0-.012.003-.02.003-.032V16.57a2.346 2.346 0 0 0-2.353-2.34h-.089c-1.268 0-2.3.997-2.35 2.25.002.034.002.065.002.102V27.19h-.006a1.552 1.552 0 1 1-3.1-.006h-.006V16.571c0-.032.003-.057.003-.089a2.346 2.346 0 0 0-2.354-2.244h-.086a2.348 2.348 0 0 0-2.353 2.344V27.19h-.012a1.54 1.54 0 0 1-1.543 1.476 1.543 1.543 0 0 1-1.543-1.476h-.009V16.582c0-2.997 2.451-5.43 5.46-5.43h.086c1.532 0 2.91.627 3.903 1.636a5.452 5.452 0 0 1 3.908-1.645h.089zm-18.385 0c.845 0 1.526.65 1.566 1.47h.006v10.615c0 2.995-2.48 5.437-5.526 5.437h-.086c-3.046 0-5.526-2.442-5.526-5.437V12.613h.015a1.55 1.55 0 0 1 1.563-1.47c.839 0 1.52.65 1.56 1.47h.006v10.615c0 1.299 1.068 2.345 2.382 2.345h.086c1.317 0 2.385-1.046 2.385-2.345V12.613h.009a1.55 1.55 0 0 1 1.56-1.47zm36.844 0c.842 0 1.523.65 1.56 1.47h.012v10.615c0 2.995-2.483 5.437-5.526 5.437h-.09c-3.046 0-5.522-2.442-5.522-5.437V12.613h.008c.04-.82.725-1.47 1.564-1.47.841 0 1.526.65 1.563 1.47h.006v.04l.003.035c0 .008-.003.017-.003.028v10.512c0 1.299 1.065 2.345 2.382 2.345h.089c1.314 0 2.382-1.046 2.382-2.345V12.613h.008a1.55 1.55 0 0 1 1.564-1.47zm12.781 11.97v-6.425c0-1.324-1.085-2.393-2.42-2.393h-.091c-1.334 0-2.422 1.07-2.422 2.393v6.426c0 1.676 1.088 2.39 2.422 2.39h.092c1.334 0 2.419-.714 2.419-2.39zm-2.42-11.97c3.096 0 5.455 2.327 5.455 5.39v6.423c0 3.058-2.36 5.703-5.454 5.703h-.092c-.888 0-1.875-.246-2.468-.768v7.996a1.55 1.55 0 0 1-1.558 1.54 1.549 1.549 0 0 1-1.557-1.54V23.67c-.02-.184 0-.37 0-.556v-6.426c0-3.06 2.488-5.545 5.583-5.545h.092zm-64.415 6.912c2.253.883 5.056 1.98 5.056 5.469 0 3.339-3.064 5.141-5.95 5.141-1.683 0-3.902-.765-4.881-2.23a1.608 1.608 0 0 1-.307-.928c0-.817.776-1.562 1.626-1.562.43 0 .874.238 1.243.67.699.852 1.755.98 2.32.98 1.846 0 2.81-1.045 2.81-2.071 0-1.407-1.46-1.978-3.151-2.628-2.108-.823-4.736-1.846-4.736-5.033 0-3.098 2.651-4.72 5.274-4.72 1.904 0 3.91 1.04 4.882 2.536.166.244.252.545.252.869 0 .848-.745 1.564-1.627 1.564-.464 0-.885-.249-1.251-.736-.547-.765-1.329-1.167-2.256-1.167-1.478 0-2.136.831-2.136 1.654 0 1.029 1.076 1.502 2.832 2.192zm-29.932-7.76a.58.58 0 0 0-.072-.863c-3.696-3.196-9.297-3.047-12.81.45a9.321 9.321 0 0 0-.403 12.802h.002a.591.591 0 0 0 .816.014L27.84 10.294zm-2.594 19.82a9.318 9.318 0 0 0 .4-12.802.591.591 0 0 0-.815-.011L12.363 29.706a.58.58 0 0 0 .012.81c.02.018.04.038.06.052 3.693 3.196 9.294 3.044 12.81-.453zM37.33 0a2.862 2.862 0 0 1 2.872 2.857v34.286A2.864 2.864 0 0 1 37.33 40H2.872A2.864 2.864 0 0 1 0 37.143V2.857A2.862 2.862 0 0 1 2.872 0H37.33zm97.56 16.577c1.3 0 2.357-1.052 2.357-2.342a2.345 2.345 0 0 0-2.356-2.336 2.347 2.347 0 0 0-2.354 2.336c0 1.29 1.06 2.342 2.354 2.342zm0-5.434a3.102 3.102 0 0 1 3.11 3.092 3.102 3.102 0 0 1-3.11 3.093 3.103 3.103 0 0 1-3.106-3.093 3.103 3.103 0 0 1 3.107-3.092zm.03 2.757c.211 0 .331-.138.331-.315 0-.19-.149-.304-.332-.304h-.42v.619h.42zm.317.45l.558.602c.086.094.132.169.132.272a.314.314 0 0 1-.326.298c-.166 0-.224-.057-.304-.158l-.79-.991h-.009v.81c0 .224-.134.339-.32.339s-.321-.115-.321-.338v-2.175a.31.31 0 0 1 .32-.319h.774c.57 0 .942.347.942.872 0 .415-.255.713-.656.788z" fill="#FFFFFE" fill-rule="evenodd" opacity=".4"/></svg>