<?xml version="1.0" encoding="UTF-8"?>
<svg width="138px" height="40px" viewBox="0 0 138 40" version="1.1" xmlns="http://www.w3.org/2000/svg" xmlns:xlink="http://www.w3.org/1999/xlink">
    <!-- Generator: sketchtool 53 (72520) - https://sketchapp.com -->
    <title>5EEE1273-76A8-4725-8484-33A59A6E8B7C</title>
    <desc>Created with sketchtool.</desc>
    <g id="Desktop" stroke="none" stroke-width="1" fill="none" fill-rule="evenodd" opacity="0.4">
        <g id="Landing-page" transform="translate(-201.000000, -708.000000)" fill="#FFFFFE">
            <path d="M294.365741,719.142796 C297.374953,719.142796 299.825843,721.575983 299.825843,724.570896 L299.825843,735.183492 L299.814391,735.183492 C299.774306,736.000287 299.101456,736.656588 298.271132,736.656588 C297.43508,736.656588 296.762231,736.000287 296.725009,735.183492 L296.719283,735.183492 L296.719283,735.143369 C296.719283,735.134771 296.71642,735.123307 296.71642,735.111844 C296.71642,735.10038 296.719283,735.091782 296.719283,735.080318 L296.719283,724.570896 C296.719283,723.278355 295.668492,722.229419 294.365741,722.229419 L294.276982,722.229419 C293.00859,722.229419 291.977841,723.226768 291.926304,724.479186 C291.929167,724.513577 291.929167,724.545103 291.929167,724.58236 L291.929167,735.189224 L291.923441,735.189224 C291.883356,736.01175 291.210507,736.665186 290.377319,736.665186 C289.850492,736.665186 289.392381,736.407251 289.108926,736.01175 C288.942861,735.776743 288.836923,735.493014 288.822607,735.183492 L288.81688,735.183492 L288.81688,724.570896 C288.81688,724.539371 288.819744,724.513577 288.819744,724.482052 C288.765343,723.229634 287.737458,722.238017 286.466202,722.238017 L286.380306,722.238017 C285.080418,722.238017 284.026765,723.286953 284.026765,724.58236 L284.026765,735.189224 L284.015312,735.189224 C283.980954,736.01175 283.305241,736.665186 282.472053,736.665186 C281.638865,736.665186 280.966015,736.01175 280.928794,735.189224 L280.920204,735.189224 L280.920204,724.58236 C280.920204,721.584581 283.371094,719.151394 286.380306,719.151394 L286.466202,719.151394 C287.998008,719.151394 289.375202,719.779036 290.368729,720.787848 C291.362256,719.773304 292.745176,719.142796 294.276982,719.142796 L294.365741,719.142796 Z M275.981203,719.142796 C276.825843,719.142796 277.507282,719.793365 277.547367,720.613026 L277.553093,720.613026 L277.553093,731.228487 C277.553093,734.2234 275.073572,736.665186 272.027138,736.665186 L271.941242,736.665186 C268.894809,736.665186 266.415287,734.2234 266.415287,731.228487 L266.415287,720.613026 L266.429603,720.613026 C266.466824,719.793365 267.148263,719.142796 267.992904,719.142796 C268.831819,719.142796 269.513258,719.793365 269.553342,720.613026 L269.559069,720.613026 L269.559069,720.68754 C269.559069,720.696138 269.559069,720.704736 269.559069,720.7162 L269.559069,731.228487 C269.559069,732.526761 270.627038,733.572831 271.941242,733.572831 L272.027138,733.572831 C273.344205,733.572831 274.412175,732.526761 274.412175,731.228487 L274.412175,720.613026 L274.420764,720.613026 C274.457986,719.793365 275.142288,719.142796 275.981203,719.142796 Z M312.824723,719.142796 C313.666501,719.142796 314.34794,719.793365 314.385161,720.613026 L314.396614,720.613026 L314.396614,731.228487 C314.396614,734.2234 311.914229,736.665186 308.870659,736.665186 L308.7819,736.665186 C305.735466,736.665186 303.258807,734.2234 303.258807,731.228487 L303.258807,720.613026 L303.267397,720.613026 C303.307482,719.793365 303.991784,719.142796 304.830698,719.142796 C305.672476,719.142796 306.356778,719.793365 306.394,720.613026 L306.399726,720.613026 L306.399726,720.653149 L306.402589,720.68754 C306.402589,720.696138 306.399726,720.704736 306.399726,720.7162 L306.399726,731.228487 C306.399726,732.526761 307.464833,733.572831 308.7819,733.572831 L308.870659,733.572831 C310.184862,733.572831 311.252832,732.526761 311.252832,731.228487 L311.252832,720.613026 L311.261422,720.613026 C311.301506,719.793365 311.977219,719.142796 312.824723,719.142796 Z M325.606,731.11385 L325.606,724.6884 C325.606,723.364333 324.520851,722.295336 323.186605,722.295336 L323.094983,722.295336 C321.760737,722.295336 320.672725,723.364333 320.672725,724.6884 L320.672725,731.11385 C320.672725,732.790428 321.760737,733.504048 323.094983,733.504048 L323.186605,733.504048 C324.520851,733.504048 325.606,732.790428 325.606,731.11385 Z M323.186605,719.142796 C326.281713,719.142796 328.640981,721.469943 328.640981,724.533639 L328.640981,730.956223 C328.640981,734.014186 326.281713,736.659454 323.186605,736.659454 L323.094983,736.659454 C322.207394,736.659454 321.219594,736.412983 320.626914,735.891381 L320.626914,743.887368 C320.626914,744.735688 319.931159,745.426381 319.069339,745.426381 C318.207519,745.426381 317.511764,744.735688 317.511764,743.887368 L317.511764,731.669843 C317.491722,731.486423 317.511764,731.300136 317.511764,731.11385 L317.511764,724.6884 C317.511764,721.62757 319.999876,719.142796 323.094983,719.142796 L323.186605,719.142796 Z M258.770571,726.055456 C261.023901,726.938167 263.826964,728.035824 263.826964,731.52368 C263.826964,734.862506 260.763351,736.665186 257.877256,736.665186 C256.193701,736.665186 253.974729,735.899979 252.995518,734.43548 C252.792232,734.143154 252.689157,733.830766 252.689157,733.506914 C252.689157,732.69012 253.465082,731.944974 254.315449,731.944974 C254.744927,731.944974 255.188722,732.182847 255.558073,732.615605 C256.256691,733.466791 257.313208,733.595758 257.877256,733.595758 C259.724013,733.595758 260.688908,732.549688 260.688908,731.52368 C260.688908,730.116501 259.228682,729.546178 257.536537,728.895608 C255.429229,728.073082 252.800822,727.049939 252.800822,723.863008 C252.800822,720.764921 255.452135,719.142796 258.074816,719.142796 C259.978837,719.142796 261.985933,720.183134 262.956554,721.679157 C263.122619,721.922763 263.208515,722.223687 263.208515,722.547539 C263.208515,723.395859 262.464086,724.112345 261.582223,724.112345 C261.118387,724.112345 260.697498,723.863008 260.33101,723.375797 C259.78414,722.61059 259.00249,722.209357 258.074816,722.209357 C256.597411,722.209357 255.938877,723.040481 255.938877,723.863008 C255.938877,724.891882 257.015436,725.364763 258.770571,726.055456 Z M228.83879,718.294476 C229.056392,718.0652 229.050666,717.704091 228.824474,717.480547 C228.807295,717.463352 228.787253,717.446156 228.76721,717.431826 C225.070833,714.236297 219.470434,714.385326 215.957301,717.88178 C212.424125,721.395429 212.292419,727.009816 215.553591,730.683958 L215.556455,730.683958 C215.779783,730.907502 216.143408,730.910368 216.372464,730.698288 L228.83879,718.294476 Z M226.24474,738.115354 C229.777916,734.601705 229.909623,728.987318 226.645587,725.313176 C226.419395,725.092498 226.061496,725.086766 225.829578,725.301712 L213.363252,737.705524 C213.145649,737.9348 213.151376,738.293043 213.374704,738.516587 C213.394747,738.533782 213.414789,738.553844 213.434831,738.568174 C217.128346,741.763703 222.728744,741.611808 226.24474,738.115354 Z M238.330263,708 C239.91647,708 241.202042,709.275346 241.202042,710.857348 L241.202042,745.142652 C241.202042,746.721788 239.91647,748 238.330263,748 L203.871779,748 C202.285572,748 201,746.721788 201,745.142652 L201,710.857348 C201,709.275346 202.285572,708 203.871779,708 L238.330263,708 Z M335.890576,724.576628 C337.190464,724.576628 338.246981,723.524826 338.246981,722.235151 C338.246981,720.942609 337.190464,719.899405 335.890576,719.899405 C334.596415,719.899405 333.537035,720.942609 333.537035,722.235151 C333.537035,723.524826 334.596415,724.576628 335.890576,724.576628 Z M335.890576,719.142796 C337.60849,719.142796 339,720.529913 339,722.235151 C339,723.940388 337.60849,725.327506 335.890576,725.327506 C334.178389,725.327506 332.784016,723.940388 332.784016,722.235151 C332.784016,720.529913 334.178389,719.142796 335.890576,719.142796 Z M335.919208,721.899835 C336.131084,721.899835 336.251338,721.76227 336.251338,721.584581 C336.251338,721.395429 336.102452,721.280791 335.919208,721.280791 L335.498319,721.280791 L335.498319,721.899835 L335.919208,721.899835 Z M336.237022,722.349789 L336.795344,722.951637 C336.88124,723.046213 336.927051,723.120728 336.927051,723.223902 C336.927051,723.318478 336.844018,723.52196 336.600647,723.52196 C336.434582,723.52196 336.377319,723.464641 336.297149,723.364333 L335.506909,722.372716 L335.498319,722.372716 L335.498319,723.183779 C335.498319,723.407322 335.36375,723.52196 335.177642,723.52196 C334.991535,723.52196 334.856965,723.407322 334.856965,723.183779 L334.856965,721.008526 C334.856965,720.805044 335.011577,720.690406 335.177642,720.690406 L335.950703,720.690406 C336.520478,720.690406 336.892693,721.037186 336.892693,721.561654 C336.892693,721.977216 336.637869,722.275274 336.237022,722.349789 Z" id="Combined-Shape"></path>
        </g>
    </g>
</svg>