<?xml version="1.0" encoding="UTF-8"?>
<svg width="23px" height="23px" viewBox="0 0 23 23" version="1.1" xmlns="http://www.w3.org/2000/svg" xmlns:xlink="http://www.w3.org/1999/xlink">
    <!-- Generator: sketchtool 53 (72520) - https://sketchapp.com -->
    <title>1FEC6B59-00BC-4D65-B4EA-A9620A29725F</title>
    <desc>Created with sketchtool.</desc>
    <g id="Symbols" stroke="none" stroke-width="1" fill="none" fill-rule="evenodd">
        <g id="Footer" transform="translate(-119.000000, -318.000000)">
            <g id="Group-15" transform="translate(90.000000, 93.000000)">
                <g id="Group-6" transform="translate(0.000000, 206.000000)">
                    <g id="Group-2" transform="translate(30.000000, 18.000000)">
                        <g id="Group" transform="translate(0.000000, 1.000000)">
                            <path d="M10.7094026,22 L2,22 C0.8954305,22 -1.27433163e-14,21.1045695 -1.28785871e-14,20 L-1.24344979e-14,4 C-1.25697686e-14,2.8954305 0.8954305,2 2,2 L18,2 C19.1045695,2 20,2.8954305 20,4 L20,11.4315541" id="Path-2" stroke="#0A192B" stroke-width="0.75" transform="translate(10.000000, 12.000000) rotate(-90.000000) translate(-10.000000, -12.000000) "></path>
                            <path d="M21.9187042,0.428041197 C22.1207701,2.06184128 21.9446932,3.74836345 21.4095003,5.30504686 C20.874201,6.8618897 19.9759591,8.30010785 18.8118745,9.4641924 L16.1554148,12.1207053 L15.6608263,15.9552805 C15.6495591,16.0426546 15.6096455,16.1238636 15.5473569,16.1861522 L11.8502737,19.8832355 C11.7743262,19.9591298 11.6724961,20 11.5683274,20 C11.5287859,20 11.4889786,19.9941538 11.4501279,19.9820894 C11.3087562,19.9381897 11.2034183,19.819565 11.1764195,19.6739947 L10.6586588,16.878608 L10.1093818,16.329331 L9.47607903,17.4987302 C9.41618206,17.6093829 9.3074959,17.6852772 9.18297186,17.7034004 C9.16383885,17.706164 9.14459953,17.7075459 9.12557281,17.7075459 C9.02060696,17.7075459 8.91898939,17.666091 8.84367972,17.5907813 L4.40917819,13.1562798 C4.32020967,13.0673113 4.27848906,12.9415648 4.29661228,12.8170408 C4.3147355,12.6925167 4.39062979,12.5838306 4.5012824,12.5239336 L5.67068168,11.890684 L5.12140469,11.341407 L2.32601798,10.8236463 C2.18050076,10.7967006 2.06182292,10.6913096 2.01797643,10.5499379 C1.97402364,10.4085662 2.01207708,10.2544922 2.11672404,10.1498453 L5.81380727,6.45276205 C5.87614901,6.39047346 5.95730488,6.35055986 6.04473213,6.33929264 L9.87925418,5.84475734 L12.535714,3.18829757 C13.6997985,2.02421302 15.1380698,1.12597109 16.6949126,0.590671829 C18.251596,0.0554257197 19.9379056,-0.120757465 21.5720777,0.0813615852 C21.7534162,0.103789731 21.8962761,0.246649581 21.9187042,0.428041197 Z M5.18215202,10.5420189 L8.95645822,6.7676596 L6.28145005,7.1126385 L3.21628782,10.177907 L5.18215202,10.5420189 Z M9.02953571,16.6493307 L9.52120106,15.7413628 L6.25875617,12.4788647 L5.35073514,12.9705832 L9.02953571,16.6493307 Z M14.8874273,15.7186157 L15.2324062,13.0436607 L11.4580468,16.8180201 L11.8222119,18.7838311 L14.8874273,15.7186157 Z M18.2480352,8.9006188 C19.2970559,7.85154493 20.1122287,6.56197968 20.6126102,5.16511011 C19.6829051,4.98462199 18.8205375,4.53005343 18.1453015,3.85476428 C17.4700124,3.17952827 17.0154438,2.3171076 16.8350088,1.38745563 C15.438033,1.88778399 14.1484677,2.7029036 13.099447,3.75197747 L5.87939099,10.9720866 L11.0279792,16.1206748 L18.2480352,8.9006188 Z M20.8525701,4.39920487 C21.1639599,3.24373017 21.2702013,2.02995292 21.1611962,0.838869559 C19.9701129,0.729917665 18.7563356,0.836105901 17.6008609,1.14749573 C17.7386718,1.9554936 18.1249993,2.70715538 18.7089814,3.29108438 C19.2929636,3.87501339 20.0445722,4.26139401 20.8525701,4.39920487 Z M12.7105153,5.86973655 C13.6533478,4.92695721 15.1874968,4.92690406 16.1303824,5.86973655 C17.073268,6.81262219 17.073268,8.34677115 16.1304355,9.28960364 L16.1303824,9.28960364 C15.6590193,9.76096673 15.0395879,9.996728 14.4204754,9.996728 C13.8011503,9.996728 13.1819847,9.76107303 12.7105153,9.28960364 C11.7676828,8.346718 11.7676828,6.81262219 12.7105153,5.86973655 Z M15.5667025,8.72587059 C16.1986766,8.09384331 16.1986766,7.06544373 15.5665962,6.43341645 C15.2506357,6.11745596 14.8355556,5.95944914 14.4204223,5.95944914 C14.0053421,5.95944914 13.5902088,6.11740281 13.2742483,6.43341645 C12.6421679,7.06544373 12.6421679,8.09384331 13.2742483,8.72587059 C13.9061693,9.35784473 14.9345689,9.35795102 15.5667025,8.72587059 Z M5.01253669,19.5044848 C5.03153669,19.5495848 4.99453669,19.4594848 5.01253669,19.5044848 Z" id="Combined-Shape" fill="#000000" fill-rule="nonzero"></path>
                        </g>
                    </g>
                </g>
            </g>
        </g>
    </g>
</svg>