<svg width="23" height="23" viewBox="0 0 23 23" xmlns="http://www.w3.org/2000/svg"><title>1FEC6B59-00BC-4D65-B4EA-A9620A29725F</title><g fill="none" fill-rule="evenodd"><path d="M21 11.29V20a2 2 0 0 1-2 2H3a2 2 0 0 1-2-2V4a2 2 0 0 1 2-2h7.432" stroke="#0A192B" stroke-width=".75"/><path d="M22.919.428c.202 1.634.026 3.32-.51 4.877a10.95 10.95 0 0 1-2.597 4.16l-2.657 2.656-.494 3.834a.399.399 0 0 1-.114.231l-3.697 3.697a.399.399 0 0 1-.674-.209l-.517-2.795-.55-.55-.633 1.17a.399.399 0 0 1-.632.092l-4.435-4.435a.399.399 0 0 1 .092-.632l1.17-.633-.55-.55-2.795-.517a.398.398 0 0 1-.21-.674l3.698-3.697a.399.399 0 0 1 .23-.114l3.835-.494 2.657-2.657A10.95 10.95 0 0 1 17.695.591a10.95 10.95 0 0 1 4.877-.51.399.399 0 0 1 .347.347zM6.182 10.542l3.774-3.774-2.675.345-3.065 3.065 1.966.364zm3.848 6.107l.491-.908L7.26 12.48l-.908.492 3.679 3.678zm5.857-.93l.345-2.675-3.774 3.774.364 1.966 3.065-3.065zM19.248 8.9a10.151 10.151 0 0 0 2.365-3.736 4.78 4.78 0 0 1-2.468-1.31 4.78 4.78 0 0 1-1.31-2.468 10.149 10.149 0 0 0-3.736 2.365l-7.22 7.22 5.149 5.149 7.22-7.22zm2.605-4.502A10.17 10.17 0 0 0 22.16.84a10.17 10.17 0 0 0-3.56.308A3.981 3.981 0 0 0 21.853 4.4zM13.71 5.87a2.421 2.421 0 0 1 3.42 0 2.421 2.421 0 0 1 0 3.42 2.411 2.411 0 0 1-1.71.708 2.41 2.41 0 0 1-1.71-.707 2.421 2.421 0 0 1 0-3.42zm2.856 2.857a1.623 1.623 0 0 0 0-2.293 1.616 1.616 0 0 0-1.147-.474c-.415 0-.83.158-1.146.474a1.623 1.623 0 0 0 0 2.293c.632.632 1.66.632 2.293 0zM6.013 19.504c.019.046-.018-.045 0 0z" fill="#000" fill-rule="nonzero"/></g></svg>